{
classes = (
{
automatic = 1;
code = "A Aacute Abreve Acircumflex Adieresis Agrave Amacron Aogonek Aring Atilde AE B C Cacute Ccaron Ccedilla D Eth Dcaron Dcroat E Eacute Ecaron Ecircumflex Edieresis Edotaccent Egrave Emacron Eogonek F G Gbreve Gcommaaccent H I Iacute Icircumflex Idieresis Idotaccent Igrave Imacron Iogonek J K Kcommaaccent L Lacute Lcaron Lcommaaccent Lslash M N Nacute Ncaron Ncommaaccent Ntilde O Oacute Ocircumflex Odieresis Ograve Ohungarumlaut Omacron Oslash Otilde OE P Thorn Q R Racute Rcaron Rcommaaccent S Sacute Scaron Scedilla Scommaaccent Germandbls T Tcaron Tcedilla Tcommaaccent U Uacute Ucircumflex Udieresis Ugrave Uhungarumlaut Umacron Uogonek Uring V W X Y Yacute Ydieresis Z Zacute Zcaron Zdotaccent Delta Omega";
name = Uppercase;
},
{
automatic = 1;
code = "iMatra-deva iMatra-deva.01 iMatra-deva.02 iMatra-deva.03 iMatra-deva.04 iMatra-deva.05";
name = DevaIMatras;
},
{
automatic = 1;
code = "iMatra_reph-deva iMatra_reph-deva.01 iMatra_reph-deva.02 iMatra_reph-deva.03 iMatra_reph-deva.04 iMatra_reph-deva.05";
name = DevaIMatraRephs;
},
{
automatic = 1;
code = "iMatra_reph_anusvara-deva iMatra_reph_anusvara-deva.01 iMatra_reph_anusvara-deva.02 iMatra_reph_anusvara-deva.03 iMatra_reph_anusvara-deva.04 iMatra_reph_anusvara-deva.05";
name = DevaIMatraRephAnusvaras;
},
{
automatic = 1;
code = "ka-deva kha-deva ga-deva gha-deva nga-deva ca-deva cha-deva ja-deva jha-deva nya-deva tta-deva ttha-deva dda-deva ddha-deva nna-deva ta-deva tha-deva da-deva dha-deva na-deva nnna-deva pa-deva pha-deva ba-deva bha-deva ma-deva ya-deva ra-deva rra-deva la-deva lla-deva llla-deva va-deva sha-deva ssa-deva sa-deva ha-deva qa-deva khha-deva ghha-deva za-deva dddha-deva rha-deva fa-deva yya-deva zha-deva jjya-deva gga-deva jja-deva ddda-deva bba-deva la-deva.loclMAR sha-deva.loclMAR jha-deva.loclNEP zha-deva.loclNEP";
name = DevaFullforms;
},
{
automatic = 1;

glyphs = (
{
color = 4;
glyphname = A;
lastChange = "2015-01-31 05:52:20 +0000";
layers = (
{
anchors = (
{
name = ogonek;
position = "{626, 10}";
},
{
name = top;
position = "{361, 688}";
}
);
background = {
paths = (
{
closed = 1;
nodes = (
"305 688 LINE",
"77 86 LINE",
"8 55 LINE",
"8 0 LINE",
"221 0 LINE",
"221 55 LINE",
"150 81 LINE",
"369 671 LINE",
"337 671 LINE",
"554 82 LINE",
"484 55 LINE",
"484 0 LINE",
"714 0 LINE",
"714 55 LINE",
"645 87 LINE",
"417 688 LINE"
);
},
{
closed = 1;
nodes = (
"191 300 LINE",
"169 229 LINE",
"534 229 LINE",
"510 300 LINE"
);
}
);
};
layerId = "0225C979-6A3F-4323-834E-E3153ADD1AE8";
name = Regular;
paths = (
{
closed = 1;
nodes = (
"305 688 LINE",
"77 86 LINE",
"8 55 LINE",
"8 0 LINE",
"221 0 LINE",
"221 55 LINE",
"150 81 LINE",
"369 671 LINE",
"337 671 LINE",
"554 82 LINE",
"484 55 LINE",
"484 0 LINE",
"714 0 LINE",
"714 55 LINE",
"645 87 LINE",
"417 688 LINE"
);
},
{
closed = 1;
nodes = (
"191 300 LINE",
"169 229 LINE",
"534 229 LINE",
"510 300 LINE"
);
}
);
width = 722;
}
);
leftKerningGroup = A;
rightKerningGroup = A;
unicode = 0041;
},
{
color = 4;
glyphname = AE;
lastChange = "2015-01-31 05:52:20 +0000";
layers = (
{
anchors = (
{
name = top;
position = "{562, 680}";
}
);
layerId = "0225C979-6A3F-4323-834E-E3153ADD1AE8";
name = Regular;
paths = (
{
closed = 1;
nodes = (
"226 296 LINE",
"226 225 LINE",
"556 225 LINE",
"556 296 LINE"
);
},
{
closed = 1;
nodes = (
"66 85 LINE",
"-15 55 LINE",
"-15 0 LINE",
"204 0 LINE",
"204 55 LINE",
"149 82 LINE",
"509 608 LINE",
"519 608 LINE",
"519 85 LINE",
"445 55 LINE",
"445 0 LINE",
"1015 0 LINE",
"1015 187 LINE",
"956 187 LINE",
"930 72 LINE",
"605 72 LINE",
"605 306 LINE",
"789 306 LINE",
"804 229 LINE",
"859 229 LINE",
"859 455 LINE",
"804 455 LINE",
"789 378 LINE",
"605 378 LINE",
"605 608 LINE",
"930 608 LINE",
"956 503 LINE",
"1015 503 LINE",
"1015 680 LINE",
"468 680 LINE"
);
}
);
width = 1069;
}
);
rightKerningGroup = E;
rightMetricsKey = "=E+2";
unicode = 00C6;
},
{
color = 4;
glyphname = B;
lastChange = "2015-01-31 05:52:20 +0000";
layers = (
{
background = {
paths = (
{
closed = 1;
nodes = (
"55 680 LINE",
"55 623 LINE",
"129 594 LINE",
"129 86 LINE",
"55 55 LINE",
"55 0 LINE",
"476 0 LINE SMOOTH",
"607 0 OFFCURVE",
"650 71 OFFCURVE",
"650 176 CURVE SMOOTH",
"650 290 OFFCURVE",
"600 340 OFFCURVE",
"530 346 CURVE",
"601 362 OFFCURVE",
"640 424 OFFCURVE",
"640 514 CURVE SMOOTH",
"640 617 OFFCURVE",
"589 680 OFFCURVE",
"461 680 CURVE SMOOTH"
);
},
{
closed = 1;
nodes = (
"534 306 OFFCURVE",
"560 270 OFFCURVE",
"560 191 CURVE SMOOTH",
"560 103 OFFCURVE",
"528 72 OFFCURVE",
"466 72 CURVE SMOOTH",
"215 72 LINE",
"215 306 LINE",
"452 306 LINE SMOOTH"
);
},
{
closed = 1;
nodes = (
"526 608 OFFCURVE",
"550 577 OFFCURVE",
"550 496 CURVE SMOOTH",
"550 407 OFFCURVE",
"521 378 OFFCURVE",
"440 378 CURVE SMOOTH",
"215 378 LINE",
"215 608 LINE",
"458 608 LINE SMOOTH"
);
}
);
};
layerId = "0225C979-6A3F-4323-834E-E3153ADD1AE8";
leftMetricsKey = "=H";
name = Regular;
paths = (
{
closed = 1;
nodes = (
"55 680 LINE",
"55 623 LINE",
"129 594 LINE",
"129 86 LINE",
"55 55 LINE",
"55 0 LINE",
"476 0 LINE SMOOTH",
"607 0 OFFCURVE",
"650 71 OFFCURVE",
"650 176 CURVE SMOOTH",
"650 290 OFFCURVE",
"600 340 OFFCURVE",
"530 346 CURVE",
"601 362 OFFCURVE",
"640 424 OFFCURVE",
"640 514 CURVE SMOOTH",
"640 617 OFFCURVE",
"589 680 OFFCURVE",
"461 680 CURVE SMOOTH"
);
},
{
closed = 1;
nodes = (
"534 306 OFFCURVE",
"560 270 OFFCURVE",
"560 191 CURVE SMOOTH",
"560 103 OFFCURVE",
"528 72 OFFCURVE",
"466 72 CURVE SMOOTH",
"215 72 LINE",
"215 306 LINE",
"452 306 LINE SMOOTH"
);
},
{
closed = 1;
nodes = (
"526 608 OFFCURVE",
"550 577 OFFCURVE",
"550 496 CURVE SMOOTH",
"550 407 OFFCURVE",
"521 378 OFFCURVE",
"440 378 CURVE SMOOTH",
"215 378 LINE",
"215 608 LINE",
"458 608 LINE SMOOTH"
);
}
);
width = 710;
}
);
leftKerningGroup = H;
leftMetricsKey = H;
unicode = 0042;
},
{
color = 4;
glyphname = C;
lastChange = "2015-01-31 05:52:20 +0000";
layers = (
{
anchors = (
{
name = bottom;
position = "{375, 0}";
},
{
name = top;
position = "{379, 680}";
}
);
background = {
paths = (
{
closed = 1;
nodes = (
"167 692 OFFCURVE",
"42 590 OFFCURVE",
"42 340 CURVE SMOOTH",
"42 96 OFFCURVE",
"161 -12 OFFCURVE",
"375 -12 CURVE SMOOTH",
"456 -12 OFFCURVE",
"540 3 OFFCURVE",
"596 28 CURVE",
"596 102 LINE",
"525 72 OFFCURVE",
"440 62 OFFCURVE",
"375 62 CURVE SMOOTH",
"208 62 OFFCURVE",
"132 133 OFFCURVE",
"132 343 CURVE SMOOTH",
"132 547 OFFCURVE",
"204 618 OFFCURVE",
"381 618 CURVE SMOOTH",
"429 618 OFFCURVE",
"482 613 OFFCURVE",
"533 600 CURVE",
"504 642 LINE",
"526 491 LINE",
"596 491 LINE",
"596 668 LINE",
"525 684 OFFCURVE",
"451 692 OFFCURVE",
"389 692 CURVE SMOOTH"
);
}
);
};
layerId = "0225C979-6A3F-4323-834E-E3153ADD1AE8";
name = Regular;
paths = (
{
closed = 1;
nodes = (
"167 692 OFFCURVE",
"42 590 OFFCURVE",
"42 340 CURVE SMOOTH",
"42 96 OFFCURVE",
"161 -12 OFFCURVE",
"375 -12 CURVE SMOOTH",
"456 -12 OFFCURVE",
"540 3 OFFCURVE",
"596 28 CURVE",
"596 102 LINE",
"525 72 OFFCURVE",
"440 62 OFFCURVE",
"375 62 CURVE SMOOTH",
"208 62 OFFCURVE",
"132 133 OFFCURVE",
"132 343 CURVE SMOOTH",
"132 547 OFFCURVE",
"204 618 OFFCURVE",
"381 618 CURVE SMOOTH",
"429 618 OFFCURVE",
"482 613 OFFCURVE",
"533 600 CURVE",
"504 642 LINE",
"526 491 LINE",
"596 491 LINE",
"596 668 LINE",
"525 684 OFFCURVE",
"451 692 OFFCURVE",
"389 692 CURVE SMOOTH"
);
}
);
width = 661;
}
);
leftKerningGroup = O;
leftMetricsKey = O;
rightKerningGroup = C;
rightMetricsKey = "65tt";
unicode = 0043;
},
{
color = 4;
glyphname = D;
lastChange = "2015-01-31 05:52:20 +0000";
layers = (
{
anchors = (
{
name = center;
position = "{381, 340}";
},
{
name = top;
position = "{387, 680}";
}
);
background = {
paths = (
{
closed = 1;
nodes = (
"55 680 LINE",
"55 623 LINE",
"145 594 LINE",
"145 86 LINE",
"55 55 LINE",
"55 0 LINE",
"414 0 LINE SMOOTH",
"566 0 OFFCURVE",
"719 70 OFFCURVE",
"719 342 CURVE SMOOTH",
"719 610 OFFCURVE",
"566 680 OFFCURVE",
"414 680 CURVE SMOOTH"
);
},
{
closed = 1;
nodes = (
"530 608 OFFCURVE",
"629 559 OFFCURVE",
"629 342 CURVE SMOOTH",
"629 120 OFFCURVE",
"530 72 OFFCURVE",
"393 72 CURVE SMOOTH",
"231 72 LINE",
"231 608 LINE",
"393 608 LINE SMOOTH"
);
}
);
};
guideLines = (
{
angle = -51;
position = "{553, 144}";
showMeasurement = 1;
}
);
layerId = "0225C979-6A3F-4323-834E-E3153ADD1AE8";
rightMetricsKey = "=O";
name = Regular;
paths = (
{
closed = 1;
nodes = (
"55 680 LINE",
"55 623 LINE",
"145 594 LINE",
"145 86 LINE",
"55 55 LINE",
"55 0 LINE",
"414 0 LINE SMOOTH",
"566 0 OFFCURVE",
"719 70 OFFCURVE",
"719 342 CURVE SMOOTH",
"719 610 OFFCURVE",
"566 680 OFFCURVE",
"414 680 CURVE SMOOTH"
);
},
{
closed = 1;
nodes = (
"530 608 OFFCURVE",
"629 559 OFFCURVE",
"629 342 CURVE SMOOTH",
"629 120 OFFCURVE",
"530 72 OFFCURVE",
"393 72 CURVE SMOOTH",
"231 72 LINE",
"231 608 LINE",
"393 608 LINE SMOOTH"
);
}
);
width = 761;
}
);
leftKerningGroup = H;
leftMetricsKey = H;
rightKerningGroup = O;
rightMetricsKey = O;
unicode = 0044;
},
{
color = 4;
glyphname = Eth;
lastChange = "2015-01-31 05:52:20 +0000";
layers = (
{
background = {
paths = (
{
closed = 1;
nodes = (
"55 680 LINE",
"55 623 LINE",
"145 594 LINE",
"145 86 LINE",
"55 55 LINE",
"55 0 LINE",
"414 0 LINE SMOOTH",
"566 0 OFFCURVE",
"719 70 OFFCURVE",
"719 342 CURVE SMOOTH",
"719 610 OFFCURVE",
"566 680 OFFCURVE",
"414 680 CURVE SMOOTH"
);
},
{
closed = 1;
nodes = (
"530 608 OFFCURVE",
"629 559 OFFCURVE",
"629 342 CURVE SMOOTH",
"629 120 OFFCURVE",
"530 72 OFFCURVE",
"393 72 CURVE SMOOTH",
"231 72 LINE",
"231 608 LINE",
"393 608 LINE SMOOTH"
);
}
);
};
components = (
{
name = D;
transform = "{1, 0, 0, 1, 0, 0}";
}
);
guideLines = (
{
angle = 90;
position = "{55, 0}";
}
);
layerId = "0225C979-6A3F-4323-834E-E3153ADD1AE8";
name = Regular;
paths = (
{
closed = 1;
nodes = (
"55 376 LINE",
"55 304 LINE",
"475 304 LINE",
"475 376 LINE"
);
}
);
width = 761;
}
);
leftKerningGroup = H;
rightKerningGroup = O;
unicode = 00D0;
},
{
color = 4;
glyphname = E;
lastChange = "2015-01-31 05:52:20 +0000";
layers = (
{
anchors = (
{
name = bottom;
position = "{380, 0}";
},
{
name = ogonek;
position = "{552, 10}";
},
{
name = top;
position = "{375, 680}";
}
);
background = {
guideLines = (
{
angle = 90;
position = "{645, 85}";
}
);
paths = (
{
closed = 1;
nodes = (
"55 680 LINE",
"55 623 LINE",
"129 594 LINE",
"129 85 LINE",
"55 55 LINE",
"55 0 LINE",
"640 0 LINE",
"640 187 LINE",
"581 187 LINE",
"555 72 LINE",
"215 72 LINE",
"215 306 LINE",
"414 306 LINE",
"429 229 LINE",
"484 229 LINE",
"484 455 LINE",
"429 455 LINE",
"414 378 LINE",
"215 378 LINE",
"215 608 LINE",
"555 608 LINE",
"581 503 LINE",
"640 503 LINE",
"640 680 LINE"
);
}
);
};
layerId = "0225C979-6A3F-4323-834E-E3153ADD1AE8";
name = Regular;
paths = (
{
closed = 1;
nodes = (
"55 680 LINE",
"55 623 LINE",
"129 594 LINE",
"129 85 LINE",
"55 55 LINE",
"55 0 LINE",
"640 0 LINE",
"640 187 LINE",
"581 187 LINE",
"555 72 LINE",
"215 72 LINE",
"215 306 LINE",
"414 306 LINE",
"429 229 LINE",
"484 229 LINE",
"484 455 LINE",
"429 455 LINE",
"414 378 LINE",
"215 378 LINE",
"215 608 LINE",
"555 608 LINE",
"581 503 LINE",
"640 503 LINE",
"640 680 LINE"
);
}
);
width = 692;
}
);
leftKerningGroup = H;
leftMetricsKey = H;
rightKerningGroup = E;
unicode = 0045;
},
{
color = 4;
glyphname = F;
lastChange = "2015-01-31 05:52:20 +0000";
layers = (
{
background = {
paths = (
{
closed = 1;
nodes = (
"55 680 LINE",
"55 623 LINE",
"129 594 LINE",
"129 85 LINE",
"55 55 LINE",
"55 0 LINE",
"306 0 LINE",
"306 55 LINE",
"215 85 LINE",
"215 297 LINE",
"407 297 LINE",
"422 216 LINE",
"477 216 LINE",
"477 447 LINE",
"422 447 LINE",
"407 369 LINE",
"215 369 LINE",
"215 609 LINE",
"548 609 LINE",
"575 497 LINE",
"634 497 LINE",
"634 680 LINE"
);
}
);
};
layerId = "0225C979-6A3F-4323-834E-E3153ADD1AE8";
name = Regular;
paths = (
{
closed = 1;
nodes = (
"55 680 LINE",
"55 623 LINE",
"129 594 LINE",
"129 85 LINE",
"55 55 LINE",
"55 0 LINE",
"306 0 LINE",
"306 55 LINE",
"215 85 LINE",
"215 297 LINE",
"407 297 LINE",
"422 216 LINE",
"477 216 LINE",
"477 447 LINE",
"422 447 LINE",
"407 369 LINE",
"215 369 LINE",
"215 609 LINE",
"548 609 LINE",
"575 497 LINE",
"634 497 LINE",
"634 680 LINE"
);
}
);
width = 679;
}
);
leftKerningGroup = H;
leftMetricsKey = H;
unicode = 0046;
},
{
color = 4;
glyphname = G;
lastChange = "2015-01-31 05:52:20 +0000";
layers = (
{
anchors = (
{
name = bottom;
position = "{387, 0}";
},
{
name = top;
position = "{379, 680}";
}
);
background = {
paths = (
{
closed = 1;
nodes = (
"166.199 692 OFFCURVE",
"42 588.771 OFFCURVE",
"42 340 CURVE SMOOTH",
"42 89 OFFCURVE",
"162 -12 OFFCURVE",
"389 -12 CURVE SMOOTH",
"460 -12 OFFCURVE",
"550 0 OFFCURVE",
"622 24 CURVE",
"622 254 LINE",
"686 283 LINE",
"686 340 LINE",
"473 340 LINE",
"473 283 LINE",
"537 254 LINE",
"537 82 LINE",
"490 68 OFFCURVE",
"440 62 OFFCURVE",
"385 62 CURVE SMOOTH",
"203 62 OFFCURVE",
"132 127 OFFCURVE",
"132 340 CURVE SMOOTH",
"132 548.673 OFFCURVE",
"202.034 618 OFFCURVE",
"388 618 CURVE SMOOTH",
"446.049 618 OFFCURVE",
"503.08 610 OFFCURVE",
"554 597 CURVE",
"530 639 LINE",
"552 488 LINE",
"622 488 LINE",
"622 665 LINE",
"549.061 681 OFFCURVE",
"472.07 692 OFFCURVE",
"389 692 CURVE SMOOTH"
);
}
);
};
guideLines = (
{
angle = 167.8;
position = "{626, 664}";
},
{
angle = 90;
position = "{1356, 608}";
},
{
angle = 90;
position = "{1532, 608}";
},
{
angle = 90;
position = "{537, 254}";
},
{
angle = 90;
position = "{622, 254}";
}
);
layerId = "0225C979-6A3F-4323-834E-E3153ADD1AE8";
name = Regular;
paths = (
{
closed = 1;
nodes = (
"166.199 692 OFFCURVE",
"42 588.771 OFFCURVE",
"42 340 CURVE SMOOTH",
"42 89 OFFCURVE",
"162 -12 OFFCURVE",
"389 -12 CURVE SMOOTH",
"460 -12 OFFCURVE",
"550 0 OFFCURVE",
"622 24 CURVE",
"622 254 LINE",
"686 283 LINE",
"686 340 LINE",
"473 340 LINE",
"473 283 LINE",
"537 254 LINE",
"537 82 LINE",
"490 68 OFFCURVE",
"440 62 OFFCURVE",
"385 62 CURVE SMOOTH",
"203 62 OFFCURVE",
"132 127 OFFCURVE",
"132 340 CURVE SMOOTH",
"132 548.673 OFFCURVE",
"202.034 618 OFFCURVE",
"388 618 CURVE SMOOTH",
"446.049 618 OFFCURVE",
"503.08 610 OFFCURVE",
"554 597 CURVE",
"530 639 LINE",
"552 488 LINE",
"622 488 LINE",
"622 665 LINE",
"549.061 681 OFFCURVE",
"472.07 692 OFFCURVE",
"389 692 CURVE SMOOTH"
);
}
);
width = 706;
}
);
leftKerningGroup = O;
leftMetricsKey = O;
rightKerningGroup = G;
unicode = 0047;
},
{
color = 4;
glyphname = H;
lastChange = "2015-01-31 05:52:20 +0000";
layers = (
{
background = {
guideLines = (
{
angle = 90;
position = "{543, 83}";
},
{
angle = 90;
position = "{130, 592}";
},
{
angle = 90;
position = "{694, 593}";
}
);
paths = (
{
closed = 1;
nodes = (
"533 680 LINE",
"533 623 LINE",
"607 594 LINE",
"607 378 LINE",
"215 378 LINE",
"215 594 LINE",
"289 623 LINE",
"289 680 LINE",
"55 680 LINE",
"55 623 LINE",
"129 594 LINE",
"129 86 LINE",
"55 55 LINE",
"55 0 LINE",
"289 0 LINE",
"289 55 LINE",
"215 86 LINE",
"215 306 LINE",
"607 306 LINE",
"607 86 LINE",
"533 55 LINE",
"533 0 LINE",
"767 0 LINE",
"767 55 LINE",
"693 86 LINE",
"693 594 LINE",
"767 623 LINE",
"767 680 LINE"
);
}
);
};
layerId = "0225C979-6A3F-4323-834E-E3153ADD1AE8";
rightMetricsKey = "=|H";
name = Regular;
paths = (
{
closed = 1;
nodes = (
"533 680 LINE",
"533 623 LINE",
"607 594 LINE",
"607 378 LINE",
"215 378 LINE",
"215 594 LINE",
"289 623 LINE",
"289 680 LINE",
"55 680 LINE",
"55 623 LINE",
"129 594 LINE",
"129 86 LINE",
"55 55 LINE",
"55 0 LINE",
"289 0 LINE",
"289 55 LINE",
"215 86 LINE",
"215 306 LINE",
"607 306 LINE",
"607 86 LINE",
"533 55 LINE",
"533 0 LINE",
"767 0 LINE",
"767 55 LINE",
"693 86 LINE",
"693 594 LINE",
"767 623 LINE",
"767 680 LINE"
);
}
);
width = 822;
}
);
leftKerningGroup = H;
rightKerningGroup = H;
rightMetricsKey = "=|H";
unicode = 0048;
},
{
color = 4;
glyphname = I;
lastChange = "2015-01-31 05:52:20 +0000";
layers = (
{
anchors = (
{
name = ogonek;
position = "{147, 10}";
},
{
name = top;
position = "{172, 680}";
}
);
background = {
paths = (
{
closed = 1;
nodes = (
"55 680 LINE",
"55 623 LINE",
"129 594 LINE",
"129 85 LINE",
"55 55 LINE",
"55 0 LINE",
"289 0 LINE",
"289 55 LINE",
"215 85 LINE",
"215 594 LINE",
"289 623 LINE",
"289 680 LINE"
);
}
);
};
guideLines = (
{
angle = 90;
position = "{215, 85}";
},
{
angle = 90;
position = "{129, 85}";
}
);
layerId = "0225C979-6A3F-4323-834E-E3153ADD1AE8";
name = Regular;
paths = (
{
closed = 1;
nodes = (
"55 680 LINE",
"55 623 LINE",
"129 594 LINE",
"129 85 LINE",
"55 55 LINE",
"55 0 LINE",
"289 0 LINE",
"289 55 LINE",
"215 85 LINE",
"215 594 LINE",
"289 623 LINE",
"289 680 LINE"
);
}
);
width = 344;
}
);
leftKerningGroup = H;
leftMetricsKey = H;
rightKerningGroup = H;
rightMetricsKey = H;
unicode = 0049;
},
{
color = 4;
glyphname = J;
lastChange = "2015-01-31 05:52:20 +0000";
layers = (
{
background = {
paths = (
{
closed = 1;
nodes = (
"146 680 LINE",
"146 623 LINE",
"230 594 LINE",
"230 224 LINE SMOOTH",
"230 103 OFFCURVE",
"190 60 OFFCURVE",
"96 60 CURVE SMOOTH",
"68 60 OFFCURVE",
"43 62 OFFCURVE",
"20 66 CURVE",
"20 -4 LINE",
"48 -10 OFFCURVE",
"73 -12 OFFCURVE",
"106 -12 CURVE SMOOTH",
"241 -12 OFFCURVE",
"316 58 OFFCURVE",
"316 231 CURVE SMOOTH",
"316 594 LINE",
"390 623 LINE",
"390 680 LINE"
);
}
);
};
layerId = "0225C979-6A3F-4323-834E-E3153ADD1AE8";
name = Regular;
paths = (
{
closed = 1;
nodes = (
"146 680 LINE",
"146 623 LINE",
"230 594 LINE",
"230 224 LINE SMOOTH",
"230 103 OFFCURVE",
"190 60 OFFCURVE",
"96 60 CURVE SMOOTH",
"68 60 OFFCURVE",
"43 62 OFFCURVE",
"20 66 CURVE",
"20 -4 LINE",
"48 -10 OFFCURVE",
"73 -12 OFFCURVE",
"106 -12 CURVE SMOOTH",
"241 -12 OFFCURVE",
"316 58 OFFCURVE",
"316 231 CURVE SMOOTH",
"316 594 LINE",
"390 623 LINE",
"390 680 LINE"
);
}
);
width = 440;
}
);
rightKerningGroup = U;
unicode = 004A;
},
{
color = 4;
glyphname = K;
lastChange = "2015-01-31 05:52:20 +0000";
layers = (
{
anchors = (
{
name = bottom;
position = "{405, 0}";
},
{
name = top;
position = "{398, 680}";
}
);
background = {
paths = (
{
closed = 1;
nodes = (
"506 680 LINE",
"506 623 LINE",
"565 598 LINE",
"191 304 LINE",
"191 216 LINE",
"685 603 LINE",
"641 578 LINE",
"742 623 LINE",
"742 680 LINE"
);
},
{
closed = 1;
nodes = (
"55 680 LINE",
"55 623 LINE",
"129 594 LINE",
"129 86 LINE",
"55 55 LINE",
"55 0 LINE",
"294 0 LINE",
"294 55 LINE",
"215 86 LINE",
"215 594 LINE",
"289 623 LINE",
"289 680 LINE"
);
},
{
closed = 1;
nodes = (
"688 86 LINE",
"413 411 LINE",
"348 358 LINE",
"578.304 85.414 LINE",
"515 56 LINE",
"515 1 LINE",
"752 1 LINE",
"752 56 LINE"
);
}
);
};
layerId = "0225C979-6A3F-4323-834E-E3153ADD1AE8";
name = Regular;
paths = (
{
closed = 1;
nodes = (
"506 680 LINE",
"506 623 LINE",
"565 598 LINE",
"191 304 LINE",
"191 216 LINE",
"685 603 LINE",
"641 578 LINE",
"742 623 LINE",
"742 680 LINE"
);
},
{
closed = 1;
nodes = (
"55 680 LINE",
"55 623 LINE",
"129 594 LINE",
"129 86 LINE",
"55 55 LINE",
"55 0 LINE",
"294 0 LINE",
"294 55 LINE",
"215 86 LINE",
"215 594 LINE",
"289 623 LINE",
"289 680 LINE"
);
},
{
closed = 1;
nodes = (
"688 86 LINE",
"413 411 LINE",
"348 358 LINE",
"578.304 85.414 LINE",
"515 56 LINE",
"515 1 LINE",
"752 1 LINE",
"752 56 LINE"
);
}
);
width = 797;
}
);
leftKerningGroup = H;
leftMetricsKey = H;
rightKerningGroup = K;
unicode = 004B;
},
{
color = 4;
glyphname = L;
lastChange = "2015-01-31 05:52:20 +0000";
layers = (
{
anchors = (
{
name = bottom;
position = "{379, 0}";
},
{
name = top;
position = "{172, 680}";
},
{
name = topright;
position = "{450, 405}";
}
);
background = {
paths = (
{
closed = 1;
nodes = (
"55 680 LINE",
"55 623 LINE",
"129 594 LINE",
"129 85 LINE",
"55 55 LINE",
"55 0 LINE",
"640 0 LINE",
"640 187 LINE",
"581 187 LINE",
"555 72 LINE",
"215 72 LINE",
"215 594 LINE",
"289 623 LINE",
"289 680 LINE"
);
}
);
};
guideLines = (
{
position = "{129, 594}";
},
{
position = "{55, 623}";
}
);
layerId = "0225C979-6A3F-4323-834E-E3153ADD1AE8";
name = Regular;
paths = (
{
closed = 1;
nodes = (
"55 680 LINE",
"55 623 LINE",
"129 594 LINE",
"129 85 LINE",
"55 55 LINE",
"55 0 LINE",
"629 0 LINE",
"629 187 LINE",
"570 187 LINE",
"544 72 LINE",
"215 72 LINE",
"215 594 LINE",
"289 623 LINE",
"289 680 LINE"
);
}
);
width = 649;
}
);
leftKerningGroup = H;
rightKerningGroup = L;
unicode = 004C;
},
{
color = 4;
glyphname = Lcaron;
lastChange = "2015-01-31 05:52:20 +0000";
layers = (
{
background = {
paths = (
{
closed = 1;
nodes = (
"450 480 LINE",
"512 480 LINE",
"542 680 LINE",
"450 680 LINE"
);
}
);
};
components = (
{
name = L;
transform = "{1, 0, 0, 1, 0, 0}";
}
);
layerId = "0225C979-6A3F-4323-834E-E3153ADD1AE8";
name = Regular;
paths = (
{
closed = 1;
nodes = (
"447 470 LINE",
"513 470 LINE",
"545 680 LINE",
"447 680 LINE"
);
}
);
width = 649;
}
);
leftKerningGroup = H;
rightKerningGroup = L;
unicode = 013D;
},
{
color = 4;
glyphname = Lslash;
lastChange = "2015-01-31 05:52:20 +0000";
layers = (
{
anchors = (
{
name = bottom;
position = "{379, 0}";
},
{
name = top;
position = "{172, 680}";
},
{
name = topright;
position = "{629, 680}";
}
);
background = {
guideLines = (
{
position = "{137, 340}";
},
{
angle = 90;
position = "{172, 375}";
}
);
paths = (
{
closed = 1;
nodes = (
"475 429 LINE",
"475 505 LINE",
"55 329 LINE",
"55 253 LINE"
);
},
{
closed = 1;
nodes = (
"55 680 LINE",
"55 623 LINE",
"129 594 LINE",
"129 85 LINE",
"55 55 LINE",
"55 0 LINE",
"629 0 LINE",
"629 187 LINE",
"570 187 LINE",
"544 72 LINE",
"215 72 LINE",
"215 594 LINE",
"289 623 LINE",
"289 680 LINE"
);
}
);
};
guideLines = (
{
position = "{137, 340}";
},
{
angle = 90;
position = "{475, 187}";
},
{
angle = 90;
position = "{172, 375}";
},
{
angle = 90;
position = "{428, 268}";
},
{
angle = 90;
position = "{380, 187}";
}
);
layerId = "0225C979-6A3F-4323-834E-E3153ADD1AE8";
name = Regular;
paths = (
{
closed = 1;
nodes = (
"428 409.305 LINE",
"428 485.305 LINE",
"55 329 LINE",
"55 253 LINE"
);
},
{
closed = 1;
nodes = (
"55 680 LINE",
"55 623 LINE",
"129 594 LINE",
"129 85 LINE",
"55 55 LINE",
"55 0 LINE",
"629 0 LINE",
"629 187 LINE",
"570 187 LINE",
"544 72 LINE",
"215 72 LINE",
"215 594 LINE",
"289 623 LINE",
"289 680 LINE"
);
}
);
width = 649;
}
);
leftKerningGroup = H;
unicode = 0141;
},
{
color = 4;
glyphname = M;
lastChange = "2015-01-31 05:52:20 +0000";
layers = (
{
background = {
paths = (
{
closed = 1;
nodes = (
"676 680 LINE",
"464 181 LINE",
"478 181 LINE",
"266 680 LINE",
"55 680 LINE",
"55 623 LINE",
"129 594 LINE",
"129 85 LINE",
"55 55 LINE",
"55 0 LINE",
"270 0 LINE",
"270 55 LINE",
"201 85 LINE",
"201 630 LINE",
"194 630 LINE",
"429 85 LINE",
"496 85 LINE",
"730 630 LINE",
"723 630 LINE",
"723 85 LINE",
"654 55 LINE",
"654 0 LINE",
"883 0 LINE",
"883 55 LINE",
"809 85 LINE",
"809 594 LINE",
"883 623 LINE",
"883 680 LINE"
);
}
);
};
guideLines = (
{
angle = 90;
position = "{1592, 418}";
},
{
angle = 156.982;
position = "{686, 299}";
showMeasurement = 1;
},
{
angle = 23.0182;
position = "{471, 400}";
showMeasurement = 1;
}
);
layerId = "0225C979-6A3F-4323-834E-E3153ADD1AE8";
name = Regular;
paths = (
{
closed = 1;
nodes = (
"676 680 LINE",
"464 181 LINE",
"478 181 LINE",
"266 680 LINE",
"55 680 LINE",
"55 623 LINE",
"129 594 LINE",
"129 85 LINE",
"55 55 LINE",
"55 0 LINE",
"270 0 LINE",
"270 55 LINE",
"201 85 LINE",
"201 630 LINE",
"194 630 LINE",
"429 85 LINE",
"496 85 LINE",
"730 630 LINE",
"723 630 LINE",
"723 85 LINE",
"654 55 LINE",
"654 0 LINE",
"883 0 LINE",
"883 55 LINE",
"809 85 LINE",
"809 594 LINE",
"883 623 LINE",
"883 680 LINE"
);
}
);
width = 938;
}
);
leftKerningGroup = H;
leftMetricsKey = H;
rightKerningGroup = H;
rightMetricsKey = H;
unicode = 004D;
},
{
color = 4;
glyphname = N;
lastChange = "2015-01-31 05:52:20 +0000";
layers = (
{
anchors = (
{
name = bottom;
position = "{404, 0}";
},
{
name = top;
position = "{404, 680}";
}
);
background = {
guideLines = (
{
angle = 90;
position = "{546, 272}";
},
{
angle = 216.469;
position = "{546, 448}";
showMeasurement = 1;
},
{
position = "{678, 448}";
}
);
paths = (
{
closed = 1;
nodes = (
"536 680 LINE",
"536 623 LINE",
"615 594 LINE",
"615 81 LINE",
"631 84 LINE",
"231 680 LINE",
"55 680 LINE",
"55 623 LINE",
"129 594 LINE",
"129 85 LINE",
"55 55 LINE",
"55 0 LINE",
"281 0 LINE",
"281 55 LINE",
"202 85 LINE",
"202 599 LINE",
"187 595 LINE",
"587 0 LINE",
"689 0 LINE",
"689 594 LINE",
"763 623 LINE",
"763 680 LINE"
);
}
);
};
guideLines = (
{
angle = 33.8672;
position = "{448, 404}";
showMeasurement = 1;
},
{
angle = 90;
position = "{730, 594}";
},
{
angle = 90;
position = "{687, 594}";
}
);
layerId = "0225C979-6A3F-4323-834E-E3153ADD1AE8";
name = Regular;
paths = (
{
closed = 1;
nodes = (
"536 680 LINE",
"536 623 LINE",
"615 594 LINE",
"615 81 LINE",
"631 84 LINE",
"231 680 LINE",
"55 680 LINE",
"55 623 LINE",
"129 594 LINE",
"129 85 LINE",
"55 55 LINE",
"55 0 LINE",
"281 0 LINE",
"281 55 LINE",
"202 85 LINE",
"202 599 LINE",
"187 595 LINE",
"587 0 LINE",
"689 0 LINE",
"689 594 LINE",
"763 623 LINE",
"763 680 LINE"
);
}
);
width = 808;
}
);
leftKerningGroup = H;
leftMetricsKey = H;
rightKerningGroup = H;
rightMetricsKey = "=H-10";
unicode = 004E;
},
{
color = 4;
glyphname = O;
lastChange = "2015-01-31 05:52:20 +0000";
layers = (
{
anchors = (
{
name = top;
position = "{364, 680}";
}
);
background = {
paths = (
{
closed = 1;
nodes = (
"168 692 OFFCURVE",
"42 583 OFFCURVE",
"42 340 CURVE SMOOTH",
"42 97 OFFCURVE",
"168 -12 OFFCURVE",
"364 -12 CURVE SMOOTH",
"560 -12 OFFCURVE",
"686 97 OFFCURVE",
"686 340 CURVE SMOOTH",
"686 583 OFFCURVE",
"560 692 OFFCURVE",
"364 692 CURVE SMOOTH"
);
},
{
closed = 1;
nodes = (
"521 618 OFFCURVE",
"596 546 OFFCURVE",
"596 340 CURVE SMOOTH",
"596 134 OFFCURVE",
"521 62 OFFCURVE",
"364 62 CURVE SMOOTH",
"207 62 OFFCURVE",
"132 134 OFFCURVE",
"132 340 CURVE SMOOTH",
"132 546 OFFCURVE",
"207 618 OFFCURVE",
"364 618 CURVE SMOOTH"
);
}
);
};
guideLines = (
{
angle = 90;
position = "{364, 618}";
}
);
layerId = "0225C979-6A3F-4323-834E-E3153ADD1AE8";
rightMetricsKey = "=|O";
name = Regular;
paths = (
{
closed = 1;
nodes = (
"168 692 OFFCURVE",
"42 583 OFFCURVE",
"42 340 CURVE SMOOTH",
"42 97 OFFCURVE",
"168 -12 OFFCURVE",
"364 -12 CURVE SMOOTH",
"560 -12 OFFCURVE",
"686 97 OFFCURVE",
"686 340 CURVE SMOOTH",
"686 583 OFFCURVE",
"560 692 OFFCURVE",
"364 692 CURVE SMOOTH"
);
},
{
closed = 1;
nodes = (
"521 618 OFFCURVE",
"596 546 OFFCURVE",
"596 340 CURVE SMOOTH",
"596 134 OFFCURVE",
"521 62 OFFCURVE",
"364 62 CURVE SMOOTH",
"207 62 OFFCURVE",
"132 134 OFFCURVE",
"132 340 CURVE SMOOTH",
"132 546 OFFCURVE",
"207 618 OFFCURVE",
"364 618 CURVE SMOOTH"
);
}
);
width = 728;
}
);
leftKerningGroup = O;
rightKerningGroup = O;
rightMetricsKey = "=|O";
unicode = 004F;
},
{
color = 4;
glyphname = Oslash;
lastChange = "2015-01-31 05:52:20 +0000";
layers = (
{
background = {
guideLines = (
{
angle = 90;
position = "{132, 340}";
},
{
angle = 90;
position = "{42, 340}";
},
{
angle = 90;
position = "{686, 340}";
},
{
angle = 90;
position = "{596, 340}";
}
);
paths = (
{
closed = 1;
nodes = (
"584 705 LINE",
"52 -25 LINE",
"126 -51 LINE",
"676 705 LINE"
);
}
);
};
components = (
{
name = O;
transform = "{1, 0, 0, 1, 0, 0}";
}
);
guideLines = (
{
angle = 90;
position = "{132, 340}";
},
{
angle = 90;
position = "{52, 340}";
},
{
angle = 90;
position = "{676, 340}";
},
{
angle = 90;
position = "{596, 340}";
},
{
position = "{42, -25}";
},
{
position = "{28, 705}";
}
);
layerId = "0225C979-6A3F-4323-834E-E3153ADD1AE8";
name = Regular;
paths = (
{
closed = 1;
nodes = (
"584 705 LINE",
"52 -25 LINE",
"145 -25 LINE",
"676 705 LINE"
);
}
);
width = 728;
}
);
leftKerningGroup = O;
rightKerningGroup = O;
unicode = 00D8;
},
{
color = 4;
glyphname = OE;
lastChange = "2015-01-31 05:52:20 +0000";
layers = (
{
anchors = (
{
name = top;
position = "{615, 680}";
}
);
background = {
paths = (
{
closed = 1;
nodes = (
"167 694 OFFCURVE",
"43 579 OFFCURVE",
"42 338 CURVE SMOOTH",
"41 100 OFFCURVE",
"167 -14 OFFCURVE",
"382 -14 CURVE SMOOTH",
"438 -14 OFFCURVE",
"491 -6 OFFCURVE",
"523 0 CURVE",
"1067 0 LINE",
"1067 177 LINE",
"1008 177 LINE",
"982 72 LINE",
"657 72 LINE",
"657 302 LINE",
"841 302 LINE",
"856 225 LINE",
"911 225 LINE",
"911 451 LINE",
"856 451 LINE",
"841 374 LINE",
"657 374 LINE",
"657 608 LINE",
"982 608 LINE",
"1008 493 LINE",
"1067 493 LINE",
"1067 680 LINE",
"523 680 LINE",
"491 687 OFFCURVE",
"438 694 OFFCURVE",
"382 694 CURVE SMOOTH"
);
},
{
closed = 1;
nodes = (
"448 620 OFFCURVE",
"511 612 OFFCURVE",
"572 591 CURVE",
"572 88 LINE",
"511 67 OFFCURVE",
"448 60 OFFCURVE",
"386 60 CURVE SMOOTH",
"228 60 OFFCURVE",
"129 144 OFFCURVE",
"131 338 CURVE SMOOTH",
"133 535 OFFCURVE",
"228 620 OFFCURVE",
"386 620 CURVE SMOOTH"
);
}
);
};
layerId = "0225C979-6A3F-4323-834E-E3153ADD1AE8";
name = Regular;
paths = (
{
closed = 1;
nodes = (
"438 -14 OFFCURVE",
"491 -7 OFFCURVE",
"523 0 CURVE",
"1067 0 LINE",
"1067 187 LINE",
"1008 187 LINE",
"982 72 LINE",
"657 72 LINE",
"657 306 LINE",
"841 306 LINE",
"856 229 LINE",
"911 229 LINE",
"911 455 LINE",
"856 455 LINE",
"841 378 LINE",
"657 378 LINE",
"657 608 LINE",
"982 608 LINE",
"1008 503 LINE",
"1067 503 LINE",
"1067 680 LINE",
"523 680 LINE",
"491 686 OFFCURVE",
"438 694 OFFCURVE",
"382 694 CURVE SMOOTH",
"167 694 OFFCURVE",
"42 580 OFFCURVE",
"42 342 CURVE SMOOTH",
"42 101 OFFCURVE",
"167 -14 OFFCURVE",
"382 -14 CURVE SMOOTH"
);
},
{
closed = 1;
nodes = (
"228 60 OFFCURVE",
"133 145 OFFCURVE",
"131 342 CURVE SMOOTH",
"129 536 OFFCURVE",
"228 620 OFFCURVE",
"386 620 CURVE SMOOTH",
"448 620 OFFCURVE",
"511 613 OFFCURVE",
"572 592 CURVE",
"572 88 LINE",
"511 67 OFFCURVE",
"448 60 OFFCURVE",
"386 60 CURVE SMOOTH"
);
}
);
width = 1121;
}
);
leftKerningGroup = O;
leftMetricsKey = O;
rightKerningGroup = E;
rightMetricsKey = "=E+2";
unicode = 0152;
},
{
color = 4;
glyphname = P;
lastChange = "2015-01-31 05:52:20 +0000";
layers = (
{
background = {
guideLines = (
{
position = "{530, 475}";
}
);
paths = (
{
closed = 1;
nodes = (
"55 680 LINE",
"55 623 LINE",
"129 594 LINE",
"129 86 LINE",
"55 55 LINE",
"55 0 LINE",
"289 0 LINE",
"289 55 LINE",
"215 86 LINE",
"215 270 LINE",
"450 270 LINE SMOOTH",
"591 270 OFFCURVE",
"650 329 OFFCURVE",
"650 475 CURVE SMOOTH",
"650 621 OFFCURVE",
"591 680 OFFCURVE",
"450 680 CURVE SMOOTH"
);
},
{
closed = 1;
nodes = (
"530 608 OFFCURVE",
"560 579 OFFCURVE",
"560 475 CURVE SMOOTH",
"560 371 OFFCURVE",
"530 342 OFFCURVE",
"440 342 CURVE SMOOTH",
"215 342 LINE",
"215 608 LINE",
"440 608 LINE SMOOTH"
);
}
);
};
guideLines = (
{
position = "{195, 342}";
},
{
position = "{195, 270}";
}
);
layerId = "0225C979-6A3F-4323-834E-E3153ADD1AE8";
name = Regular;
paths = (
{
closed = 1;
nodes = (
"55 680 LINE",
"55 623 LINE",
"129 594 LINE",
"129 86 LINE",
"55 55 LINE",
"55 0 LINE",
"289 0 LINE",
"289 55 LINE",
"215 86 LINE",
"215 270 LINE",
"450 270 LINE SMOOTH",
"591 270 OFFCURVE",
"650 329 OFFCURVE",
"650 475 CURVE SMOOTH",
"650 621 OFFCURVE",
"591 680 OFFCURVE",
"450 680 CURVE SMOOTH"
);
},
{
closed = 1;
nodes = (
"530 608 OFFCURVE",
"560 579 OFFCURVE",
"560 475 CURVE SMOOTH",
"560 371 OFFCURVE",
"530 342 OFFCURVE",
"440 342 CURVE SMOOTH",
"215 342 LINE",
"215 608 LINE",
"440 608 LINE SMOOTH"
);
}
);
width = 680;
}
);
leftKerningGroup = H;
leftMetricsKey = H;
unicode = 0050;
},
{
color = 4;
glyphname = Thorn;
lastChange = "2015-01-31 05:52:20 +0000";
layers = (
{
background = {
paths = (
{
closed = 1;
nodes = (
"55 680 LINE",
"55 623 LINE",
"129 594 LINE",
"129 86 LINE",
"55 55 LINE",
"55 0 LINE",
"294 0 LINE",
"294 55 LINE",
"215 86 LINE",
"215 135 LINE",
"450 135 LINE SMOOTH",
"591 135 OFFCURVE",
"650 194 OFFCURVE",
"650 340 CURVE SMOOTH",
"650 486 OFFCURVE",
"591 545 OFFCURVE",
"450 545 CURVE SMOOTH",
"215 545 LINE",
"215 594 LINE",
"294 623 LINE",
"294 680 LINE"
);
},
{
closed = 1;
nodes = (
"530 473 OFFCURVE",
"560 444 OFFCURVE",
"560 340 CURVE SMOOTH",
"560 236 OFFCURVE",
"530 207 OFFCURVE",
"440 207 CURVE SMOOTH",
"215 207 LINE",
"215 473 LINE",
"440 473 LINE SMOOTH"
);
}
);
};
guideLines = (
{
angle = 90;
position = "{215, 473}";
}
);
layerId = "0225C979-6A3F-4323-834E-E3153ADD1AE8";
name = Regular;
paths = (
{
closed = 1;
nodes = (
"55 680 LINE",
"55 623 LINE",
"129 594 LINE",
"129 86 LINE",
"55 55 LINE",
"55 0 LINE",
"294 0 LINE",
"294 55 LINE",
"215 86 LINE",
"215 135 LINE",
"450 135 LINE SMOOTH",
"591 135 OFFCURVE",
"650 194 OFFCURVE",
"650 340 CURVE SMOOTH",
"650 486 OFFCURVE",
"591 545 OFFCURVE",
"450 545 CURVE SMOOTH",
"215 545 LINE",
"215 594 LINE",
"294 623 LINE",
"294 680 LINE"
);
},
{
closed = 1;
nodes = (
"530 473 OFFCURVE",
"560 444 OFFCURVE",
"560 340 CURVE SMOOTH",
"560 236 OFFCURVE",
"530 207 OFFCURVE",
"440 207 CURVE SMOOTH",
"215 207 LINE",
"215 473 LINE",
"440 473 LINE SMOOTH"
);
}
);
width = 665;
},
{
associatedMasterId = "0225C979-6A3F-4323-834E-E3153ADD1AE8";
background = {
paths = (
{
closed = 1;
nodes = (
"55 680 LINE",
"55 623 LINE",
"129 594 LINE",
"129 86 LINE",
"55 55 LINE",
"55 0 LINE",
"215 0 LINE",
"215 140 LINE",
"450 140 LINE SMOOTH",
"591 140 OFFCURVE",
"650 199 OFFCURVE",
"650 345 CURVE SMOOTH",
"650 491 OFFCURVE",
"591 550 OFFCURVE",
"450 550 CURVE SMOOTH",
"215 550 LINE",
"215 680 LINE"
);
},
{
closed = 1;
nodes = (
"530 478 OFFCURVE",
"560 449 OFFCURVE",
"560 345 CURVE SMOOTH",
"560 241 OFFCURVE",
"530 212 OFFCURVE",
"440 212 CURVE SMOOTH",
"215 212 LINE",
"215 478 LINE",
"440 478 LINE SMOOTH"
);
}
);
};
guideLines = (
{
angle = 90;
position = "{215, 473}";
}
);
layerId = "41FFFBE9-5F2D-48F2-A909-EDC41BF2F4CC";
name = "Regular [150]";
paths = (
{
closed = 1;
nodes = (
"55 680 LINE",
"55 623 LINE",
"129 594 LINE",
"129 86 LINE",
"55 55 LINE",
"55 0 LINE",
"215 0 LINE",
"215 140 LINE",
"450 140 LINE SMOOTH",
"591 140 OFFCURVE",
"650 199 OFFCURVE",
"650 345 CURVE SMOOTH",
"650 491 OFFCURVE",
"591 550 OFFCURVE",
"450 550 CURVE SMOOTH",
"215 550 LINE",
"215 680 LINE"
);
},
{
closed = 1;
nodes = (
"530 478 OFFCURVE",
"560 449 OFFCURVE",
"560 345 CURVE SMOOTH",
"560 241 OFFCURVE",
"530 212 OFFCURVE",
"440 212 CURVE SMOOTH",
"215 212 LINE",
"215 478 LINE",
"440 478 LINE SMOOTH"
);
}
);
width = 665;
},
{
associatedMasterId = "0225C979-6A3F-4323-834E-E3153ADD1AE8";
background = {
paths = (
{
closed = 1;
nodes = (
"30 680 LINE",
"30 567 LINE",
"112 535 LINE",
"112 146 LINE",
"30 114 LINE",
"30 0 LINE",
"386 0 LINE",
"386 104 LINE",
"314 136 LINE",
"314 168 LINE",
"544 168 LINE SMOOTH",
"666 168 OFFCURVE",
"725 208 OFFCURVE",
"725 338 CURVE SMOOTH",
"725 468 OFFCURVE",
"666 508 OFFCURVE",
"544 508 CURVE SMOOTH",
"314 508 LINE",
"314 535 LINE",
"386 567 LINE",
"386 680 LINE"
);
},
{
closed = 1;
nodes = (
"490 398 OFFCURVE",
"513 387 OFFCURVE",
"513 338 CURVE SMOOTH",
"513 289 OFFCURVE",
"490 278 OFFCURVE",
"430 278 CURVE SMOOTH",
"314 278 LINE",
"314 398 LINE",
"430 398 LINE SMOOTH"
);
}
);
};
guideLines = (
{
angle = 90;
position = "{314, 240}";
}
);
layerId = "CA43879A-E32C-40EB-9D2F-C88B349F6B89";
name = "Bold [150]";
paths = (
{
closed = 1;
nodes = (
"30 680 LINE",
"30 567 LINE",
"112 535 LINE",
"112 146 LINE",
"30 114 LINE",
"30 0 LINE",
"314 0 LINE",
"314 125 LINE",
"494 125 LINE SMOOTH",
"657 125 OFFCURVE",
"725 185 OFFCURVE",
"725 343 CURVE SMOOTH",
"725 504 OFFCURVE",
"656 565 OFFCURVE",
"494 565 CURVE SMOOTH",
"314 565 LINE",
"314 680 LINE"
);
},
{
closed = 1;
nodes = (
"490 427 OFFCURVE",
"513 412 OFFCURVE",
"513 341 CURVE SMOOTH",
"513 270 OFFCURVE",
"490 255 OFFCURVE",
"430 255 CURVE SMOOTH",
"314 255 LINE",
"314 427 LINE",
"430 427 LINE SMOOTH"
);
}
);
width = 747;
}
);
leftKerningGroup = H;
unicode = 00DE;
},
{
color = 4;
glyphname = Q;
lastChange = "2015-01-31 05:52:20 +0000";
layers = (
{
background = {
components = (
{
name = O;
transform = "{1, 0, 0, 1, 0, 0}";
}
);
paths = (
{
closed = 1;
nodes = (
"344 0 LINE",
"344 -141 OFFCURVE",
"396 -189 OFFCURVE",
"641 -189 CURVE",
"641 -115 LINE",
"444 -115 OFFCURVE",
"414 -95 OFFCURVE",
"414 0 CURVE"
);
}
);
};
components = (
{
name = O;
transform = "{1, 0, 0, 1, 0, 0}";
}
);
guideLines = (
{
angle = 90;
position = "{364, 618}";
}
);
layerId = "0225C979-6A3F-4323-834E-E3153ADD1AE8";
name = Regular;
paths = (
{
closed = 1;
nodes = (
"342 0 LINE",
"342 -143 OFFCURVE",
"394 -191 OFFCURVE",
"641 -191 CURVE",
"641 -115 LINE",
"446 -115 OFFCURVE",
"416 -95 OFFCURVE",
"416 0 CURVE"
);
}
);
width = 728;
}
);
leftKerningGroup = O;
leftMetricsKey = O;
rightKerningGroup = O;
rightMetricsKey = O;
unicode = 0051;
},
{
color = 4;
glyphname = R;
lastChange = "2015-01-31 05:52:20 +0000";
layers = (
{
anchors = (
{
name = bottom;
position = "{433, 0}";
},
{
name = top;
position = "{373, 680}";
}
);
background = {
paths = (
{
closed = 1;
nodes = (
"55 680 LINE",
"55 623 LINE",
"129 594 LINE",
"129 86 LINE",
"55 55 LINE",
"55 0 LINE",
"289 0 LINE",
"289 55 LINE",
"215 86 LINE",
"215 282 LINE",
"462 282 LINE",
"591 293 OFFCURVE",
"652 354 OFFCURVE",
"652 487 CURVE SMOOTH",
"652 621 OFFCURVE",
"593 680 OFFCURVE",
"452 680 CURVE SMOOTH"
);
},
{
closed = 1;
nodes = (
"374 303 LINE",
"576 0 LINE",
"691 0 LINE",
"691 55 LINE",
"623 85 LINE",
"475 303 LINE"
);
},
{
closed = 1;
nodes = (
"532 608 OFFCURVE",
"562 579 OFFCURVE",
"562 481 CURVE SMOOTH",
"562 375 OFFCURVE",
"522 354 OFFCURVE",
"432 354 CURVE SMOOTH",
"215 354 LINE",
"215 608 LINE",
"442 608 LINE SMOOTH"
);
}
);
};
guideLines = (
{
angle = 124.013;
position = "{576, 0}";
},
{
angle = 34.013;
position = "{502, 279}";
showMeasurement = 1;
},
{
angle = 90;
position = "{172, 142}";
},
{
position = "{289, 55}";
},
{
position = "{215, 86}";
},
{
angle = 34.013;
position = "{643, 102}";
showMeasurement = 1;
}
);
layerId = "0225C979-6A3F-4323-834E-E3153ADD1AE8";
name = Regular;
paths = (
{
closed = 1;
nodes = (
"55 680 LINE",
"55 623 LINE",
"129 594 LINE",
"129 86 LINE",
"55 55 LINE",
"55 0 LINE",
"289 0 LINE",
"289 55 LINE",
"215 86 LINE",
"215 282 LINE",
"462 282 LINE",
"591 293 OFFCURVE",
"652 354 OFFCURVE",
"652 487 CURVE SMOOTH",
"652 621 OFFCURVE",
"593 680 OFFCURVE",
"452 680 CURVE SMOOTH"
);
},
{
closed = 1;
nodes = (
"374 303 LINE",
"576 0 LINE",
"691 0 LINE",
"691 55 LINE",
"623 85 LINE",
"475 303 LINE"
);
},
{
closed = 1;
nodes = (
"532 608 OFFCURVE",
"562 579 OFFCURVE",
"562 481 CURVE SMOOTH",
"562 375 OFFCURVE",
"522 354 OFFCURVE",
"432 354 CURVE SMOOTH",
"215 354 LINE",
"215 608 LINE",
"442 608 LINE SMOOTH"
);
}
);
width = 728;
}
);
leftKerningGroup = H;
leftMetricsKey = H;
rightKerningGroup = R;
unicode = 0052;
},
{
color = 4;
glyphname = S;
lastChange = "2015-01-31 05:52:20 +0000";
layers = (
{
anchors = (
{
name = bottom;
position = "{310, 0}";
},
{
name = top;
position = "{309, 680}";
}
);
background = {
paths = (
{
closed = 1;
nodes = (
"123 688 OFFCURVE",
"47 640 OFFCURVE",
"47 498 CURVE SMOOTH",
"47 384 OFFCURVE",
"94 342 OFFCURVE",
"255 312 CURVE SMOOTH",
"461 273 OFFCURVE",
"479 274 OFFCURVE",
"479 176 CURVE SMOOTH",
"479 98 OFFCURVE",
"449 66 OFFCURVE",
"300 66 CURVE SMOOTH",
"244 66 OFFCURVE",
"186 71 OFFCURVE",
"124 85 CURVE",
"146 48 LINE",
"124 196 LINE",
"55 196 LINE",
"55 18 LINE",
"138 -1 OFFCURVE",
"217 -8 OFFCURVE",
"297 -8 CURVE SMOOTH",
"492 -8 OFFCURVE",
"567 40 OFFCURVE",
"567 190 CURVE SMOOTH",
"567 325 OFFCURVE",
"518 351 OFFCURVE",
"366 380 CURVE SMOOTH",
"163 419 OFFCURVE",
"135 419 OFFCURVE",
"135 513 CURVE SMOOTH",
"135 582 OFFCURVE",
"164 614 OFFCURVE",
"313 614 CURVE SMOOTH",
"369 614 OFFCURVE",
"427 609 OFFCURVE",
"489 595 CURVE",
"472 634 LINE",
"493 487 LINE",
"559 487 LINE",
"559 662 LINE",
"477 679 OFFCURVE",
"397 688 OFFCURVE",
"317 688 CURVE SMOOTH"
);
}
);
};
guideLines = (
{
angle = 90;
position = "{47, 498}";
},
{
angle = 90;
position = "{39, 498}";
}
);
layerId = "0225C979-6A3F-4323-834E-E3153ADD1AE8";
name = Regular;
paths = (
{
closed = 1;
nodes = (
"123 688 OFFCURVE",
"47 640 OFFCURVE",
"47 498 CURVE SMOOTH",
"47 384 OFFCURVE",
"94 342 OFFCURVE",
"255 312 CURVE SMOOTH",
"461 273 OFFCURVE",
"479 274 OFFCURVE",
"479 176 CURVE SMOOTH",
"479 98 OFFCURVE",
"449 66 OFFCURVE",
"300 66 CURVE SMOOTH",
"241 66 OFFCURVE",
"181 72 OFFCURVE",
"116 89 CURVE",
"138 52 LINE",
"116 200 LINE",
"47 200 LINE",
"47 22 LINE",
"135 -1 OFFCURVE",
"216 -8 OFFCURVE",
"297 -8 CURVE SMOOTH",
"492 -8 OFFCURVE",
"567 40 OFFCURVE",
"567 190 CURVE SMOOTH",
"567 325 OFFCURVE",
"518 351 OFFCURVE",
"366 380 CURVE SMOOTH",
"163 419 OFFCURVE",
"135 419 OFFCURVE",
"135 513 CURVE SMOOTH",
"135 582 OFFCURVE",
"164 614 OFFCURVE",
"305 614 CURVE SMOOTH",
"361 614 OFFCURVE",
"419 609 OFFCURVE",
"481 595 CURVE",
"464 634 LINE",
"485 487 LINE",
"551 487 LINE",
"551 662 LINE",
"469 679 OFFCURVE",
"389 688 OFFCURVE",
"309 688 CURVE SMOOTH"
);
}
);
width = 619;
}
);
leftKerningGroup = S;
rightKerningGroup = S;
unicode = 0053;
},
{
color = 4;
glyphname = Germandbls;
lastChange = "2015-01-31 05:52:20 +0000";
layers = (
{
background = {
guideLines = (
{
angle = 137.77;
position = "{581, 455}";
showMeasurement = 1;
}
);
paths = (
{
closed = 1;
nodes = (
"129 680 LINE",
"129 86 LINE",
"55 55 LINE",
"55 0 LINE",
"215 0 LINE",
"215 608 LINE",
"558 608 LINE",
"558 626 LINE",
"362 405 LINE",
"362 333 LINE",
"392 333 LINE SMOOTH",
"569 333 OFFCURVE",
"603 287 OFFCURVE",
"603 201 CURVE SMOOTH",
"603 110 OFFCURVE",
"565 65 OFFCURVE",
"449 62 CURVE SMOOTH",
"404 61 OFFCURVE",
"372 64 OFFCURVE",
"337 69 CURVE",
"337 -3 LINE",
"369 -9 OFFCURVE",
"410 -12 OFFCURVE",
"449 -12 CURVE SMOOTH",
"618 -12 OFFCURVE",
"693 71 OFFCURVE",
"693 201 CURVE SMOOTH",
"693 336 OFFCURVE",
"609 403 OFFCURVE",
"453 403 CURVE",
"453 387 LINE",
"658 618 LINE",
"658 680 LINE"
);
}
);
};
guideLines = (
{
angle = 90;
position = "{453, 416}";
}
);
layerId = "0225C979-6A3F-4323-834E-E3153ADD1AE8";
leftMetricsKey = "=H";
name = Regular;
paths = (
{
closed = 1;
nodes = (
"129 680 LINE",
"129 86 LINE",
"55 55 LINE",
"55 0 LINE",
"215 0 LINE",
"215 608 LINE",
"558 608 LINE",
"558 626 LINE",
"362 405 LINE",
"362 333 LINE",
"392 333 LINE SMOOTH",
"569 333 OFFCURVE",
"603 287 OFFCURVE",
"603 201 CURVE SMOOTH",
"603 93 OFFCURVE",
"548 62 OFFCURVE",
"433 62 CURVE SMOOTH",
"398 62 OFFCURVE",
"367 65 OFFCURVE",
"337 69 CURVE",
"337 -3 LINE",
"369 -9 OFFCURVE",
"412 -12 OFFCURVE",
"445 -12 CURVE SMOOTH",
"619 -12 OFFCURVE",
"693 71 OFFCURVE",
"693 200 CURVE SMOOTH",
"693 337 OFFCURVE",
"609 403 OFFCURVE",
"453 403 CURVE",
"453 387 LINE",
"658 618 LINE",
"658 680 LINE"
);
}
);
width = 723;
}
);
leftKerningGroup = H;
leftMetricsKey = H;
unicode = 1E9E;
},
{
color = 4;
glyphname = T;
lastChange = "2015-01-31 05:52:20 +0000";
layers = (
{
anchors = (
{
name = bottom;
position = "{338, 0}";
},
{
name = center;
position = "{338, 340}";
},
{
name = top;
position = "{338, 680}";
}
);
background = {
paths = (
{
closed = 1;
nodes = (
"40 680 LINE",
"40 488 LINE",
"95 488 LINE",
"124 608 LINE",
"295 608 LINE",
"295 85 LINE",
"211 55 LINE",
"211 0 LINE",
"465 0 LINE",
"465 55 LINE",
"381 85 LINE",
"381 608 LINE",
"552 608 LINE",
"581 488 LINE",
"636 488 LINE",
"636 680 LINE"
);
}
);
};
layerId = "0225C979-6A3F-4323-834E-E3153ADD1AE8";
name = Regular;
paths = (
{
closed = 1;
nodes = (
"40 680 LINE",
"40 488 LINE",
"95 488 LINE",
"124 608 LINE",
"295 608 LINE",
"295 85 LINE",
"211 55 LINE",
"211 0 LINE",
"465 0 LINE",
"465 55 LINE",
"381 85 LINE",
"381 608 LINE",
"552 608 LINE",
"581 488 LINE",
"636 488 LINE",
"636 680 LINE"
);
}
);
width = 676;
}
);
leftKerningGroup = T;
rightKerningGroup = T;
unicode = 0054;
},
{
color = 4;
glyphname = U;
lastChange = "2015-01-31 05:52:20 +0000";
layers = (
{
anchors = (
{
name = ogonek;
position = "{402, 8}";
},
{
name = top;
position = "{398, 680}";
}
);
background = {
paths = (
{
closed = 1;
nodes = (
"516 680 LINE",
"516 623 LINE",
"597 594 LINE",
"597 260 LINE SMOOTH",
"597 99 OFFCURVE",
"532 59 OFFCURVE",
"406 59 CURVE SMOOTH",
"269 59 OFFCURVE",
"205 107 OFFCURVE",
"205 267 CURVE SMOOTH",
"205 594 LINE",
"279 623 LINE",
"279 680 LINE",
"45 680 LINE",
"45 623 LINE",
"119 594 LINE",
"119 260 LINE SMOOTH",
"119 57 OFFCURVE",
"226 -15 OFFCURVE",
"402 -15 CURVE SMOOTH",
"577 -15 OFFCURVE",
"669 57 OFFCURVE",
"669 267 CURVE SMOOTH",
"669 594 LINE",
"753 623 LINE",
"753 680 LINE"
);
}
);
};
layerId = "0225C979-6A3F-4323-834E-E3153ADD1AE8";
name = Regular;
paths = (
{
closed = 1;
nodes = (
"516 680 LINE",
"516 623 LINE",
"597 594 LINE",
"597 260 LINE SMOOTH",
"597 99 OFFCURVE",
"532 59 OFFCURVE",
"406 59 CURVE SMOOTH",
"269 59 OFFCURVE",
"205 107 OFFCURVE",
"205 267 CURVE SMOOTH",
"205 594 LINE",
"279 623 LINE",
"279 680 LINE",
"45 680 LINE",
"45 623 LINE",
"119 594 LINE",
"119 260 LINE SMOOTH",
"119 57 OFFCURVE",
"226 -15 OFFCURVE",
"402 -15 CURVE SMOOTH",
"577 -15 OFFCURVE",
"669 57 OFFCURVE",
"669 267 CURVE SMOOTH",
"669 594 LINE",
"753 623 LINE",
"753 680 LINE"
);
}
);
width = 793;
}
);
leftKerningGroup = U;
leftMetricsKey = "=H-10";
rightKerningGroup = U;
rightMetricsKey = "=|U-5";
unicode = 0055;
},
{
color = 4;
glyphname = V;
lastChange = "2015-01-31 03:22:56 +0000";
layers = (
{
background = {
paths = (
{
closed = 1;
nodes = (
"431 0 LINE",
"657 594 LINE",
"726 623 LINE",
"726 680 LINE",
"507 680 LINE",
"507 623 LINE",
"581 594 LINE",
"370 30 LINE",
"400 30 LINE",
"190 594 LINE",
"264 623 LINE",
"264 680 LINE",
"29 680 LINE",
"29 623 LINE",
"98 594 LINE",
"324 0 LINE"
);
}
);
};
layerId = "0225C979-6A3F-4323-834E-E3153ADD1AE8";
name = Regular;
paths = (
{
closed = 1;
nodes = (
"431 0 LINE",
"657 594 LINE",
"726 623 LINE",
"726 680 LINE",
"507 680 LINE",
"507 623 LINE",
"581 594 LINE",
"370 30 LINE",
"400 30 LINE",
"190 594 LINE",
"264 623 LINE",
"264 680 LINE",
"29 680 LINE",
"29 623 LINE",
"98 594 LINE",
"324 0 LINE"
);
}
);
width = 755;
}
);
unicode = 0056;
},
{
color = 4;
glyphname = W;
lastChange = "2015-01-31 03:22:56 +0000";
layers = (
{
anchors = (
{
name = top;
position = "{529, 680}";
}
);
background = {
paths = (
{
closed = 1;
nodes = (
"811 680 LINE",
"811 623 LINE",
"885 594 LINE",
"732 70 LINE",
"744 70 LINE",
"586 625 LINE",
"481 625 LINE",
"323 66 LINE",
"337 66 LINE",
"182 594 LINE",
"256 623 LINE",
"256 680 LINE",
"23 680 LINE",
"23 623 LINE",
"92 594 LINE",
"272 0 LINE",
"374 0 LINE",
"543 582 LINE",
"515 582 LINE",
"681 0 LINE",
"782 0 LINE",
"960 594 LINE",
"1029 623 LINE",
"1029 680 LINE"
);
}
);
};
guideLines = (
{
angle = 198.327;
position = "{174, 1177}";
},
{
position = "{758, 1416}";
}
);
layerId = "0225C979-6A3F-4323-834E-E3153ADD1AE8";
name = Regular;
paths = (
{
closed = 1;
nodes = (
"811 680 LINE",
"811 623 LINE",
"885 594 LINE",
"732 70 LINE",
"744 70 LINE",
"586 625 LINE",
"481 625 LINE",
"323 66 LINE",
"337 66 LINE",
"182 594 LINE",
"256 623 LINE",
"256 680 LINE",
"23 680 LINE",
"23 623 LINE",
"92 594 LINE",
"272 0 LINE",
"374 0 LINE",
"543 582 LINE",
"515 582 LINE",
"681 0 LINE",
"782 0 LINE",
"960 594 LINE",
"1029 623 LINE",
"1029 680 LINE"
);
}
);
width = 1052;
}
);
unicode = 0057;
},
{
color = 4;
glyphname = X;
lastChange = "2015-01-31 03:22:56 +0000";
layers = (
{
background = {
paths = (
{
closed = 1;
nodes = (
"30 680 LINE",
"30 623 LINE",
"99 594 LINE",
"546 85 LINE",
"472 55 LINE",
"472 0 LINE",
"726 0 LINE",
"726 55 LINE",
"657 85 LINE",
"210 594 LINE",
"284 623 LINE",
"284 680 LINE"
);
},
{
closed = 1;
nodes = (
"97 85 LINE",
"28 55 LINE",
"28 0 LINE",
"268 0 LINE",
"268 55 LINE",
"194 85 LINE",
"379 300 LINE",
"333 351 LINE"
);
},
{
closed = 1;
nodes = (
"486 680 LINE",
"486 625 LINE",
"560 595 LINE",
"377 380 LINE",
"421 329 LINE",
"655 595 LINE",
"724 625 LINE",
"724 680 LINE"
);
}
);
};
layerId = "0225C979-6A3F-4323-834E-E3153ADD1AE8";
name = Regular;
paths = (
{
closed = 1;
nodes = (
"34 680 LINE",
"34 623 LINE",
"103 594 LINE",
"542 85 LINE",
"468 55 LINE",
"468 0 LINE",
"722 0 LINE",
"722 55 LINE",
"653 85 LINE",
"214 594 LINE",
"288 623 LINE",
"288 680 LINE"
);
},
{
closed = 1;
nodes = (
"99 85 LINE",
"30 55 LINE",
"30 0 LINE",
"270 0 LINE",
"270 55 LINE",
"196 85 LINE",
"382 300 LINE",
"336 351 LINE"
);
},
{
closed = 1;
nodes = (
"484 680 LINE",
"484 625 LINE",
"558 595 LINE",
"374 380 LINE",
"418 329 LINE",
"653 595 LINE",
"722 625 LINE",
"722 680 LINE"
);
}
);
width = 752;
}
);
unicode = 0058;
},
{
color = 4;
glyphname = Y;
lastChange = "2015-01-31 05:52:20 +0000";
layers = (
{
anchors = (
{
name = top;
position = "{348, 680}";
}
);
layerId = "0225C979-6A3F-4323-834E-E3153ADD1AE8";
name = Regular;
paths = (
{
closed = 1;
nodes = (
"441 680 LINE",
"441 623 LINE",
"510 594 LINE",
"340 325 LINE",
"355 325 LINE",
"184 594 LINE",
"254 623 LINE",
"254 680 LINE",
"20 680 LINE",
"20 623 LINE",
"85 594 LINE",
"297 267 LINE",
"297 85 LINE",
"213 55 LINE",
"213 0 LINE",
"467 0 LINE",
"467 55 LINE",
"383 85 LINE",
"383 267 LINE",
"596 594 LINE",
"660 623 LINE",
"660 680 LINE"
);
}
);
width = 680;
}
);
leftKerningGroup = Y;
rightKerningGroup = Y;
unicode = 0059;
},
{
color = 4;
glyphname = Z;
lastChange = "2015-01-31 05:52:20 +0000";
layers = (
{
anchors = (
{
name = top;
position = "{340, 680}";
}
);
layerId = "0225C979-6A3F-4323-834E-E3153ADD1AE8";
name = Regular;
paths = (
{
closed = 1;
nodes = (
"65 680 LINE",
"65 503 LINE",
"124 503 LINE",
"150 608 LINE",
"557 608 LINE",
"544 638 LINE",
"60 85 LINE",
"60 0 LINE",
"624 0 LINE",
"624 187 LINE",
"565 187 LINE",
"539 72 LINE",
"118 72 LINE",
"131 43 LINE",
"614 595 LINE",
"614 680 LINE"
);
}
);
width = 674;
}
);
leftKerningGroup = Z;
rightKerningGroup = Z;
unicode = 005A;
},
{
color = 4;
glyphname = a;
lastChange = "2015-01-31 05:52:20 +0000";
layers = (
{
anchors = (
{
name = ogonek;
position = "{487, 10}";
},
{
name = top;
position = "{287, 502}";
}
);
layerId = "0225C979-6A3F-4323-834E-E3153ADD1AE8";
name = Regular;
paths = (
{
closed = 1;
nodes = (
"211 516 OFFCURVE",
"140 506 OFFCURVE",
"75 492 CURVE",
"75 420 LINE",
"143 435 OFFCURVE",
"211 444 OFFCURVE",
"285 444 CURVE SMOOTH",
"397 444 OFFCURVE",
"423 413 OFFCURVE",
"423 324 CURVE SMOOTH",
"423 285 LINE",
"397 299 OFFCURVE",
"348 314 OFFCURVE",
"279 314 CURVE SMOOTH",
"117 314 OFFCURVE",
"47 264 OFFCURVE",
"47 147 CURVE SMOOTH",
"47 35 OFFCURVE",
"110 -10 OFFCURVE",
"235 -10 CURVE SMOOTH",
"322 -10 OFFCURVE",
"387 21 OFFCURVE",
"446 90 CURVE",
"423 90 LINE",
"456 0 LINE",
"575 0 LINE",
"575 55 LINE",
"507 85 LINE",
"507 342 LINE SMOOTH",
"507 457 OFFCURVE",
"481 516 OFFCURVE",
"287 516 CURVE SMOOTH"
);
},
{
closed = 1;
nodes = (
"328 244 OFFCURVE",
"381 240 OFFCURVE",
"423 228 CURVE",
"423 128 LINE",
"375 88 OFFCURVE",
"315 62 OFFCURVE",
"249 62 CURVE SMOOTH",
"160 62 OFFCURVE",
"135 90 OFFCURVE",
"135 153 CURVE SMOOTH",
"135 212 OFFCURVE",
"167 244 OFFCURVE",
"288 244 CURVE SMOOTH"
);
}
);
width = 610;
}
);
leftKerningGroup = a;
rightKerningGroup = n;
rightMetricsKey = n;
unicode = 0061;
},
{
color = 4;
glyphname = ae;
lastChange = "2015-01-31 05:52:20 +0000";
layers = (
{
background = {
anchors = (
{
name = ogonek;
position = "{487, 10}";
},
{
name = top;
position = "{287, 502}";
}
);
paths = (
{
closed = 1;
nodes = (
"196 516 OFFCURVE",
"125 506 OFFCURVE",
"60 492 CURVE",
"60 420 LINE",
"128 435 OFFCURVE",
"196 444 OFFCURVE",
"270 444 CURVE SMOOTH",
"382 444 OFFCURVE",
"408 413 OFFCURVE",
"408 324 CURVE SMOOTH",
"408 285 LINE",
"382 299 OFFCURVE",
"333 314 OFFCURVE",
"264 314 CURVE SMOOTH",
"102 314 OFFCURVE",
"32 264 OFFCURVE",
"32 147 CURVE SMOOTH",
"32 35 OFFCURVE",
"95 -10 OFFCURVE",
"220 -10 CURVE SMOOTH",
"307 -10 OFFCURVE",
"372 21 OFFCURVE",
"431 90 CURVE",
"408 90 LINE",
"441 0 LINE",
"560 0 LINE",
"560 55 LINE",
"492 85 LINE",
"492 342 LINE SMOOTH",
"492 457 OFFCURVE",
"466 516 OFFCURVE",
"272 516 CURVE SMOOTH"
);
},
{
closed = 1;
nodes = (
"313 244 OFFCURVE",
"366 240 OFFCURVE",
"408 228 CURVE",
"408 128 LINE",
"360 88 OFFCURVE",
"300 62 OFFCURVE",
"234 62 CURVE SMOOTH",
"145 62 OFFCURVE",
"120 90 OFFCURVE",
"120 153 CURVE SMOOTH",
"120 212 OFFCURVE",
"152 244 OFFCURVE",
"273 244 CURVE SMOOTH"
);
}
);
};
layerId = "0225C979-6A3F-4323-834E-E3153ADD1AE8";
name = Regular;
paths = (
{
closed = 1;
nodes = (
"727 -14 OFFCURVE",
"798 -4 OFFCURVE",
"846 9 CURVE",
"846 81 LINE",
"777 63 OFFCURVE",
"723 58 OFFCURVE",
"667 58 CURVE SMOOTH",
"548 58 OFFCURVE",
"501 91 OFFCURVE",
"492 224 CURVE",
"864 224 LINE",
"864 264 LINE SMOOTH",
"864 439 OFFCURVE",
"768 516 OFFCURVE",
"646 516 CURVE SMOOTH",
"570 516 OFFCURVE",
"506 493 OFFCURVE",
"468 440 CURVE",
"472 440 LINE",
"450 490 OFFCURVE",
"401 516 OFFCURVE",
"278 516 CURVE SMOOTH",
"205 516 OFFCURVE",
"136 506 OFFCURVE",
"74 492 CURVE",
"74 420 LINE",
"139 435 OFFCURVE",
"205 444 OFFCURVE",
"276 444 CURVE SMOOTH",
"383 444 OFFCURVE",
"408 413 OFFCURVE",
"408 324 CURVE SMOOTH",
"408 285 LINE",
"383 299 OFFCURVE",
"336 314 OFFCURVE",
"270 314 CURVE SMOOTH",
"114 314 OFFCURVE",
"47 264 OFFCURVE",
"47 147 CURVE SMOOTH",
"47 35 OFFCURVE",
"108 -10 OFFCURVE",
"228 -10 CURVE SMOOTH",
"323 -10 OFFCURVE",
"394 21 OFFCURVE",
"458 91 CURVE",
"445 91 LINE",
"483 13 OFFCURVE",
"560 -14 OFFCURVE",
"665 -14 CURVE SMOOTH"
);
},
{
closed = 1;
nodes = (
"156 62 OFFCURVE",
"135 90 OFFCURVE",
"135 153 CURVE SMOOTH",
"135 212 OFFCURVE",
"162 244 OFFCURVE",
"279 244 CURVE SMOOTH",
"317 244 OFFCURVE",
"368 240 OFFCURVE",
"408 228 CURVE",
"408 128 LINE",
"362 88 OFFCURVE",
"305 62 OFFCURVE",
"241 62 CURVE SMOOTH"
);
},
{
closed = 1;
nodes = (
"500 400 OFFCURVE",
"543 444 OFFCURVE",
"642 444 CURVE SMOOTH",
"728 444 OFFCURVE",
"769 392 OFFCURVE",
"776 295 CURVE",
"492 295 LINE"
);
}
);
width = 895;
}
);
leftKerningGroup = a;
leftMetricsKey = a;
rightKerningGroup = o;
rightMetricsKey = e;
unicode = 00E6;
},
{
color = 4;
glyphname = b;
lastChange = "2015-01-31 05:52:20 +0000";
layers = (
{
background = {
paths = (
{
closed = 1;
nodes = (
"36 710 LINE",
"36 653 LINE",
"104 625 LINE",
"104 0 LINE",
"155 0 LINE",
"188 90 LINE",
"165 90 LINE",
"224 21 OFFCURVE",
"289 -10 OFFCURVE",
"380 -10 CURVE SMOOTH",
"510 -10 OFFCURVE",
"579 47 OFFCURVE",
"579 249 CURVE SMOOTH",
"579 446 OFFCURVE",
"497 516 OFFCURVE",
"371 516 CURVE SMOOTH",
"308 516 OFFCURVE",
"249 499 OFFCURVE",
"178 455 CURVE",
"188 451 LINE",
"188 710 LINE"
);
},
{
closed = 1;
nodes = (
"454 443 OFFCURVE",
"491 374 OFFCURVE",
"491 241 CURVE SMOOTH",
"491 101 OFFCURVE",
"450 63 OFFCURVE",
"363 63 CURVE SMOOTH",
"297 63 OFFCURVE",
"241 86 OFFCURVE",
"188 128 CURVE",
"188 402 LINE",
"252 425 OFFCURVE",
"299 443 OFFCURVE",
"351 443 CURVE SMOOTH"
);
}
);
};
layerId = "0225C979-6A3F-4323-834E-E3153ADD1AE8";
leftMetricsKey = "=h-10";
name = Regular;
paths = (
{
closed = 1;
nodes = (
"36 710 LINE",
"36 653 LINE",
"104 625 LINE",
"104 0 LINE",
"155 0 LINE",
"188 90 LINE",
"165 90 LINE",
"224 21 OFFCURVE",
"289 -10 OFFCURVE",
"380 -10 CURVE SMOOTH",
"510 -10 OFFCURVE",
"579 47 OFFCURVE",
"579 249 CURVE SMOOTH",
"579 446 OFFCURVE",
"497 516 OFFCURVE",
"371 516 CURVE SMOOTH",
"308 516 OFFCURVE",
"249 499 OFFCURVE",
"178 455 CURVE",
"188 451 LINE",
"188 710 LINE"
);
},
{
closed = 1;
nodes = (
"454 443 OFFCURVE",
"491 374 OFFCURVE",
"491 241 CURVE SMOOTH",
"491 101 OFFCURVE",
"450 63 OFFCURVE",
"363 63 CURVE SMOOTH",
"297 63 OFFCURVE",
"241 86 OFFCURVE",
"188 128 CURVE",
"188 402 LINE",
"252 425 OFFCURVE",
"299 443 OFFCURVE",
"351 443 CURVE SMOOTH"
);
}
);
width = 625;
}
);
leftKerningGroup = h;
leftMetricsKey = "=H-10";
rightKerningGroup = o;
rightMetricsKey = "=o+5";
unicode = 0062;
},
{
color = 4;
glyphname = c;
lastChange = "2015-01-31 05:52:20 +0000";
layers = (
{
anchors = (
{
name = bottom;
position = "{286, 0}";
},
{
name = top;
position = "{288, 502}";
}
);
background = {
paths = (
{
closed = 1;
nodes = (
"134 516 OFFCURVE",
"41 442 OFFCURVE",
"41 250 CURVE SMOOTH",
"41 46 OFFCURVE",
"143 -14 OFFCURVE",
"296 -14 CURVE SMOOTH",
"350 -14 OFFCURVE",
"409 -5 OFFCURVE",
"451 11 CURVE",
"451 83 LINE",
"399 64 OFFCURVE",
"355 58 OFFCURVE",
"300 58 CURVE SMOOTH",
"181 58 OFFCURVE",
"129 92 OFFCURVE",
"129 253 CURVE SMOOTH",
"129 400 OFFCURVE",
"163 447 OFFCURVE",
"319 447 CURVE",
"363 347 LINE",
"432 347 OFFCURVE",
"459 378 OFFCURVE",
"459 428 CURVE SMOOTH",
"459 487 OFFCURVE",
"422 516 OFFCURVE",
"308 516 CURVE SMOOTH"
);
}
);
};
layerId = "0225C979-6A3F-4323-834E-E3153ADD1AE8";
name = Regular;
paths = (
{
closed = 1;
nodes = (
"134 516 OFFCURVE",
"41 442 OFFCURVE",
"41 250 CURVE SMOOTH",
"41 46 OFFCURVE",
"143 -14 OFFCURVE",
"296 -14 CURVE SMOOTH",
"350 -14 OFFCURVE",
"409 -5 OFFCURVE",
"451 11 CURVE",
"451 83 LINE",
"399 64 OFFCURVE",
"355 58 OFFCURVE",
"300 58 CURVE SMOOTH",
"181 58 OFFCURVE",
"129 92 OFFCURVE",
"129 253 CURVE SMOOTH",
"129 400 OFFCURVE",
"163 447 OFFCURVE",
"319 447 CURVE",
"363 347 LINE",
"432 347 OFFCURVE",
"459 378 OFFCURVE",
"459 428 CURVE SMOOTH",
"459 487 OFFCURVE",
"422 516 OFFCURVE",
"308 516 CURVE SMOOTH"
);
}
);
width = 499;
}
);
leftKerningGroup = o;
leftMetricsKey = o;
unicode = 0063;
},
{
color = 4;
glyphname = d;
lastChange = "2015-01-31 05:52:20 +0000";
layers = (
{
anchors = (
{
name = center;
position = "{312, 251}";
},
{
name = top;
position = "{479, 680}";
},
{
name = topright;
position = "{604, 502}";
}
);
background = {
paths = (
{
closed = 1;
nodes = (
"225 516 OFFCURVE",
"154 506 OFFCURVE",
"89 492 CURVE",
"89 420 LINE",
"157 435 OFFCURVE",
"225 444 OFFCURVE",
"299 444 CURVE SMOOTH",
"411 444 OFFCURVE",
"437 413 OFFCURVE",
"437 324 CURVE SMOOTH",
"437 285 LINE",
"411 299 OFFCURVE",
"362 314 OFFCURVE",
"293 314 CURVE SMOOTH",
"131 314 OFFCURVE",
"61 264 OFFCURVE",
"61 147 CURVE SMOOTH",
"61 35 OFFCURVE",
"124 -10 OFFCURVE",
"249 -10 CURVE SMOOTH",
"336 -10 OFFCURVE",
"401 21 OFFCURVE",
"460 90 CURVE",
"437 90 LINE",
"470 0 LINE",
"589 0 LINE",
"589 55 LINE",
"521 85 LINE",
"521 342 LINE SMOOTH",
"521 457 OFFCURVE",
"495 516 OFFCURVE",
"301 516 CURVE SMOOTH"
);
},
{
closed = 1;
nodes = (
"342 244 OFFCURVE",
"395 240 OFFCURVE",
"437 228 CURVE",
"437 128 LINE",
"389 88 OFFCURVE",
"329 62 OFFCURVE",
"263 62 CURVE SMOOTH",
"174 62 OFFCURVE",
"149 90 OFFCURVE",
"149 153 CURVE SMOOTH",
"149 212 OFFCURVE",
"181 244 OFFCURVE",
"302 244 CURVE SMOOTH"
);
}
);
};
layerId = "0225C979-6A3F-4323-834E-E3153ADD1AE8";
leftMetricsKey = "=o+5";
name = Regular;
paths = (
{
closed = 1;
nodes = (
"369 710 LINE",
"369 653 LINE",
"437 625 LINE",
"437 451 LINE",
"447 455 LINE",
"376 499 OFFCURVE",
"317 516 OFFCURVE",
"254 516 CURVE SMOOTH",
"128 516 OFFCURVE",
"46 446 OFFCURVE",
"46 249 CURVE SMOOTH",
"46 47 OFFCURVE",
"115 -10 OFFCURVE",
"245 -10 CURVE SMOOTH",
"336 -10 OFFCURVE",
"401 21 OFFCURVE",
"460 90 CURVE",
"437 90 LINE",
"470 0 LINE",
"589 0 LINE",
"589 55 LINE",
"521 85 LINE",
"521 710 LINE"
);
},
{
closed = 1;
nodes = (
"326 443 OFFCURVE",
"373 425 OFFCURVE",
"437 402 CURVE",
"437 128 LINE",
"384 86 OFFCURVE",
"328 63 OFFCURVE",
"262 63 CURVE SMOOTH",
"175 63 OFFCURVE",
"134 101 OFFCURVE",
"134 241 CURVE SMOOTH",
"134 374 OFFCURVE",
"171 443 OFFCURVE",
"274 443 CURVE SMOOTH"
);
}
);
width = 624;
}
);
leftKerningGroup = o;
leftMetricsKey = "=o+4";
rightKerningGroup = l;
rightMetricsKey = n;
unicode = 0064;
},
{
color = 4;
glyphname = eth;
lastChange = "2015-01-31 03:22:56 +0000";
layers = (
{
background = {
paths = (
{
closed = 1;
nodes = (
"169 656 LINE",
"356 645 OFFCURVE",
"460 527 OFFCURVE",
"460 281 CURVE SMOOTH",
"460 107 OFFCURVE",
"408 58 OFFCURVE",
"293 58 CURVE SMOOTH",
"186 58 OFFCURVE",
"128 100 OFFCURVE",
"128 216 CURVE SMOOTH",
"128 334 OFFCURVE",
"187 380 OFFCURVE",
"274 380 CURVE SMOOTH",
"325 380 OFFCURVE",
"389 364 OFFCURVE",
"470 325 CURVE",
"470 387 LINE",
"400 428 OFFCURVE",
"321 452 OFFCURVE",
"251 452 CURVE SMOOTH",
"130 452 OFFCURVE",
"40 380 OFFCURVE",
"40 224 CURVE SMOOTH",
"40 48 OFFCURVE",
"155 -14 OFFCURVE",
"288 -14 CURVE SMOOTH",
"441 -14 OFFCURVE",
"548 67 OFFCURVE",
"548 285 CURVE SMOOTH",
"548 513 OFFCURVE",
"432 708 OFFCURVE",
"169 718 CURVE"
);
},
{
closed = 1;
nodes = (
"174 525 LINE",
"197 479 LINE",
"527 631 LINE",
"498 690 LINE"
);
}
);
};
layerId = "0225C979-6A3F-4323-834E-E3153ADD1AE8";
name = Regular;
paths = (
{
closed = 1;
nodes = (
"169 656 LINE",
"356 645 OFFCURVE",
"460 527 OFFCURVE",
"460 281 CURVE SMOOTH",
"460 107 OFFCURVE",
"408 58 OFFCURVE",
"293 58 CURVE SMOOTH",
"186 58 OFFCURVE",
"128 100 OFFCURVE",
"128 216 CURVE SMOOTH",
"128 334 OFFCURVE",
"187 380 OFFCURVE",
"274 380 CURVE SMOOTH",
"325 380 OFFCURVE",
"389 364 OFFCURVE",
"470 325 CURVE",
"470 387 LINE",
"400 428 OFFCURVE",
"321 452 OFFCURVE",
"251 452 CURVE SMOOTH",
"130 452 OFFCURVE",
"40 380 OFFCURVE",
"40 224 CURVE SMOOTH",
"40 48 OFFCURVE",
"155 -14 OFFCURVE",
"288 -14 CURVE SMOOTH",
"441 -14 OFFCURVE",
"548 67 OFFCURVE",
"548 285 CURVE SMOOTH",
"548 513 OFFCURVE",
"432 708 OFFCURVE",
"169 718 CURVE"
);
},
{
closed = 1;
nodes = (
"190 536 LINE",
"213 488 LINE",
"527 631 LINE",
"498 690 LINE"
);
}
);
width = 613;
}
);
unicode = 00F0;
},
{
color = 4;
glyphname = dcroat;
lastChange = "2015-01-31 05:52:20 +0000";
layers = (
{
anchors = (
{
name = center;
position = "{312, 251}";
},
{
name = top;
position = "{479, 680}";
},
{
name = topright;
position = "{604, 502}";
}
);
background = {
paths = (
{
closed = 1;
nodes = (
"254 540 LINE",
"571 540 LINE",
"571 600 LINE",
"254 600 LINE"
);
},
{
closed = 1;
nodes = (
"369 710 LINE",
"369 653 LINE",
"437 639 LINE",
"437 441 LINE",
"447 445 LINE",
"376 489 OFFCURVE",
"317 506 OFFCURVE",
"254 506 CURVE SMOOTH",
"128 506 OFFCURVE",
"46 436 OFFCURVE",
"46 249 CURVE SMOOTH",
"46 47 OFFCURVE",
"115 -10 OFFCURVE",
"245 -10 CURVE SMOOTH",
"336 -10 OFFCURVE",
"401 21 OFFCURVE",
"460 90 CURVE",
"437 90 LINE",
"470 0 LINE",
"589 0 LINE",
"589 55 LINE",
"521 85 LINE",
"521 710 LINE"
);
},
{
closed = 1;
nodes = (
"326 433 OFFCURVE",
"373 415 OFFCURVE",
"437 392 CURVE",
"437 128 LINE",
"384 86 OFFCURVE",
"328 63 OFFCURVE",
"262 63 CURVE SMOOTH",
"175 63 OFFCURVE",
"134 101 OFFCURVE",
"134 241 CURVE SMOOTH",
"134 364 OFFCURVE",
"171 433 OFFCURVE",
"274 433 CURVE SMOOTH"
);
}
);
};
layerId = "0225C979-6A3F-4323-834E-E3153ADD1AE8";
name = Regular;
paths = (
{
closed = 1;
nodes = (
"254 540 LINE",
"571 540 LINE",
"571 600 LINE",
"254 600 LINE"
);
},
{
closed = 1;
nodes = (
"369 710 LINE",
"369 653 LINE",
"437 639 LINE",
"437 441 LINE",
"447 445 LINE",
"376 489 OFFCURVE",
"317 506 OFFCURVE",
"254 506 CURVE SMOOTH",
"128 506 OFFCURVE",
"46 436 OFFCURVE",
"46 249 CURVE SMOOTH",
"46 47 OFFCURVE",
"115 -10 OFFCURVE",
"245 -10 CURVE SMOOTH",
"336 -10 OFFCURVE",
"401 21 OFFCURVE",
"460 90 CURVE",
"437 90 LINE",
"470 0 LINE",
"589 0 LINE",
"589 55 LINE",
"521 85 LINE",
"521 710 LINE"
);
},
{
closed = 1;
nodes = (
"326 433 OFFCURVE",
"373 415 OFFCURVE",
"437 392 CURVE",
"437 128 LINE",
"384 86 OFFCURVE",
"328 63 OFFCURVE",
"262 63 CURVE SMOOTH",
"175 63 OFFCURVE",
"134 101 OFFCURVE",
"134 241 CURVE SMOOTH",
"134 364 OFFCURVE",
"171 433 OFFCURVE",
"274 433 CURVE SMOOTH"
);
}
);
width = 624;
}
);
leftKerningGroup = o;
leftMetricsKey = d;
rightKerningGroup = l;
unicode = 0111;
},
{
color = 4;
glyphname = e;
lastChange = "2015-01-31 05:52:20 +0000";
layers = (
{
anchors = (
{
name = bottom;
position = "{312, 0}";
},
{
name = ogonek;
position = "{437, 19}";
},
{
name = top;
position = "{292, 502}";
}
);
background = {
guideLines = (
{
angle = 90;
position = "{300, 450}";
}
);
paths = (
{
closed = 1;
nodes = (
"147 516 OFFCURVE",
"41 439 OFFCURVE",
"41 251 CURVE SMOOTH",
"41 48 OFFCURVE",
"145 -14 OFFCURVE",
"312 -14 CURVE SMOOTH",
"377 -14 OFFCURVE",
"452 -4 OFFCURVE",
"502 9 CURVE",
"502 81 LINE",
"429 63 OFFCURVE",
"373 58 OFFCURVE",
"314 58 CURVE SMOOTH",
"188 58 OFFCURVE",
"139 91 OFFCURVE",
"129 224 CURVE",
"521 224 LINE",
"521 264 LINE SMOOTH",
"521 439 OFFCURVE",
"420 516 OFFCURVE",
"292 516 CURVE SMOOTH"
);
},
{
closed = 1;
nodes = (
"380 444 OFFCURVE",
"424 392 OFFCURVE",
"432 295 CURVE",
"130 295 LINE",
"139 400 OFFCURVE",
"183 444 OFFCURVE",
"287 444 CURVE SMOOTH"
);
}
);
};
layerId = "0225C979-6A3F-4323-834E-E3153ADD1AE8";
name = Regular;
paths = (
{
closed = 1;
nodes = (
"147 516 OFFCURVE",
"41 439 OFFCURVE",
"41 251 CURVE SMOOTH",
"41 48 OFFCURVE",
"145 -14 OFFCURVE",
"312 -14 CURVE SMOOTH",
"377 -14 OFFCURVE",
"452 -4 OFFCURVE",
"502 9 CURVE",
"502 81 LINE",
"429 63 OFFCURVE",
"373 58 OFFCURVE",
"314 58 CURVE SMOOTH",
"188 58 OFFCURVE",
"139 91 OFFCURVE",
"129 224 CURVE",
"521 224 LINE",
"521 264 LINE SMOOTH",
"521 439 OFFCURVE",
"420 516 OFFCURVE",
"292 516 CURVE SMOOTH"
);
},
{
closed = 1;
nodes = (
"380 444 OFFCURVE",
"424 392 OFFCURVE",
"432 295 CURVE",
"130 295 LINE",
"139 400 OFFCURVE",
"183 444 OFFCURVE",
"287 444 CURVE SMOOTH"
);
}
);
width = 552;
}
);
leftKerningGroup = o;
leftMetricsKey = o;
rightKerningGroup = e;
rightMetricsKey = "=o-10";
unicode = 0065;
},
{
color = 4;
glyphname = f;
lastChange = "2015-01-31 05:52:20 +0000";
layers = (
{
background = {
paths = (
{
closed = 1;
nodes = (
"190 718 OFFCURVE",
"114 664 OFFCURVE",
"114 550 CURVE SMOOTH",
"114 502 LINE",
"46 488 LINE",
"46 432 LINE",
"114 432 LINE",
"114 85 LINE",
"46 55 LINE",
"46 0 LINE",
"291 0 LINE",
"291 55 LINE",
"198 85 LINE",
"198 432 LINE",
"291 432 LINE",
"291 502 LINE",
"198 502 LINE",
"198 568 LINE SMOOTH",
"198 617 OFFCURVE",
"233 648 OFFCURVE",
"317 648 CURVE SMOOTH",
"331 648 LINE",
"331 718 LINE"
);
}
);
};
layerId = "0225C979-6A3F-4323-834E-E3153ADD1AE8";
name = Regular;
paths = (
{
closed = 1;
nodes = (
"177 718 OFFCURVE",
"114 664 OFFCURVE",
"114 550 CURVE SMOOTH",
"114 502 LINE",
"46 488 LINE",
"46 432 LINE",
"114 432 LINE",
"114 85 LINE",
"46 55 LINE",
"46 0 LINE",
"291 0 LINE",
"291 55 LINE",
"198 85 LINE",
"198 432 LINE",
"291 432 LINE",
"291 502 LINE",
"198 502 LINE",
"198 576 LINE SMOOTH",
"198 625 OFFCURVE",
"222 656 OFFCURVE",
"279 656 CURVE",
"306 597 LINE",
"358 597 OFFCURVE",
"377 616 OFFCURVE",
"377 651 CURVE SMOOTH",
"377 697 OFFCURVE",
"352 718 OFFCURVE",
"290 718 CURVE SMOOTH"
);
}
);
width = 342;
}
);
leftKerningGroup = f;
leftMetricsKey = n;
rightKerningGroup = f;
unicode = 0066;
},
{
color = 4;
glyphname = g;
lastChange = "2015-01-31 05:52:20 +0000";
layers = (
{
anchors = (
{
name = top;
position = "{294, 502}";
}
);
background = {
guideLines = (
{
angle = 90;
position = "{601, 507}";
}
);
paths = (
{
closed = 1;
nodes = (
"131 516 OFFCURVE",
"47 457 OFFCURVE",
"47 336 CURVE SMOOTH",
"47 210 OFFCURVE",
"132 156 OFFCURVE",
"266 156 CURVE SMOOTH",
"402 156 OFFCURVE",
"486 207 OFFCURVE",
"486 336 CURVE SMOOTH",
"486 452 OFFCURVE",
"401 516 OFFCURVE",
"266 516 CURVE SMOOTH"
);
},
{
closed = 1;
nodes = (
"379 451 OFFCURVE",
"402 414 OFFCURVE",
"402 336 CURVE SMOOTH",
"402 258 OFFCURVE",
"379 221 OFFCURVE",
"266 221 CURVE SMOOTH",
"153 221 OFFCURVE",
"130 257 OFFCURVE",
"130 336 CURVE SMOOTH",
"130 413 OFFCURVE",
"153 451 OFFCURVE",
"266 451 CURVE SMOOTH"
);
},
{
closed = 1;
nodes = (
"541 445 LINE",
"541 502 LINE",
"334 502 LINE",
"453 417 LINE"
);
},
{
closed = 1;
nodes = (
"61 199 OFFCURVE",
"37 165 OFFCURVE",
"37 118 CURVE SMOOTH",
"37 68 OFFCURVE",
"61 32 OFFCURVE",
"114 18 CURVE",
"114 28 LINE",
"51 16 OFFCURVE",
"22 -24 OFFCURVE",
"22 -79 CURVE SMOOTH",
"22 -138 OFFCURVE",
"43 -174 OFFCURVE",
"89 -198 CURVE SMOOTH",
"137 -223 OFFCURVE",
"212 -234 OFFCURVE",
"286 -234 CURVE SMOOTH",
"457 -234 OFFCURVE",
"541 -179 OFFCURVE",
"541 -62 CURVE SMOOTH",
"541 35 OFFCURVE",
"501 78 OFFCURVE",
"388 78 CURVE SMOOTH",
"204 78 LINE SMOOTH",
"133 78 OFFCURVE",
"110 95 OFFCURVE",
"110 132 CURVE SMOOTH",
"110 157 OFFCURVE",
"123 181 OFFCURVE",
"157 197 CURVE",
"113 217 LINE"
);
},
{
closed = 1;
nodes = (
"440 0 OFFCURVE",
"458 -18 OFFCURVE",
"458 -72 CURVE SMOOTH",
"458 -140 OFFCURVE",
"428 -167 OFFCURVE",
"304 -167 CURVE SMOOTH",
"145 -167 OFFCURVE",
"100 -136 OFFCURVE",
"100 -71 CURVE SMOOTH",
"100 -23 OFFCURVE",
"124 0 OFFCURVE",
"169 0 CURVE SMOOTH",
"381 0 LINE SMOOTH"
);
}
);
};
layerId = "0225C979-6A3F-4323-834E-E3153ADD1AE8";
name = Regular;
paths = (
{
closed = 1;
nodes = (
"131 516 OFFCURVE",
"47 457 OFFCURVE",
"47 336 CURVE SMOOTH",
"47 210 OFFCURVE",
"132 156 OFFCURVE",
"266 156 CURVE SMOOTH",
"402 156 OFFCURVE",
"486 207 OFFCURVE",
"486 336 CURVE SMOOTH",
"486 452 OFFCURVE",
"401 516 OFFCURVE",
"266 516 CURVE SMOOTH"
);
},
{
closed = 1;
nodes = (
"379 451 OFFCURVE",
"402 414 OFFCURVE",
"402 336 CURVE SMOOTH",
"402 258 OFFCURVE",
"379 221 OFFCURVE",
"266 221 CURVE SMOOTH",
"153 221 OFFCURVE",
"130 257 OFFCURVE",
"130 336 CURVE SMOOTH",
"130 413 OFFCURVE",
"153 451 OFFCURVE",
"266 451 CURVE SMOOTH"
);
},
{
closed = 1;
nodes = (
"541 445 LINE",
"541 502 LINE",
"334 502 LINE",
"453 417 LINE"
);
},
{
closed = 1;
nodes = (
"61 199 OFFCURVE",
"37 165 OFFCURVE",
"37 118 CURVE SMOOTH",
"37 68 OFFCURVE",
"61 32 OFFCURVE",
"114 18 CURVE",
"114 28 LINE",
"51 16 OFFCURVE",
"22 -24 OFFCURVE",
"22 -79 CURVE SMOOTH",
"22 -138 OFFCURVE",
"43 -174 OFFCURVE",
"89 -198 CURVE SMOOTH",
"137 -223 OFFCURVE",
"212 -234 OFFCURVE",
"286 -234 CURVE SMOOTH",
"457 -234 OFFCURVE",
"541 -179 OFFCURVE",
"541 -62 CURVE SMOOTH",
"541 35 OFFCURVE",
"501 78 OFFCURVE",
"388 78 CURVE SMOOTH",
"204 78 LINE SMOOTH",
"133 78 OFFCURVE",
"110 95 OFFCURVE",
"110 132 CURVE SMOOTH",
"110 157 OFFCURVE",
"123 181 OFFCURVE",
"157 197 CURVE",
"113 217 LINE"
);
},
{
closed = 1;
nodes = (
"440 0 OFFCURVE",
"458 -18 OFFCURVE",
"458 -72 CURVE SMOOTH",
"458 -140 OFFCURVE",
"428 -167 OFFCURVE",
"304 -167 CURVE SMOOTH",
"145 -167 OFFCURVE",
"100 -136 OFFCURVE",
"100 -71 CURVE SMOOTH",
"100 -23 OFFCURVE",
"124 0 OFFCURVE",
"169 0 CURVE SMOOTH",
"381 0 LINE SMOOTH"
);
}
);
width = 566;
}
);
leftKerningGroup = g;
rightKerningGroup = g;
unicode = 0067;
},
{
color = 4;
glyphname = gcommaaccent;
lastChange = "2015-01-31 05:52:20 +0000";
layers = (
{
background = {
anchors = (
{
name = top;
position = "{261, 502}";
}
);
paths = (
{
closed = 1;
nodes = (
"126 516 OFFCURVE",
"42 457 OFFCURVE",
"42 336 CURVE SMOOTH",
"42 210 OFFCURVE",
"127 156 OFFCURVE",
"261 156 CURVE SMOOTH",
"397 156 OFFCURVE",
"481 207 OFFCURVE",
"481 336 CURVE SMOOTH",
"481 452 OFFCURVE",
"396 516 OFFCURVE",
"261 516 CURVE SMOOTH"
);
},
{
closed = 1;
nodes = (
"374 451 OFFCURVE",
"397 414 OFFCURVE",
"397 336 CURVE SMOOTH",
"397 258 OFFCURVE",
"374 221 OFFCURVE",
"261 221 CURVE SMOOTH",
"148 221 OFFCURVE",
"125 257 OFFCURVE",
"125 336 CURVE SMOOTH",
"125 413 OFFCURVE",
"148 451 OFFCURVE",
"261 451 CURVE SMOOTH"
);
},
{
closed = 1;
nodes = (
"536 445 LINE",
"536 502 LINE",
"329 502 LINE",
"448 417 LINE"
);
},
{
closed = 1;
nodes = (
"56 199 OFFCURVE",
"32 165 OFFCURVE",
"32 118 CURVE SMOOTH",
"32 68 OFFCURVE",
"56 32 OFFCURVE",
"109 18 CURVE",
"109 28 LINE",
"46 16 OFFCURVE",
"17 -24 OFFCURVE",
"17 -79 CURVE SMOOTH",
"17 -138 OFFCURVE",
"38 -174 OFFCURVE",
"84 -198 CURVE SMOOTH",
"132 -223 OFFCURVE",
"207 -234 OFFCURVE",
"281 -234 CURVE SMOOTH",
"452 -234 OFFCURVE",
"536 -179 OFFCURVE",
"536 -62 CURVE SMOOTH",
"536 35 OFFCURVE",
"496 78 OFFCURVE",
"383 78 CURVE SMOOTH",
"199 78 LINE SMOOTH",
"128 78 OFFCURVE",
"105 95 OFFCURVE",
"105 132 CURVE SMOOTH",
"105 157 OFFCURVE",
"118 181 OFFCURVE",
"152 197 CURVE",
"108 217 LINE"
);
},
{
closed = 1;
nodes = (
"435 0 OFFCURVE",
"453 -18 OFFCURVE",
"453 -72 CURVE SMOOTH",
"453 -140 OFFCURVE",
"423 -167 OFFCURVE",
"299 -167 CURVE SMOOTH",
"140 -167 OFFCURVE",
"95 -136 OFFCURVE",
"95 -71 CURVE SMOOTH",
"95 -23 OFFCURVE",
"119 0 OFFCURVE",
"164 0 CURVE SMOOTH",
"376 0 LINE SMOOTH"
);
},
{
closed = 1;
nodes = (
"335 777 LINE",
"273 777 LINE",
"243 577 LINE",
"335 577 LINE"
);
}
);
};
components = (
{
name = g;
transform = "{1, 0, 0, 1, 0, 0}";
}
);
layerId = "0225C979-6A3F-4323-834E-E3153ADD1AE8";
name = Regular;
paths = (
{
closed = 1;
nodes = (
"336 777 LINE",
"272 777 LINE",
"242 577 LINE",
"336 577 LINE"
);
}
);
width = 556;
}
);
leftKerningGroup = g;
rightKerningGroup = g;
unicode = 0123;
},
{
color = 4;
glyphname = h;
lastChange = "2015-01-31 05:52:20 +0000";
layers = (
{
background = {
hints = (
{
place = "{0.000000, 0.000000}";
}
);
paths = (
{
closed = 1;
nodes = (
"46 710 LINE",
"46 653 LINE",
"114 625 LINE",
"114 85 LINE",
"46 55 LINE",
"46 0 LINE",
"266 0 LINE",
"266 55 LINE",
"198 85 LINE",
"198 402 LINE",
"268 427 OFFCURVE",
"313 443 OFFCURVE",
"364 443 CURVE SMOOTH",
"435 443 OFFCURVE",
"476 412 OFFCURVE",
"476 331 CURVE SMOOTH",
"476 0 LINE",
"628 0 LINE",
"628 55 LINE",
"560 85 LINE",
"560 320 LINE SMOOTH",
"560 462 OFFCURVE",
"517 516 OFFCURVE",
"391 516 CURVE SMOOTH",
"319 516 OFFCURVE",
"252 498 OFFCURVE",
"171 452 CURVE",
"198 452 LINE",
"198 710 LINE"
);
}
);
};
layerId = "0225C979-6A3F-4323-834E-E3153ADD1AE8";
name = Regular;
paths = (
{
closed = 1;
nodes = (
"46 710 LINE",
"46 653 LINE",
"114 625 LINE",
"114 85 LINE",
"46 55 LINE",
"46 0 LINE",
"266 0 LINE",
"266 55 LINE",
"198 85 LINE",
"198 402 LINE",
"268 427 OFFCURVE",
"313 443 OFFCURVE",
"364 443 CURVE SMOOTH",
"435 443 OFFCURVE",
"476 412 OFFCURVE",
"476 331 CURVE SMOOTH",
"476 0 LINE",
"628 0 LINE",
"628 55 LINE",
"560 85 LINE",
"560 320 LINE SMOOTH",
"560 462 OFFCURVE",
"517 516 OFFCURVE",
"391 516 CURVE SMOOTH",
"319 516 OFFCURVE",
"252 498 OFFCURVE",
"171 452 CURVE",
"198 452 LINE",
"198 710 LINE"
);
}
);
width = 663;
}
);
leftKerningGroup = h;
leftMetricsKey = n;
rightKerningGroup = n;
rightMetricsKey = n;
unicode = 0068;
},
{
color = 4;
glyphname = i;
lastChange = "2015-01-31 05:52:20 +0000";
layers = (
{
background = {
paths = (
{
closed = 1;
nodes = (
"46 502 LINE",
"46 445 LINE",
"114 417 LINE",
"114 85 LINE",
"46 55 LINE",
"46 0 LINE",
"266 0 LINE",
"266 55 LINE",
"198 85 LINE",
"198 502 LINE"
);
},
{
closed = 1;
nodes = (
"109 717 OFFCURVE",
"84 694 OFFCURVE",
"84 652 CURVE SMOOTH",
"84 610 OFFCURVE",
"109 587 OFFCURVE",
"148 587 CURVE SMOOTH",
"187 587 OFFCURVE",
"212 610 OFFCURVE",
"212 652 CURVE SMOOTH",
"212 694 OFFCURVE",
"187 717 OFFCURVE",
"148 717 CURVE SMOOTH"
);
}
);
};
guideLines = (
{
angle = 90;
position = "{114, 425}";
},
{
angle = 90;
position = "{198, 510}";
}
);
layerId = "0225C979-6A3F-4323-834E-E3153ADD1AE8";
name = Regular;
paths = (
{
closed = 1;
nodes = (
"46 502 LINE",
"46 445 LINE",
"114 417 LINE",
"114 85 LINE",
"46 55 LINE",
"46 0 LINE",
"266 0 LINE",
"266 55 LINE",
"198 85 LINE",
"198 502 LINE"
);
},
{
closed = 1;
nodes = (
"107 721 OFFCURVE",
"80 697 OFFCURVE",
"80 652 CURVE SMOOTH",
"80 607 OFFCURVE",
"107 583 OFFCURVE",
"148 583 CURVE SMOOTH",
"189 583 OFFCURVE",
"216 607 OFFCURVE",
"216 652 CURVE SMOOTH",
"216 697 OFFCURVE",
"189 721 OFFCURVE",
"148 721 CURVE SMOOTH"
);
}
);
width = 301;
}
);
leftKerningGroup = i;
leftMetricsKey = n;
rightKerningGroup = l;
rightMetricsKey = n;
unicode = 0069;
},
{
color = 4;
glyphname = idotless;
lastChange = "2015-01-31 05:52:20 +0000";
layers = (
{
anchors = (
{
name = ogonek;
position = "{135, 10}";
},
{
name = top;
position = "{139, 502}";
}
);
guideLines = (
{
angle = 90;
position = "{198, 85}";
},
{
angle = 90;
position = "{114, 85}";
}
);
layerId = "0225C979-6A3F-4323-834E-E3153ADD1AE8";
name = Regular;
paths = (
{
closed = 1;
nodes = (
"46 502 LINE",
"46 445 LINE",
"114 417 LINE",
"114 85 LINE",
"46 55 LINE",
"46 0 LINE",
"266 0 LINE",
"266 55 LINE",
"198 85 LINE",
"198 502 LINE"
);
}
);
width = 301;
}
);
leftKerningGroup = n;
rightKerningGroup = n;
unicode = 0131;
},
{
color = 4;
glyphname = j;
lastChange = "2015-01-31 05:52:20 +0000";
layers = (
{
background = {
paths = (
{
closed = 1;
nodes = (
"46 502 LINE",
"46 445 LINE",
"114 417 LINE",
"114 -8 LINE SMOOTH",
"114 -42 OFFCURVE",
"114 -58 OFFCURVE",
"114 -82 CURVE SMOOTH",
"114 -130 OFFCURVE",
"91 -154 OFFCURVE",
"44 -154 CURVE",
"20 -103 LINE",
"-33 -103 OFFCURVE",
"-51 -122 OFFCURVE",
"-51 -159 CURVE SMOOTH",
"-51 -203 OFFCURVE",
"-25 -224 OFFCURVE",
"38 -224 CURVE SMOOTH",
"132 -224 OFFCURVE",
"198 -176 OFFCURVE",
"198 -66 CURVE SMOOTH",
"198 502 LINE"
);
},
{
closed = 1;
nodes = (
"109 717 OFFCURVE",
"84 694 OFFCURVE",
"84 652 CURVE SMOOTH",
"84 610 OFFCURVE",
"109 587 OFFCURVE",
"148 587 CURVE SMOOTH",
"187 587 OFFCURVE",
"212 610 OFFCURVE",
"212 652 CURVE SMOOTH",
"212 694 OFFCURVE",
"187 717 OFFCURVE",
"148 717 CURVE SMOOTH"
);
}
);
};
layerId = "0225C979-6A3F-4323-834E-E3153ADD1AE8";
name = Regular;
paths = (
{
closed = 1;
nodes = (
"46 502 LINE",
"46 445 LINE",
"114 417 LINE",
"114 -8 LINE SMOOTH",
"114 -42 OFFCURVE",
"114 -58 OFFCURVE",
"114 -82 CURVE SMOOTH",
"114 -130 OFFCURVE",
"91 -154 OFFCURVE",
"44 -154 CURVE",
"20 -103 LINE",
"-33 -103 OFFCURVE",
"-51 -122 OFFCURVE",
"-51 -159 CURVE SMOOTH",
"-51 -203 OFFCURVE",
"-25 -224 OFFCURVE",
"38 -224 CURVE SMOOTH",
"132 -224 OFFCURVE",
"198 -176 OFFCURVE",
"198 -66 CURVE SMOOTH",
"198 502 LINE"
);
},
{
closed = 1;
nodes = (
"107 721 OFFCURVE",
"80 697 OFFCURVE",
"80 652 CURVE SMOOTH",
"80 607 OFFCURVE",
"107 583 OFFCURVE",
"148 583 CURVE SMOOTH",
"189 583 OFFCURVE",
"216 607 OFFCURVE",
"216 652 CURVE SMOOTH",
"216 697 OFFCURVE",
"189 721 OFFCURVE",
"148 721 CURVE SMOOTH"
);
}
);
width = 291;
}
);
leftKerningGroup = i;
rightKerningGroup = l;
unicode = 006A;
},
{
color = 4;
glyphname = k;
lastChange = "2015-01-31 05:52:20 +0000";
layers = (
{
anchors = (
{
name = bottom;
position = "{394, 0}";
}
);
background = {
guideLines = (
{
angle = 123.463;
position = "{434, 309}";
showMeasurement = 1;
}
);
paths = (
{
closed = 1;
nodes = (
"46 710 LINE",
"46 653 LINE",
"114 625 LINE",
"114 85 LINE",
"46 55 LINE",
"46 0 LINE",
"266 0 LINE",
"266 55 LINE",
"198 85 LINE",
"198 710 LINE"
);
},
{
closed = 1;
nodes = (
"346 502 LINE",
"346 445 LINE",
"450 402 LINE",
"445 440 LINE",
"178 237 LINE",
"178 150 LINE",
"529 417 LINE",
"597 445 LINE",
"597 502 LINE"
);
},
{
closed = 1;
nodes = (
"287 279 LINE",
"521 0 LINE",
"628 0 LINE",
"628 55 LINE",
"560 85 LINE",
"354 328 LINE"
);
}
);
};
guideLines = (
{
position = "{597, 417}";
},
{
position = "{597, 445}";
},
{
position = "{597, 431}";
}
);
layerId = "0225C979-6A3F-4323-834E-E3153ADD1AE8";
leftMetricsKey = "=h";
name = Regular;
paths = (
{
closed = 1;
nodes = (
"46 710 LINE",
"46 653 LINE",
"114 625 LINE",
"114 85 LINE",
"46 55 LINE",
"46 0 LINE",
"266 0 LINE",
"266 55 LINE",
"198 85 LINE",
"198 710 LINE"
);
},
{
closed = 1;
nodes = (
"346 502 LINE",
"346 445 LINE",
"445 419 LINE",
"445 440 LINE",
"178 237 LINE",
"178 150 LINE",
"529 417 LINE",
"597 445 LINE",
"597 502 LINE"
);
},
{
closed = 1;
nodes = (
"287 279 LINE",
"521 0 LINE",
"628 0 LINE",
"628 55 LINE",
"560 85 LINE",
"354 328 LINE"
);
}
);
width = 643;
}
);
leftKerningGroup = h;
leftMetricsKey = h;
rightKerningGroup = k;
unicode = 006B;
},
{
color = 4;
glyphname = l;
lastChange = "2015-01-31 05:52:20 +0000";
layers = (
{
anchors = (
{
name = bottom;
position = "{156, 0}";
},
{
name = top;
position = "{156, 680}";
},
{
name = topright;
position = "{281, 502}";
}
);
background = {
paths = (
{
closed = 1;
nodes = (
"46 710 LINE",
"46 653 LINE",
"114 625 LINE",
"114 85 LINE",
"46 55 LINE",
"46 0 LINE",
"266 0 LINE",
"266 55 LINE",
"198 85 LINE",
"198 710 LINE"
);
},
{
closed = 1;
nodes = (
"175 321 OFFCURVE",
"190 336 OFFCURVE",
"190 355 CURVE SMOOTH",
"190 374 OFFCURVE",
"175 389 OFFCURVE",
"156 389 CURVE SMOOTH",
"137 389 OFFCURVE",
"122 374 OFFCURVE",
"122 355 CURVE SMOOTH",
"122 336 OFFCURVE",
"137 321 OFFCURVE",
"156 321 CURVE SMOOTH"
);
}
);
};
layerId = "0225C979-6A3F-4323-834E-E3153ADD1AE8";
name = Regular;
paths = (
{
closed = 1;
nodes = (
"46 710 LINE",
"46 653 LINE",
"114 625 LINE",
"114 85 LINE",
"46 55 LINE",
"46 0 LINE",
"266 0 LINE",
"266 55 LINE",
"198 85 LINE",
"198 710 LINE"
);
}
);
width = 301;
}
);
leftKerningGroup = h;
leftMetricsKey = h;
rightKerningGroup = l;
rightMetricsKey = h;
unicode = 006C;
},
{
color = 4;
glyphname = lslash;
lastChange = "2015-01-31 05:52:20 +0000";
layers = (
{
background = {
paths = (
{
closed = 1;
nodes = (
"286 446 LINE",
"26 337 LINE",
"26 263 LINE",
"286 372 LINE"
);
}
);
};
components = (
{
name = l;
transform = "{1, 0, 0, 1, 0, 0}";
}
);
layerId = "0225C979-6A3F-4323-834E-E3153ADD1AE8";
name = Regular;
paths = (
{
closed = 1;
nodes = (
"286 477 LINE",
"26 368 LINE",
"26 294 LINE",
"286 403 LINE"
);
}
);
width = 301;
}
);
leftKerningGroup = h;
rightKerningGroup = l;
unicode = 0142;
},
{
color = 4;
glyphname = m;
lastChange = "2015-01-31 05:52:20 +0000";
layers = (
{
background = {
paths = (
{
closed = 1;
nodes = (
"659 516 OFFCURVE",
"595 497 OFFCURVE",
"502 446 CURVE",
"535 443 LINE",
"505 495 OFFCURVE",
"460 516 OFFCURVE",
"386 516 CURVE SMOOTH",
"312 516 OFFCURVE",
"248 497 OFFCURVE",
"155 446 CURVE",
"193 446 LINE",
"157 502 LINE",
"46 502 LINE",
"46 445 LINE",
"114 417 LINE",
"114 85 LINE",
"46 55 LINE",
"46 0 LINE",
"266 0 LINE",
"266 55 LINE",
"198 85 LINE",
"198 402 LINE",
"268 427 OFFCURVE",
"308 443 OFFCURVE",
"359 443 CURVE SMOOTH",
"425 443 OFFCURVE",
"462 412 OFFCURVE",
"462 331 CURVE SMOOTH",
"462 0 LINE",
"614 0 LINE",
"614 55 LINE",
"546 85 LINE",
"546 402 LINE",
"615 427 OFFCURVE",
"655 443 OFFCURVE",
"707 443 CURVE SMOOTH",
"773 443 OFFCURVE",
"810 412 OFFCURVE",
"810 331 CURVE SMOOTH",
"810 0 LINE",
"962 0 LINE",
"962 55 LINE",
"894 85 LINE",
"894 320 LINE SMOOTH",
"894 462 OFFCURVE",
"854 516 OFFCURVE",
"734 516 CURVE SMOOTH"
);
}
);
};
layerId = "0225C979-6A3F-4323-834E-E3153ADD1AE8";
name = Regular;
paths = (
{
closed = 1;
nodes = (
"659 516 OFFCURVE",
"595 497 OFFCURVE",
"502 446 CURVE",
"535 443 LINE",
"505 495 OFFCURVE",
"460 516 OFFCURVE",
"386 516 CURVE SMOOTH",
"312 516 OFFCURVE",
"248 497 OFFCURVE",
"155 446 CURVE",
"193 446 LINE",
"157 502 LINE",
"46 502 LINE",
"46 445 LINE",
"114 417 LINE",
"114 85 LINE",
"46 55 LINE",
"46 0 LINE",
"266 0 LINE",
"266 55 LINE",
"198 85 LINE",
"198 402 LINE",
"268 427 OFFCURVE",
"308 443 OFFCURVE",
"359 443 CURVE SMOOTH",
"425 443 OFFCURVE",
"462 412 OFFCURVE",
"462 331 CURVE SMOOTH",
"462 0 LINE",
"614 0 LINE",
"614 55 LINE",
"546 85 LINE",
"546 402 LINE",
"615 427 OFFCURVE",
"655 443 OFFCURVE",
"707 443 CURVE SMOOTH",
"773 443 OFFCURVE",
"810 412 OFFCURVE",
"810 331 CURVE SMOOTH",
"810 0 LINE",
"962 0 LINE",
"962 55 LINE",
"894 85 LINE",
"894 320 LINE SMOOTH",
"894 462 OFFCURVE",
"854 516 OFFCURVE",
"734 516 CURVE SMOOTH"
);
}
);
width = 997;
}
);
leftKerningGroup = n;
leftMetricsKey = n;
rightKerningGroup = n;
rightMetricsKey = n;
unicode = 006D;
},
{
color = 4;
glyphname = n;
lastChange = "2015-01-31 05:52:20 +0000";
layers = (
{
anchors = (
{
name = bottom;
position = "{337, 0}";
},
{
name = top;
position = "{337, 502}";
}
);
background = {
paths = (
{
closed = 1;
nodes = (
"319 516 OFFCURVE",
"251 497 OFFCURVE",
"172 455 CURVE",
"193 446 LINE",
"157 502 LINE",
"46 502 LINE",
"46 445 LINE",
"114 417 LINE",
"114 85 LINE",
"46 55 LINE",
"46 0 LINE",
"276 0 LINE",
"276 55 LINE",
"198 85 LINE",
"198 402 LINE",
"268 427 OFFCURVE",
"313 443 OFFCURVE",
"364 443 CURVE SMOOTH",
"435 443 OFFCURVE",
"476 412 OFFCURVE",
"476 331 CURVE SMOOTH",
"476 0 LINE",
"628 0 LINE",
"628 55 LINE",
"560 85 LINE",
"560 320 LINE SMOOTH",
"560 462 OFFCURVE",
"517 516 OFFCURVE",
"391 516 CURVE SMOOTH"
);
}
);
};
layerId = "0225C979-6A3F-4323-834E-E3153ADD1AE8";
name = Regular;
paths = (
{
closed = 1;
nodes = (
"319 516 OFFCURVE",
"251 497 OFFCURVE",
"172 455 CURVE",
"193 446 LINE",
"157 502 LINE",
"46 502 LINE",
"46 445 LINE",
"114 417 LINE",
"114 85 LINE",
"46 55 LINE",
"46 0 LINE",
"276 0 LINE",
"276 55 LINE",
"198 85 LINE",
"198 402 LINE",
"268 427 OFFCURVE",
"313 443 OFFCURVE",
"364 443 CURVE SMOOTH",
"435 443 OFFCURVE",
"476 412 OFFCURVE",
"476 331 CURVE SMOOTH",
"476 0 LINE",
"628 0 LINE",
"628 55 LINE",
"560 85 LINE",
"560 320 LINE SMOOTH",
"560 462 OFFCURVE",
"517 516 OFFCURVE",
"391 516 CURVE SMOOTH"
);
}
);
width = 663;
}
);
leftKerningGroup = n;
rightKerningGroup = n;
unicode = 006E;
},
{
color = 4;
glyphname = o;
lastChange = "2015-01-31 05:52:20 +0000";
layers = (
{
anchors = (
{
name = top;
position = "{295, 502}";
}
);
background = {
paths = (
{
closed = 1;
nodes = (
"154 516 OFFCURVE",
"41 446 OFFCURVE",
"41 251 CURVE SMOOTH",
"41 56 OFFCURVE",
"153 -14 OFFCURVE",
"295 -14 CURVE SMOOTH",
"437 -14 OFFCURVE",
"549 56 OFFCURVE",
"549 251 CURVE SMOOTH",
"549 446 OFFCURVE",
"436 516 OFFCURVE",
"295 516 CURVE SMOOTH"
);
},
{
closed = 1;
nodes = (
"410 444 OFFCURVE",
"461 402 OFFCURVE",
"461 251 CURVE SMOOTH",
"461 100 OFFCURVE",
"410 58 OFFCURVE",
"295 58 CURVE SMOOTH",
"180 58 OFFCURVE",
"129 100 OFFCURVE",
"129 251 CURVE SMOOTH",
"129 402 OFFCURVE",
"180 444 OFFCURVE",
"295 444 CURVE SMOOTH"
);
}
);
};
layerId = "0225C979-6A3F-4323-834E-E3153ADD1AE8";
rightMetricsKey = "=|o";
name = Regular;
paths = (
{
closed = 1;
nodes = (
"154 516 OFFCURVE",
"41 446 OFFCURVE",
"41 251 CURVE SMOOTH",
"41 56 OFFCURVE",
"153 -14 OFFCURVE",
"295 -14 CURVE SMOOTH",
"437 -14 OFFCURVE",
"549 56 OFFCURVE",
"549 251 CURVE SMOOTH",
"549 446 OFFCURVE",
"436 516 OFFCURVE",
"295 516 CURVE SMOOTH"
);
},
{
closed = 1;
nodes = (
"410 444 OFFCURVE",
"461 402 OFFCURVE",
"461 251 CURVE SMOOTH",
"461 100 OFFCURVE",
"410 58 OFFCURVE",
"295 58 CURVE SMOOTH",
"180 58 OFFCURVE",
"129 100 OFFCURVE",
"129 251 CURVE SMOOTH",
"129 402 OFFCURVE",
"180 444 OFFCURVE",
"295 444 CURVE SMOOTH"
);
}
);
width = 590;
}
);
leftKerningGroup = o;
rightKerningGroup = o;
rightMetricsKey = "=|o";
unicode = 006F;
},
{
color = 4;
glyphname = oslash;
lastChange = "2015-01-31 05:52:20 +0000";
layers = (
{
background = {
anchors = (
{
name = top;
position = "{295, 502}";
}
);
guideLines = (
{
angle = 90;
position = "{539, 251}";
},
{
angle = 90;
position = "{51, 251}";
},
{
position = "{295, 536}";
},
{
position = "{295, -34}";
}
);
paths = (
{
closed = 1;
nodes = (
"154 516 OFFCURVE",
"41 446 OFFCURVE",
"41 251 CURVE SMOOTH",
"41 56 OFFCURVE",
"153 -14 OFFCURVE",
"295 -14 CURVE SMOOTH",
"437 -14 OFFCURVE",
"549 56 OFFCURVE",
"549 251 CURVE SMOOTH",
"549 446 OFFCURVE",
"436 516 OFFCURVE",
"295 516 CURVE SMOOTH"
);
},
{
closed = 1;
nodes = (
"410 444 OFFCURVE",
"461 402 OFFCURVE",
"461 251 CURVE SMOOTH",
"461 100 OFFCURVE",
"410 58 OFFCURVE",
"295 58 CURVE SMOOTH",
"180 58 OFFCURVE",
"129 100 OFFCURVE",
"129 251 CURVE SMOOTH",
"129 402 OFFCURVE",
"180 444 OFFCURVE",
"295 444 CURVE SMOOTH"
);
}
);
};
components = (
{
name = o;
transform = "{1, 0, 0, 1, 0, 0}";
}
);
guideLines = (
{
angle = 90;
position = "{539, 251}";
},
{
angle = 90;
position = "{51, 251}";
},
{
position = "{295, 536}";
},
{
position = "{295, -34}";
}
);
layerId = "0225C979-6A3F-4323-834E-E3153ADD1AE8";
name = Regular;
paths = (
{
closed = 1;
nodes = (
"452 536 LINE",
"51 -34 LINE",
"139 -34 LINE",
"539 536 LINE"
);
}
);
width = 590;
}
);
leftKerningGroup = o;
rightKerningGroup = o;
unicode = 00F8;
},
{
color = 4;
glyphname = oe;
lastChange = "2015-01-31 05:52:20 +0000";
layers = (
{
background = {
paths = (
{
closed = 1;
nodes = (
"410 444 OFFCURVE",
"461 402 OFFCURVE",
"461 251 CURVE SMOOTH",
"461 100 OFFCURVE",
"410 58 OFFCURVE",
"295 58 CURVE SMOOTH",
"180 58 OFFCURVE",
"129 100 OFFCURVE",
"129 251 CURVE SMOOTH",
"129 402 OFFCURVE",
"180 444 OFFCURVE",
"295 444 CURVE SMOOTH"
);
},
{
closed = 1;
nodes = (
"829 207 LINE",
"822 110 OFFCURVE",
"781 58 OFFCURVE",
"695 58 CURVE SMOOTH",
"596 58 OFFCURVE",
"553 102 OFFCURVE",
"545 207 CURVE"
);
},
{
closed = 1;
nodes = (
"472 477 OFFCURVE",
"411 516 OFFCURVE",
"295 516 CURVE SMOOTH",
"153 516 OFFCURVE",
"41 446 OFFCURVE",
"41 251 CURVE SMOOTH",
"41 56 OFFCURVE",
"154 -14 OFFCURVE",
"295 -14 CURVE SMOOTH",
"397 -14 OFFCURVE",
"465 17 OFFCURVE",
"498 88 CURVE",
"506 88 LINE",
"539 17 OFFCURVE",
"612 -14 OFFCURVE",
"699 -14 CURVE SMOOTH",
"821 -14 OFFCURVE",
"917 63 OFFCURVE",
"917 238 CURVE SMOOTH",
"917 278 LINE",
"545 278 LINE",
"554 411 OFFCURVE",
"601 444 OFFCURVE",
"720 444 CURVE SMOOTH",
"776 444 OFFCURVE",
"830 439 OFFCURVE",
"899 421 CURVE",
"899 493 LINE",
"851 506 OFFCURVE",
"780 516 OFFCURVE",
"718 516 CURVE SMOOTH",
"613 516 OFFCURVE",
"532 489 OFFCURVE",
"495 404 CURVE",
"502 404 LINE"
);
}
);
};
layerId = "0225C979-6A3F-4323-834E-E3153ADD1AE8";
name = Regular;
paths = (
{
closed = 1;
nodes = (
"180 58 OFFCURVE",
"129 100 OFFCURVE",
"129 251 CURVE SMOOTH",
"129 402 OFFCURVE",
"180 444 OFFCURVE",
"295 444 CURVE SMOOTH",
"410 444 OFFCURVE",
"461 402 OFFCURVE",
"461 251 CURVE SMOOTH",
"461 100 OFFCURVE",
"410 58 OFFCURVE",
"295 58 CURVE SMOOTH"
);
},
{
closed = 1;
nodes = (
"553 400 OFFCURVE",
"596 444 OFFCURVE",
"695 444 CURVE SMOOTH",
"781 444 OFFCURVE",
"822 392 OFFCURVE",
"829 295 CURVE",
"545 295 LINE"
);
},
{
closed = 1;
nodes = (
"495 98 LINE",
"532 13 OFFCURVE",
"613 -14 OFFCURVE",
"718 -14 CURVE SMOOTH",
"780 -14 OFFCURVE",
"851 -4 OFFCURVE",
"899 9 CURVE",
"899 81 LINE",
"830 63 OFFCURVE",
"776 58 OFFCURVE",
"720 58 CURVE SMOOTH",
"601 58 OFFCURVE",
"554 91 OFFCURVE",
"545 224 CURVE",
"917 224 LINE",
"917 264 LINE SMOOTH",
"917 439 OFFCURVE",
"821 516 OFFCURVE",
"699 516 CURVE SMOOTH",
"607 516 OFFCURVE",
"530 483 OFFCURVE",
"495 404 CURVE",
"502 404 LINE",
"468 486 OFFCURVE",
"400 516 OFFCURVE",
"295 516 CURVE SMOOTH",
"154 516 OFFCURVE",
"41 446 OFFCURVE",
"41 251 CURVE SMOOTH",
"41 56 OFFCURVE",
"153 -14 OFFCURVE",
"295 -14 CURVE SMOOTH",
"411 -14 OFFCURVE",
"472 25 OFFCURVE",
"502 98 CURVE"
);
}
);
width = 948;
}
);
leftKerningGroup = o;
leftMetricsKey = o;
rightKerningGroup = o;
rightMetricsKey = e;
unicode = 0153;
},
{
color = 4;
glyphname = p;
lastChange = "2015-01-31 05:52:20 +0000";
layers = (
{
background = {
paths = (
{
closed = 1;
nodes = (
"308 516 OFFCURVE",
"246 499 OFFCURVE",
"169 449 CURVE",
"183 446 LINE",
"147 502 LINE",
"36 502 LINE",
"36 445 LINE",
"104 417 LINE",
"104 -139 LINE",
"36 -169 LINE",
"36 -224 LINE",
"266 -224 LINE",
"266 -169 LINE",
"188 -139 LINE",
"188 90 LINE",
"165 90 LINE",
"224 21 OFFCURVE",
"289 -10 OFFCURVE",
"380 -10 CURVE SMOOTH",
"510 -10 OFFCURVE",
"579 47 OFFCURVE",
"579 249 CURVE SMOOTH",
"579 446 OFFCURVE",
"497 516 OFFCURVE",
"371 516 CURVE SMOOTH"
);
},
{
closed = 1;
nodes = (
"454 443 OFFCURVE",
"491 374 OFFCURVE",
"491 241 CURVE SMOOTH",
"491 101 OFFCURVE",
"450 63 OFFCURVE",
"363 63 CURVE SMOOTH",
"297 63 OFFCURVE",
"241 86 OFFCURVE",
"188 128 CURVE",
"188 402 LINE",
"252 425 OFFCURVE",
"299 443 OFFCURVE",
"351 443 CURVE SMOOTH"
);
}
);
};
layerId = "0225C979-6A3F-4323-834E-E3153ADD1AE8";
name = Regular;
paths = (
{
closed = 1;
nodes = (
"308 516 OFFCURVE",
"246 499 OFFCURVE",
"169 449 CURVE",
"183 446 LINE",
"147 502 LINE",
"36 502 LINE",
"36 445 LINE",
"104 417 LINE",
"104 -139 LINE",
"36 -169 LINE",
"36 -224 LINE",
"266 -224 LINE",
"266 -169 LINE",
"188 -139 LINE",
"188 90 LINE",
"165 90 LINE",
"224 21 OFFCURVE",
"289 -10 OFFCURVE",
"380 -10 CURVE SMOOTH",
"510 -10 OFFCURVE",
"579 47 OFFCURVE",
"579 249 CURVE SMOOTH",
"579 446 OFFCURVE",
"497 516 OFFCURVE",
"371 516 CURVE SMOOTH"
);
},
{
closed = 1;
nodes = (
"454 443 OFFCURVE",
"491 374 OFFCURVE",
"491 241 CURVE SMOOTH",
"491 101 OFFCURVE",
"450 63 OFFCURVE",
"363 63 CURVE SMOOTH",
"297 63 OFFCURVE",
"241 86 OFFCURVE",
"188 128 CURVE",
"188 402 LINE",
"252 425 OFFCURVE",
"299 443 OFFCURVE",
"351 443 CURVE SMOOTH"
);
}
);
width = 625;
}
);
leftKerningGroup = n;
leftMetricsKey = "=b";
rightKerningGroup = o;
rightMetricsKey = "=o+5";
unicode = 0070;
},
{
color = 4;
glyphname = thorn;
lastChange = "2015-01-31 05:52:20 +0000";
layers = (
{
background = {
paths = (
{
closed = 1;
nodes = (
"36 710 LINE",
"36 653 LINE",
"104 625 LINE",
"104 -139 LINE",
"36 -169 LINE",
"36 -224 LINE",
"266 -224 LINE",
"266 -169 LINE",
"188 -139 LINE",
"188 90 LINE",
"165 90 LINE",
"224 21 OFFCURVE",
"289 -10 OFFCURVE",
"380 -10 CURVE SMOOTH",
"510 -10 OFFCURVE",
"579 47 OFFCURVE",
"579 249 CURVE SMOOTH",
"579 446 OFFCURVE",
"497 516 OFFCURVE",
"371 516 CURVE SMOOTH",
"308 516 OFFCURVE",
"246 499 OFFCURVE",
"169 449 CURVE",
"188 449 LINE",
"188 710 LINE"
);
},
{
closed = 1;
nodes = (
"454 443 OFFCURVE",
"491 374 OFFCURVE",
"491 241 CURVE SMOOTH",
"491 101 OFFCURVE",
"450 63 OFFCURVE",
"363 63 CURVE SMOOTH",
"297 63 OFFCURVE",
"241 86 OFFCURVE",
"188 128 CURVE",
"188 402 LINE",
"252 425 OFFCURVE",
"299 443 OFFCURVE",
"351 443 CURVE SMOOTH"
);
}
);
};
guideLines = (
{
angle = 90;
position = "{188, 452}";
}
);
layerId = "0225C979-6A3F-4323-834E-E3153ADD1AE8";
rightMetricsKey = "=p";
name = Regular;
paths = (
{
closed = 1;
nodes = (
"36 710 LINE",
"36 653 LINE",
"104 625 LINE",
"104 -139 LINE",
"36 -169 LINE",
"36 -224 LINE",
"266 -224 LINE",
"266 -169 LINE",
"188 -139 LINE",
"188 90 LINE",
"165 90 LINE",
"224 21 OFFCURVE",
"289 -10 OFFCURVE",
"380 -10 CURVE SMOOTH",
"510 -10 OFFCURVE",
"579 47 OFFCURVE",
"579 249 CURVE SMOOTH",
"579 446 OFFCURVE",
"497 516 OFFCURVE",
"371 516 CURVE SMOOTH",
"308 516 OFFCURVE",
"246 499 OFFCURVE",
"169 449 CURVE",
"188 449 LINE",
"188 710 LINE"
);
},
{
closed = 1;
nodes = (
"454 443 OFFCURVE",
"491 374 OFFCURVE",
"491 241 CURVE SMOOTH",
"491 101 OFFCURVE",
"450 63 OFFCURVE",
"363 63 CURVE SMOOTH",
"297 63 OFFCURVE",
"241 86 OFFCURVE",
"188 128 CURVE",
"188 402 LINE",
"252 425 OFFCURVE",
"299 443 OFFCURVE",
"351 443 CURVE SMOOTH"
);
}
);
width = 625;
}
);
leftKerningGroup = h;
leftMetricsKey = "=b";
rightKerningGroup = o;
rightMetricsKey = "=o+4";
unicode = 00FE;
},
{
color = 4;
glyphname = q;
lastChange = "2015-01-31 05:52:20 +0000";
layers = (
{
background = {
paths = (
{
closed = 1;
nodes = (
"128 516 OFFCURVE",
"46 446 OFFCURVE",
"46 249 CURVE SMOOTH",
"46 47 OFFCURVE",
"115 -10 OFFCURVE",
"245 -10 CURVE SMOOTH",
"336 -10 OFFCURVE",
"401 21 OFFCURVE",
"460 90 CURVE",
"437 90 LINE",
"437 -139 LINE",
"359 -169 LINE",
"359 -224 LINE",
"589 -224 LINE",
"589 -169 LINE",
"521 -139 LINE",
"521 502 LINE",
"478 502 LINE",
"442 446 LINE",
"461 446 LINE",
"378 500 OFFCURVE",
"317 516 OFFCURVE",
"254 516 CURVE SMOOTH"
);
},
{
closed = 1;
nodes = (
"326 443 OFFCURVE",
"373 425 OFFCURVE",
"437 402 CURVE",
"437 128 LINE",
"384 86 OFFCURVE",
"328 63 OFFCURVE",
"262 63 CURVE SMOOTH",
"175 63 OFFCURVE",
"134 101 OFFCURVE",
"134 241 CURVE SMOOTH",
"134 374 OFFCURVE",
"171 443 OFFCURVE",
"274 443 CURVE SMOOTH"
);
}
);
};
layerId = "0225C979-6A3F-4323-834E-E3153ADD1AE8";
name = Regular;
paths = (
{
closed = 1;
nodes = (
"128 516 OFFCURVE",
"46 446 OFFCURVE",
"46 249 CURVE SMOOTH",
"46 47 OFFCURVE",
"115 -10 OFFCURVE",
"245 -10 CURVE SMOOTH",
"336 -10 OFFCURVE",
"401 21 OFFCURVE",
"460 90 CURVE",
"437 90 LINE",
"437 -139 LINE",
"359 -169 LINE",
"359 -224 LINE",
"589 -224 LINE",
"589 -169 LINE",
"521 -139 LINE",
"521 502 LINE",
"478 502 LINE",
"442 446 LINE",
"461 446 LINE",
"378 500 OFFCURVE",
"317 516 OFFCURVE",
"254 516 CURVE SMOOTH"
);
},
{
closed = 1;
nodes = (
"326 443 OFFCURVE",
"373 425 OFFCURVE",
"437 402 CURVE",
"437 128 LINE",
"384 86 OFFCURVE",
"328 63 OFFCURVE",
"262 63 CURVE SMOOTH",
"175 63 OFFCURVE",
"134 101 OFFCURVE",
"134 241 CURVE SMOOTH",
"134 374 OFFCURVE",
"171 443 OFFCURVE",
"274 443 CURVE SMOOTH"
);
}
);
width = 624;
}
);
leftKerningGroup = o;
leftMetricsKey = "=o+5";
rightKerningGroup = n;
unicode = 0071;
},
{
color = 4;
glyphname = r;
lastChange = "2015-01-31 05:52:20 +0000";
layers = (
{
anchors = (
{
name = bottom;
position = "{156, 0}";
},
{
name = top;
position = "{233, 502}";
}
);
background = {
hints = (
{
place = "{0.000000, 0.000000}";
}
);
paths = (
{
closed = 1;
nodes = (
"307 518 OFFCURVE",
"242 495 OFFCURVE",
"171 417 CURVE",
"214 412 LINE",
"157 502 LINE",
"46 502 LINE",
"46 445 LINE",
"114 417 LINE",
"114 85 LINE",
"46 55 LINE",
"46 0 LINE",
"276 0 LINE",
"276 55 LINE",
"198 85 LINE",
"198 375 LINE",
"237 407 OFFCURVE",
"275 430 OFFCURVE",
"320 450 CURVE",
"308 453 LINE",
"345 394 LINE",
"393 394 OFFCURVE",
"419 412 OFFCURVE",
"419 458 CURVE SMOOTH",
"419 499 OFFCURVE",
"401 518 OFFCURVE",
"360 518 CURVE SMOOTH"
);
}
);
};
guideLines = (
{
angle = 90;
position = "{267, 85}";
}
);
layerId = "0225C979-6A3F-4323-834E-E3153ADD1AE8";
name = Regular;
paths = (
{
closed = 1;
nodes = (
"307 518 OFFCURVE",
"242 495 OFFCURVE",
"171 417 CURVE",
"214 412 LINE",
"157 502 LINE",
"46 502 LINE",
"46 445 LINE",
"114 417 LINE",
"114 85 LINE",
"46 55 LINE",
"46 0 LINE",
"276 0 LINE",
"276 55 LINE",
"198 85 LINE",
"198 375 LINE",
"237 407 OFFCURVE",
"275 430 OFFCURVE",
"320 450 CURVE",
"308 453 LINE",
"345 394 LINE",
"393 394 OFFCURVE",
"419 412 OFFCURVE",
"419 458 CURVE SMOOTH",
"419 499 OFFCURVE",
"401 518 OFFCURVE",
"360 518 CURVE SMOOTH"
);
}
);
width = 444;
}
);
leftKerningGroup = n;
leftMetricsKey = h;
rightKerningGroup = r;
unicode = 0072;
},
{
color = 4;
glyphname = s;
lastChange = "2015-01-31 05:52:20 +0000";
layers = (
{
anchors = (
{
name = bottom;
position = "{263, 0}";
},
{
name = top;
position = "{263, 502}";
}
);
background = {
paths = (
{
closed = 1;
nodes = (
"84 516 OFFCURVE",
"37 471 OFFCURVE",
"37 366 CURVE SMOOTH",
"37 268 OFFCURVE",
"77 241 OFFCURVE",
"213 216 CURVE SMOOTH",
"354 190 OFFCURVE",
"402 198 OFFCURVE",
"402 130 CURVE SMOOTH",
"402 73 OFFCURVE",
"375 56 OFFCURVE",
"252 56 CURVE SMOOTH",
"194 56 OFFCURVE",
"162 59 OFFCURVE",
"105 70 CURVE",
"143 31 LINE",
"103 150 LINE",
"43 150 LINE",
"43 6 LINE",
"126 -8 OFFCURVE",
"179 -14 OFFCURVE",
"249 -14 CURVE SMOOTH",
"440 -14 OFFCURVE",
"490 34 OFFCURVE",
"490 142 CURVE SMOOTH",
"490 228 OFFCURVE",
"464 259 OFFCURVE",
"326 284 CURVE SMOOTH",
"167 313 OFFCURVE",
"125 311 OFFCURVE",
"125 374 CURVE SMOOTH",
"125 427 OFFCURVE",
"151 446 OFFCURVE",
"259 446 CURVE SMOOTH",
"320 446 OFFCURVE",
"357 441 OFFCURVE",
"410 431 CURVE",
"373 476 LINE",
"414 357 LINE",
"472 357 LINE",
"472 496 LINE",
"389 510 OFFCURVE",
"330 516 OFFCURVE",
"263 516 CURVE SMOOTH"
);
}
);
};
layerId = "0225C979-6A3F-4323-834E-E3153ADD1AE8";
name = Regular;
paths = (
{
closed = 1;
nodes = (
"87 516 OFFCURVE",
"40 471 OFFCURVE",
"40 366 CURVE SMOOTH",
"40 268 OFFCURVE",
"76 241 OFFCURVE",
"212 216 CURVE SMOOTH",
"353 190 OFFCURVE",
"398 198 OFFCURVE",
"398 130 CURVE SMOOTH",
"398 73 OFFCURVE",
"374 56 OFFCURVE",
"251 56 CURVE SMOOTH",
"197 56 OFFCURVE",
"165 59 OFFCURVE",
"108 70 CURVE",
"146 31 LINE",
"106 150 LINE",
"46 150 LINE",
"46 6 LINE",
"129 -8 OFFCURVE",
"182 -14 OFFCURVE",
"248 -14 CURVE SMOOTH",
"439 -14 OFFCURVE",
"486 34 OFFCURVE",
"486 142 CURVE SMOOTH",
"486 228 OFFCURVE",
"463 259 OFFCURVE",
"325 284 CURVE SMOOTH",
"166 313 OFFCURVE",
"128 311 OFFCURVE",
"128 374 CURVE SMOOTH",
"128 427 OFFCURVE",
"154 446 OFFCURVE",
"258 446 CURVE SMOOTH",
"316 446 OFFCURVE",
"353 441 OFFCURVE",
"406 431 CURVE",
"369 476 LINE",
"410 357 LINE",
"468 357 LINE",
"468 496 LINE",
"385 510 OFFCURVE",
"326 516 OFFCURVE",
"262 516 CURVE SMOOTH"
);
}
);
width = 526;
}
);
leftKerningGroup = s;
rightKerningGroup = s;
unicode = 0073;
},
{
color = 4;
glyphname = germandbls;
lastChange = "2015-01-31 05:52:20 +0000";
layers = (
{
background = {
paths = (
{
closed = 1;
nodes = (
"191 718 OFFCURVE",
"114 650 OFFCURVE",
"114 522 CURVE SMOOTH",
"114 502 LINE",
"46 488 LINE",
"46 430 LINE",
"114 430 LINE",
"114 85 LINE",
"46 55 LINE",
"46 0 LINE",
"198 0 LINE",
"198 520 LINE SMOOTH",
"198 609 OFFCURVE",
"232 646 OFFCURVE",
"314 646 CURVE SMOOTH",
"384 646 OFFCURVE",
"412 619 OFFCURVE",
"412 550 CURVE SMOOTH",
"412 471 OFFCURVE",
"375 437 OFFCURVE",
"289 437 CURVE",
"289 365 LINE",
"294 365 LINE SMOOTH",
"418 365 OFFCURVE",
"472 322 OFFCURVE",
"472 217 CURVE SMOOTH",
"472 116 OFFCURVE",
"426 74 OFFCURVE",
"309 74 CURVE SMOOTH",
"289 74 LINE",
"289 0 LINE",
"319 0 LINE SMOOTH",
"476 0 OFFCURVE",
"560 79 OFFCURVE",
"560 217 CURVE SMOOTH",
"560 333 OFFCURVE",
"500 409 OFFCURVE",
"391 418 CURVE",
"391 420 LINE",
"456 434 OFFCURVE",
"494 484 OFFCURVE",
"494 561 CURVE SMOOTH",
"494 660 OFFCURVE",
"433 718 OFFCURVE",
"317 718 CURVE SMOOTH"
);
}
);
};
layerId = "0225C979-6A3F-4323-834E-E3153ADD1AE8";
name = Regular;
paths = (
{
closed = 1;
nodes = (
"191 718 OFFCURVE",
"114 650 OFFCURVE",
"114 522 CURVE SMOOTH",
"114 502 LINE",
"46 488 LINE",
"46 430 LINE",
"114 430 LINE",
"114 85 LINE",
"46 55 LINE",
"46 0 LINE",
"198 0 LINE",
"198 520 LINE SMOOTH",
"198 609 OFFCURVE",
"232 646 OFFCURVE",
"314 646 CURVE SMOOTH",
"384 646 OFFCURVE",
"412 619 OFFCURVE",
"412 550 CURVE SMOOTH",
"412 471 OFFCURVE",
"375 437 OFFCURVE",
"289 437 CURVE",
"289 365 LINE",
"309 365 LINE SMOOTH",
"431 365 OFFCURVE",
"472 323 OFFCURVE",
"472 217 CURVE SMOOTH",
"472 113 OFFCURVE",
"432 74 OFFCURVE",
"329 74 CURVE SMOOTH",
"289 74 LINE",
"289 0 LINE",
"344 0 LINE SMOOTH",
"489 0 OFFCURVE",
"560 77 OFFCURVE",
"560 220 CURVE SMOOTH",
"560 332 OFFCURVE",
"516 408 OFFCURVE",
"391 418 CURVE",
"391 420 LINE",
"456 434 OFFCURVE",
"494 484 OFFCURVE",
"494 561 CURVE SMOOTH",
"494 660 OFFCURVE",
"433 718 OFFCURVE",
"317 718 CURVE SMOOTH"
);
}
);
width = 590;
}
);
leftKerningGroup = f;
leftMetricsKey = n;
unicode = 00DF;
},
{
color = 4;
glyphname = t;
lastChange = "2015-01-31 05:52:20 +0000";
layers = (
{
anchors = (
{
name = bottom;
position = "{208, 0}";
},
{
name = center;
position = "{181, 251}";
},
{
name = topright;
position = "{270, 502}";
}
);
background = {
paths = (
{
closed = 1;
nodes = (
"311 -4 LINE",
"294 -7 OFFCURVE",
"275 -8 OFFCURVE",
"248 -8 CURVE SMOOTH",
"146 -8 OFFCURVE",
"104 31 OFFCURVE",
"104 125 CURVE SMOOTH",
"104 432 LINE",
"36 432 LINE",
"36 488 LINE",
"104 502 LINE",
"134 647 LINE",
"188 647 LINE",
"188 502 LINE",
"311 502 LINE",
"311 432 LINE",
"188 432 LINE",
"188 123 LINE SMOOTH",
"188 79 OFFCURVE",
"205 64 OFFCURVE",
"265 64 CURVE SMOOTH",
"283 64 OFFCURVE",
"297 64 OFFCURVE",
"311 66 CURVE"
);
}
);
};
layerId = "0225C979-6A3F-4323-834E-E3153ADD1AE8";
leftMetricsKey = "=n-10";
name = Regular;
paths = (
{
closed = 1;
nodes = (
"275 -8 OFFCURVE",
"294 -7 OFFCURVE",
"311 -4 CURVE",
"311 66 LINE",
"297 64 OFFCURVE",
"283 64 OFFCURVE",
"265 64 CURVE SMOOTH",
"205 64 OFFCURVE",
"188 79 OFFCURVE",
"188 123 CURVE SMOOTH",
"188 432 LINE",
"311 432 LINE",
"311 502 LINE",
"188 502 LINE",
"188 647 LINE",
"134 647 LINE",
"104 502 LINE",
"36 488 LINE",
"36 432 LINE",
"104 432 LINE",
"104 125 LINE SMOOTH",
"104 31 OFFCURVE",
"146 -8 OFFCURVE",
"248 -8 CURVE SMOOTH"
);
}
);
width = 361;
}
);
leftKerningGroup = t;
leftMetricsKey = "=f-5";
rightKerningGroup = t;
unicode = 0074;
},
{
color = 4;
glyphname = u;
lastChange = "2015-01-31 05:52:20 +0000";
layers = (
{
anchors = (
{
name = ogonek;
position = "{525, 10}";
},
{
name = top;
position = "{322, 502}";
}
);
background = {
paths = (
{
closed = 1;
nodes = (
"393 502 LINE",
"393 447 LINE",
"461 419 LINE",
"461 100 LINE",
"391 75 OFFCURVE",
"346 59 OFFCURVE",
"295 59 CURVE SMOOTH",
"224 59 OFFCURVE",
"183 90 OFFCURVE",
"183 171 CURVE SMOOTH",
"183 502 LINE",
"31 502 LINE",
"31 447 LINE",
"99 417 LINE",
"99 182 LINE SMOOTH",
"99 40 OFFCURVE",
"141 -14 OFFCURVE",
"268 -14 CURVE SMOOTH",
"342 -14 OFFCURVE",
"411 5 OFFCURVE",
"504 56 CURVE",
"466 56 LINE",
"502 0 LINE",
"613 0 LINE",
"613 57 LINE",
"545 85 LINE",
"545 502 LINE"
);
}
);
};
layerId = "0225C979-6A3F-4323-834E-E3153ADD1AE8";
rightMetricsKey = "=n";
name = Regular;
paths = (
{
closed = 1;
nodes = (
"393 502 LINE",
"393 447 LINE",
"461 419 LINE",
"461 100 LINE",
"391 75 OFFCURVE",
"346 59 OFFCURVE",
"295 59 CURVE SMOOTH",
"224 59 OFFCURVE",
"183 90 OFFCURVE",
"183 171 CURVE SMOOTH",
"183 502 LINE",
"31 502 LINE",
"31 447 LINE",
"99 417 LINE",
"99 182 LINE SMOOTH",
"99 40 OFFCURVE",
"141 -14 OFFCURVE",
"268 -14 CURVE SMOOTH",
"342 -14 OFFCURVE",
"411 5 OFFCURVE",
"504 56 CURVE",
"466 56 LINE",
"502 0 LINE",
"613 0 LINE",
"613 57 LINE",
"545 85 LINE",
"545 502 LINE"
);
}
);
width = 648;
}
);
leftKerningGroup = u;
leftMetricsKey = "=n-15";
rightKerningGroup = u;
rightMetricsKey = i;
unicode = 0075;
},
{
color = 4;
glyphname = v;
lastChange = "2015-01-31 05:52:20 +0000";
layers = (
{
background = {
paths = (
{
closed = 1;
nodes = (
"579 502 LINE",
"378 502 LINE",
"378 446 LINE",
"446 419 LINE",
"288 38 LINE",
"318 38 LINE",
"160 419 LINE",
"228 446 LINE",
"228 502 LINE",
"10 502 LINE",
"10 446 LINE",
"68 418 LINE",
"247 0 LINE",
"343 0 LINE",
"521 418 LINE",
"579 446 LINE"
);
}
);
};
guideLines = (
{
angle = 22.5237;
position = "{181, 415}";
showMeasurement = 1;
},
{
angle = 157.476;
position = "{373, 441}";
showMeasurement = 1;
}
);
layerId = "0225C979-6A3F-4323-834E-E3153ADD1AE8";
name = Regular;
paths = (
{
closed = 1;
nodes = (
"579 502 LINE",
"378 502 LINE",
"378 446 LINE",
"446 419 LINE",
"288 38 LINE",
"318 38 LINE",
"160 419 LINE",
"228 446 LINE",
"228 502 LINE",
"10 502 LINE",
"10 446 LINE",
"68 418 LINE",
"247 0 LINE",
"343 0 LINE",
"521 418 LINE",
"579 446 LINE"
);
}
);
width = 589;
}
);
leftKerningGroup = v;
rightKerningGroup = v;
unicode = 0076;
},
{
color = 4;
glyphname = w;
lastChange = "2015-01-31 05:52:20 +0000";
layers = (
{
anchors = (
{
name = top;
position = "{421, 502}";
}
);
background = {
paths = (
{
closed = 1;
nodes = (
"623 502 LINE",
"623 445 LINE",
"691 417 LINE",
"580 67 LINE",
"594 67 LINE",
"476 468 LINE",
"379 468 LINE",
"261 65 LINE",
"275 65 LINE",
"165 417 LINE",
"233 445 LINE",
"233 502 LINE",
"20 502 LINE",
"20 445 LINE",
"78 417 LINE",
"212 0 LINE",
"314 0 LINE",
"441 432 LINE",
"401 432 LINE",
"528 0 LINE",
"630 0 LINE",
"764 417 LINE",
"822 445 LINE",
"822 502 LINE"
);
}
);
};
layerId = "0225C979-6A3F-4323-834E-E3153ADD1AE8";
name = Regular;
paths = (
{
closed = 1;
nodes = (
"633 502 LINE",
"633 445 LINE",
"701 417 LINE",
"585 67 LINE",
"599 67 LINE",
"471 468 LINE",
"384 468 LINE",
"256 65 LINE",
"270 65 LINE",
"155 417 LINE",
"223 445 LINE",
"223 502 LINE",
"10 502 LINE",
"10 445 LINE",
"68 417 LINE",
"207 0 LINE",
"309 0 LINE",
"446 432 LINE",
"396 432 LINE",
"533 0 LINE",
"635 0 LINE",
"774 417 LINE",
"832 445 LINE",
"832 502 LINE"
);
}
);
width = 842;
}
);
leftKerningGroup = v;
rightKerningGroup = v;
unicode = 0077;
},
{
color = 4;
glyphname = x;
lastChange = "2015-01-31 03:23:06 +0000";
layers = (
{
background = {
guideLines = (
{
angle = 134.375;
position = "{503, 357}";
showMeasurement = 1;
}
);
paths = (
{
closed = 1;
nodes = (
"23 502 LINE",
"23 445 LINE",
"81 417 LINE",
"435 85 LINE",
"377 55 LINE",
"377 0 LINE",
"609 0 LINE",
"609 55 LINE",
"549 85 LINE",
"196 417 LINE",
"254 445 LINE",
"254 502 LINE"
);
},
{
closed = 1;
nodes = (
"83 85 LINE",
"23 55 LINE",
"23 0 LINE",
"241 0 LINE",
"241 55 LINE",
"183 85 LINE",
"317 216 LINE",
"270 260 LINE"
);
},
{
closed = 1;
nodes = (
"393 502 LINE",
"393 445 LINE",
"451 417 LINE",
"315 286 LINE",
"361 241 LINE",
"551 417 LINE",
"609 445 LINE",
"609 502 LINE"
);
}
);
};
layerId = "0225C979-6A3F-4323-834E-E3153ADD1AE8";
name = Regular;
paths = (
{
closed = 1;
nodes = (
"25 502 LINE",
"25 445 LINE",
"83 417 LINE",
"437 85 LINE",
"379 55 LINE",
"379 0 LINE",
"607 0 LINE",
"607 55 LINE",
"547 85 LINE",
"194 417 LINE",
"252 445 LINE",
"252 502 LINE"
);
},
{
closed = 1;
nodes = (
"85 85 LINE",
"25 55 LINE",
"25 0 LINE",
"243 0 LINE",
"243 55 LINE",
"185 85 LINE",
"316 216 LINE",
"272 260 LINE"
);
},
{
closed = 1;
nodes = (
"391 502 LINE",
"391 445 LINE",
"449 417 LINE",
"316 286 LINE",
"359 241 LINE",
"549 417 LINE",
"607 445 LINE",
"607 502 LINE"
);
}
);
width = 632;
}
);
unicode = 0078;
},
{
color = 4;
glyphname = y;
lastChange = "2015-01-31 05:52:20 +0000";
layers = (
{
anchors = (
{
name = top;
position = "{329, 502}";
}
);
background = {
paths = (
{
closed = 1;
nodes = (
"389 502 LINE",
"389 446 LINE",
"470 419 LINE",
"303 38 LINE",
"354 38 LINE",
"184 419 LINE",
"265 446 LINE",
"265 502 LINE",
"10 502 LINE",
"10 446 LINE",
"92 418 LINE",
"304 -45 LINE",
"294 22 LINE",
"223 -138 OFFCURVE",
"197 -153 OFFCURVE",
"124 -153 CURVE SMOOTH",
"101 -153 OFFCURVE",
"76 -152 OFFCURVE",
"51 -150 CURVE",
"51 -224 LINE",
"71 -224 LINE SMOOTH",
"219 -224 OFFCURVE",
"275 -185 OFFCURVE",
"324 -75 CURVE SMOOTH",
"545 418 LINE",
"627 446 LINE",
"627 502 LINE"
);
}
);
};
layerId = "0225C979-6A3F-4323-834E-E3153ADD1AE8";
leftMetricsKey = "=v";
rightMetricsKey = "=v";
name = Regular;
paths = (
{
closed = 1;
nodes = (
"389 502 LINE",
"389 446 LINE",
"470 419 LINE",
"303 38 LINE",
"354 38 LINE",
"184 419 LINE",
"265 446 LINE",
"265 502 LINE",
"10 502 LINE",
"10 446 LINE",
"92 418 LINE",
"304 -45 LINE",
"294 22 LINE",
"223 -138 OFFCURVE",
"197 -153 OFFCURVE",
"124 -153 CURVE SMOOTH",
"101 -153 OFFCURVE",
"76 -152 OFFCURVE",
"51 -150 CURVE",
"51 -224 LINE",
"71 -224 LINE SMOOTH",
"219 -224 OFFCURVE",
"275 -185 OFFCURVE",
"324 -75 CURVE SMOOTH",
"545 418 LINE",
"627 446 LINE",
"627 502 LINE"
);
}
);
width = 637;
}
);
leftKerningGroup = v;
leftMetricsKey = v;
rightKerningGroup = v;
rightMetricsKey = v;
unicode = 0079;
},
{
color = 4;
glyphname = z;
lastChange = "2015-01-31 05:52:20 +0000";
layers = (
{
anchors = (
{
name = top;
position = "{290, 502}";
}
);
background = {
paths = (
{
closed = 1;
nodes = (
"53 502 LINE",
"53 347 LINE",
"105 347 LINE",
"126 432 LINE",
"431 432 LINE",
"431 442 LINE",
"50 77 LINE",
"50 0 LINE",
"533 0 LINE",
"533 155 LINE",
"481 155 LINE",
"462 70 LINE",
"145 70 LINE",
"145 60 LINE",
"526 425 LINE",
"526 502 LINE"
);
}
);
};
layerId = "0225C979-6A3F-4323-834E-E3153ADD1AE8";
name = Regular;
paths = (
{
closed = 1;
nodes = (
"53 502 LINE",
"53 347 LINE",
"105 347 LINE",
"126 432 LINE",
"431 432 LINE",
"431 442 LINE",
"50 77 LINE",
"50 0 LINE",
"533 0 LINE",
"533 155 LINE",
"481 155 LINE",
"462 70 LINE",
"145 70 LINE",
"145 60 LINE",
"526 425 LINE",
"526 502 LINE"
);
}
);
width = 583;
}
);
leftKerningGroup = z;
rightKerningGroup = z;
unicode = 007A;
},
{
color = 4;
glyphname = f_f;
lastChange = "2015-01-31 05:52:20 +0000";
layers = (
{
background = {
paths = (
{
closed = 0;
nodes = (
"457 85 LINE",
"389 55 LINE",
"389 0 LINE",
"609 0 LINE",
"609 55 LINE",
"541 85 LINE"
);
}
);
};
layerId = "0225C979-6A3F-4323-834E-E3153ADD1AE8";
name = Regular;
paths = (
{
closed = 1;
nodes = (
"291 0 LINE",
"291 55 LINE",
"198 85 LINE",
"198 432 LINE",
"466 432 LINE",
"466 85 LINE",
"398 55 LINE",
"398 0 LINE",
"643 0 LINE",
"643 55 LINE",
"550 85 LINE",
"550 432 LINE",
"643 432 LINE",
"643 502 LINE",
"550 502 LINE",
"550 576 LINE SMOOTH",
"550 625 OFFCURVE",
"574 656 OFFCURVE",
"631 656 CURVE",
"658 597 LINE",
"710 597 OFFCURVE",
"729 616 OFFCURVE",
"729 651 CURVE SMOOTH",
"729 697 OFFCURVE",
"704 718 OFFCURVE",
"642 718 CURVE SMOOTH",
"529 718 OFFCURVE",
"466 664 OFFCURVE",
"466 550 CURVE SMOOTH",
"466 502 LINE",
"198 502 LINE",
"198 576 LINE SMOOTH",
"198 625 OFFCURVE",
"222 656 OFFCURVE",
"279 656 CURVE",
"306 597 LINE",
"358 597 OFFCURVE",
"377 616 OFFCURVE",
"377 651 CURVE SMOOTH",
"377 697 OFFCURVE",
"352 718 OFFCURVE",
"290 718 CURVE SMOOTH",
"177 718 OFFCURVE",
"114 664 OFFCURVE",
"114 550 CURVE SMOOTH",
"114 502 LINE",
"46 488 LINE",
"46 432 LINE",
"114 432 LINE",
"114 85 LINE",
"46 55 LINE",
"46 0 LINE"
);
}
);
width = 694;
}
);
leftKerningGroup = f;
leftMetricsKey = f;
rightKerningGroup = f;
rightMetricsKey = f;
},
{
color = 4;
glyphname = f_f_i;
lastChange = "2015-01-31 05:52:20 +0000";
layers = (
{
background = {
paths = (
{
closed = 1;
nodes = (
"529 718 OFFCURVE",
"466 664 OFFCURVE",
"466 550 CURVE SMOOTH",
"466 502 LINE",
"398 488 LINE",
"398 432 LINE",
"466 432 LINE",
"466 85 LINE",
"398 55 LINE",
"398 0 LINE",
"643 0 LINE",
"643 55 LINE",
"550 85 LINE",
"550 432 LINE",
"643 432 LINE",
"643 502 LINE",
"550 502 LINE",
"550 576 LINE SMOOTH",
"550 625 OFFCURVE",
"574 656 OFFCURVE",
"631 656 CURVE",
"658 597 LINE",
"710 597 OFFCURVE",
"729 616 OFFCURVE",
"729 651 CURVE SMOOTH",
"729 697 OFFCURVE",
"704 718 OFFCURVE",
"642 718 CURVE SMOOTH"
);
}
);
};
layerId = "0225C979-6A3F-4323-834E-E3153ADD1AE8";
name = Regular;
paths = (
{
closed = 1;
nodes = (
"291 0 LINE",
"291 55 LINE",
"198 85 LINE",
"198 432 LINE",
"466 432 LINE",
"466 85 LINE",
"398 55 LINE",
"398 0 LINE",
"643 0 LINE",
"643 55 LINE",
"550 85 LINE",
"550 432 LINE",
"818 432 LINE",
"818 85 LINE",
"750 55 LINE",
"750 0 LINE",
"995 0 LINE",
"995 55 LINE",
"902 85 LINE",
"902 502 LINE",
"550 502 LINE",
"550 536 LINE SMOOTH",
"550 628 OFFCURVE",
"578 656 OFFCURVE",
"670 656 CURVE SMOOTH",
"692 656 OFFCURVE",
"703 655 OFFCURVE",
"720 651 CURVE",
"747 592 LINE",
"799 592 OFFCURVE",
"818 611 OFFCURVE",
"818 646 CURVE SMOOTH",
"818 690 OFFCURVE",
"774 718 OFFCURVE",
"680 718 CURVE SMOOTH",
"525 718 OFFCURVE",
"466 663 OFFCURVE",
"466 517 CURVE SMOOTH",
"466 502 LINE",
"198 502 LINE",
"198 576 LINE SMOOTH",
"198 625 OFFCURVE",
"222 656 OFFCURVE",
"279 656 CURVE",
"306 597 LINE",
"358 597 OFFCURVE",
"377 616 OFFCURVE",
"377 651 CURVE SMOOTH",
"377 697 OFFCURVE",
"352 718 OFFCURVE",
"290 718 CURVE SMOOTH",
"177 718 OFFCURVE",
"114 664 OFFCURVE",
"114 550 CURVE SMOOTH",
"114 502 LINE",
"46 488 LINE",
"46 432 LINE",
"114 432 LINE",
"114 85 LINE",
"46 55 LINE",
"46 0 LINE"
);
}
);
width = 1030;
}
);
leftKerningGroup = f;
leftMetricsKey = f;
rightKerningGroup = l;
rightMetricsKey = i;
},
{
color = 4;
glyphname = f_f_l;
lastChange = "2015-01-31 05:52:20 +0000";
layers = (
{
background = {
paths = (
{
closed = 1;
nodes = (
"301 0 LINE",
"301 55 LINE",
"208 85 LINE",
"208 432 LINE",
"466 432 LINE",
"466 85 LINE",
"398 55 LINE",
"398 0 LINE",
"643 0 LINE",
"643 55 LINE",
"550 85 LINE",
"550 432 LINE",
"643 432 LINE",
"643 502 LINE",
"550 502 LINE",
"550 531 LINE SMOOTH",
"550 627 OFFCURVE",
"577 656 OFFCURVE",
"665 656 CURVE SMOOTH",
"684 656 OFFCURVE",
"694 655 OFFCURVE",
"709 651 CURVE",
"736 592 LINE",
"788 592 OFFCURVE",
"807 611 OFFCURVE",
"807 646 CURVE",
"808 646 LINE",
"808 85 LINE",
"740 55 LINE",
"740 0 LINE",
"960 0 LINE",
"960 55 LINE",
"892 85 LINE",
"892 710 LINE",
"749 710 LINE",
"729 715 OFFCURVE",
"705 718 OFFCURVE",
"675 718 CURVE SMOOTH",
"523 718 OFFCURVE",
"466 662 OFFCURVE",
"466 512 CURVE SMOOTH",
"466 502 LINE",
"208 502 LINE",
"208 576 LINE SMOOTH",
"208 625 OFFCURVE",
"232 656 OFFCURVE",
"289 656 CURVE",
"316 597 LINE",
"368 597 OFFCURVE",
"387 616 OFFCURVE",
"387 651 CURVE SMOOTH",
"387 697 OFFCURVE",
"362 718 OFFCURVE",
"300 718 CURVE SMOOTH",
"187 718 OFFCURVE",
"124 664 OFFCURVE",
"124 550 CURVE SMOOTH",
"124 502 LINE",
"56 488 LINE",
"56 432 LINE",
"124 432 LINE",
"124 85 LINE",
"56 55 LINE",
"56 0 LINE"
);
}
);
};
layerId = "0225C979-6A3F-4323-834E-E3153ADD1AE8";
name = Regular;
paths = (
{
closed = 1;
nodes = (
"291 0 LINE",
"291 55 LINE",
"198 85 LINE",
"198 432 LINE",
"466 432 LINE",
"466 85 LINE",
"398 55 LINE",
"398 0 LINE",
"643 0 LINE",
"643 55 LINE",
"550 85 LINE",
"550 432 LINE",
"658 432 LINE",
"658 502 LINE",
"550 502 LINE",
"550 531 LINE SMOOTH",
"550 627 OFFCURVE",
"577 656 OFFCURVE",
"665 656 CURVE SMOOTH",
"684 656 OFFCURVE",
"694 655 OFFCURVE",
"709 651 CURVE",
"736 592 LINE",
"788 592 OFFCURVE",
"805 611 OFFCURVE",
"807 641 CURVE",
"808 641 LINE",
"808 85 LINE",
"740 55 LINE",
"740 0 LINE",
"960 0 LINE",
"960 55 LINE",
"892 85 LINE",
"892 710 LINE",
"749 710 LINE",
"729 715 OFFCURVE",
"705 718 OFFCURVE",
"675 718 CURVE SMOOTH",
"523 718 OFFCURVE",
"466 662 OFFCURVE",
"466 512 CURVE SMOOTH",
"466 502 LINE",
"198 502 LINE",
"198 576 LINE SMOOTH",
"198 625 OFFCURVE",
"222 656 OFFCURVE",
"279 656 CURVE",
"306 597 LINE",
"358 597 OFFCURVE",
"377 616 OFFCURVE",
"377 651 CURVE SMOOTH",
"377 697 OFFCURVE",
"352 718 OFFCURVE",
"290 718 CURVE SMOOTH",
"177 718 OFFCURVE",
"114 664 OFFCURVE",
"114 550 CURVE SMOOTH",
"114 502 LINE",
"46 488 LINE",
"46 432 LINE",
"114 432 LINE",
"114 85 LINE",
"46 55 LINE",
"46 0 LINE"
);
}
);
width = 995;
}
);
leftKerningGroup = f;
leftMetricsKey = f;
rightKerningGroup = l;
rightMetricsKey = l;
},
{
color = 4;
glyphname = f_i;
lastChange = "2015-01-31 05:52:20 +0000";
layers = (
{
background = {
guideLines = (
{
angle = 114.59;
position = "{306, 597}";
}
);
paths = (
{
closed = 1;
nodes = (
"291 0 LINE",
"291 55 LINE",
"198 85 LINE",
"198 432 LINE",
"466 432 LINE",
"466 85 LINE",
"398 55 LINE",
"398 0 LINE",
"643 0 LINE",
"643 55 LINE",
"550 85 LINE",
"550 502 LINE",
"198 502 LINE",
"198 531 LINE SMOOTH",
"198 626.536 OFFCURVE",
"226 656 OFFCURVE",
"318 656 CURVE SMOOTH",
"340 656 OFFCURVE",
"351 655 OFFCURVE",
"368 651 CURVE",
"395 592 LINE",
"447 592 OFFCURVE",
"466 611 OFFCURVE",
"466 646 CURVE SMOOTH",
"466 690 OFFCURVE",
"422 718 OFFCURVE",
"328 718 CURVE SMOOTH",
"173.443 718 OFFCURVE",
"114 662 OFFCURVE",
"114 512 CURVE SMOOTH",
"114 502 LINE",
"46 488 LINE",
"46 432 LINE",
"114 432 LINE",
"114 85 LINE",
"46 55 LINE",
"46 0 LINE"
);
}
);
};
layerId = "0225C979-6A3F-4323-834E-E3153ADD1AE8";
name = Regular;
paths = (
{
closed = 1;
nodes = (
"291 0 LINE",
"291 55 LINE",
"198 85 LINE",
"198 432 LINE",
"466 432 LINE",
"466 85 LINE",
"398 55 LINE",
"398 0 LINE",
"653 0 LINE",
"653 55 LINE",
"550 85 LINE",
"550 502 LINE",
"198 502 LINE",
"198 531 LINE SMOOTH",
"198 627 OFFCURVE",
"226 656 OFFCURVE",
"318 656 CURVE SMOOTH",
"340 656 OFFCURVE",
"351 655 OFFCURVE",
"368 651 CURVE",
"395 592 LINE",
"447 592 OFFCURVE",
"466 611 OFFCURVE",
"466 646 CURVE SMOOTH",
"466 690 OFFCURVE",
"422 718 OFFCURVE",
"328 718 CURVE SMOOTH",
"173 718 OFFCURVE",
"114 662 OFFCURVE",
"114 512 CURVE SMOOTH",
"114 502 LINE",
"46 488 LINE",
"46 432 LINE",
"114 432 LINE",
"114 85 LINE",
"46 55 LINE",
"46 0 LINE"
);
}
);
width = 688;
}
);
leftKerningGroup = f;
leftMetricsKey = f;
rightKerningGroup = l;
rightMetricsKey = i;
},
{
color = 4;
glyphname = f_j;
lastChange = "2015-01-31 05:52:20 +0000";
layers = (
{
background = {
paths = (
{
closed = 1;
nodes = (
"388 502 LINE",
"388 445 LINE",
"456 417 LINE",
"456 -8 LINE SMOOTH",
"456 -42 OFFCURVE",
"456 -58 OFFCURVE",
"456 -82 CURVE SMOOTH",
"456 -130 OFFCURVE",
"433 -154 OFFCURVE",
"386 -154 CURVE",
"362 -103 LINE",
"309 -103 OFFCURVE",
"291 -122 OFFCURVE",
"291 -159 CURVE SMOOTH",
"291 -203 OFFCURVE",
"317 -224 OFFCURVE",
"380 -224 CURVE SMOOTH",
"474 -224 OFFCURVE",
"540 -176 OFFCURVE",
"540 -66 CURVE SMOOTH",
"540 502 LINE"
);
},
{
closed = 1;
nodes = (
"449 721 OFFCURVE",
"422 697 OFFCURVE",
"422 652 CURVE SMOOTH",
"422 607 OFFCURVE",
"449 583 OFFCURVE",
"490 583 CURVE SMOOTH",
"531 583 OFFCURVE",
"558 607 OFFCURVE",
"558 652 CURVE SMOOTH",
"558 697 OFFCURVE",
"531 721 OFFCURVE",
"490 721 CURVE SMOOTH"
);
},
{
closed = 1;
nodes = (
"177 718 OFFCURVE",
"114 664 OFFCURVE",
"114 550 CURVE SMOOTH",
"114 502 LINE",
"46 488 LINE",
"46 432 LINE",
"114 432 LINE",
"114 85 LINE",
"46 55 LINE",
"46 0 LINE",
"291 0 LINE",
"291 55 LINE",
"198 85 LINE",
"198 432 LINE",
"291 432 LINE",
"291 502 LINE",
"198 502 LINE",
"198 576 LINE SMOOTH",
"198 625 OFFCURVE",
"222 656 OFFCURVE",
"279 656 CURVE",
"306 597 LINE",
"358 597 OFFCURVE",
"377 616 OFFCURVE",
"377 651 CURVE SMOOTH",
"377 697 OFFCURVE",
"352 718 OFFCURVE",
"290 718 CURVE SMOOTH"
);
}
);
};
guideLines = (
{
angle = 90;
position = "{466, 432}";
}
);
layerId = "0225C979-6A3F-4323-834E-E3153ADD1AE8";
name = Regular;
paths = (
{
closed = 1;
nodes = (
"474 -224 OFFCURVE",
"540 -176 OFFCURVE",
"540 -66 CURVE SMOOTH",
"540 502 LINE",
"198 502 LINE",
"198 531 LINE SMOOTH",
"198 627 OFFCURVE",
"226 656 OFFCURVE",
"318 656 CURVE SMOOTH",
"340 656 OFFCURVE",
"351 655 OFFCURVE",
"368 651 CURVE",
"395 592 LINE",
"447 592 OFFCURVE",
"466 611 OFFCURVE",
"466 646 CURVE SMOOTH",
"466 690 OFFCURVE",
"422 718 OFFCURVE",
"328 718 CURVE SMOOTH",
"173 718 OFFCURVE",
"114 662 OFFCURVE",
"114 512 CURVE SMOOTH",
"114 502 LINE",
"46 488 LINE",
"46 432 LINE",
"114 432 LINE",
"114 85 LINE",
"46 55 LINE",
"46 0 LINE",
"291 0 LINE",
"291 55 LINE",
"198 85 LINE",
"198 432 LINE",
"456 432 LINE",
"456 -82 LINE SMOOTH",
"456 -130 OFFCURVE",
"433 -154 OFFCURVE",
"386 -154 CURVE",
"362 -103 LINE",
"309 -103 OFFCURVE",
"291 -122 OFFCURVE",
"291 -159 CURVE SMOOTH",
"291 -203 OFFCURVE",
"317 -224 OFFCURVE",
"380 -224 CURVE SMOOTH"
);
}
);
width = 615;
}
);
leftKerningGroup = f;
leftMetricsKey = f;
rightMetricsKey = j;
},
{
color = 4;
glyphname = f_l;
lastChange = "2015-01-31 05:52:20 +0000";
layers = (
{
background = {
paths = (
{
closed = 1;
nodes = (
"291 0 LINE",
"291 55 LINE",
"198 85 LINE",
"198 432 LINE",
"291 432 LINE",
"291 502 LINE",
"198 502 LINE",
"198 531 LINE SMOOTH",
"198 627 OFFCURVE",
"225 656 OFFCURVE",
"313 656 CURVE SMOOTH",
"336 656 OFFCURVE",
"346 655 OFFCURVE",
"361 651 CURVE",
"388 592 LINE",
"440 592 OFFCURVE",
"459 611 OFFCURVE",
"459 646 CURVE",
"456 646 LINE",
"456 85 LINE",
"388 55 LINE",
"388 0 LINE",
"608 0 LINE",
"608 55 LINE",
"540 85 LINE",
"540 710 LINE",
"397 710 LINE",
"377 715 OFFCURVE",
"353 718 OFFCURVE",
"323 718 CURVE SMOOTH",
"171 718 OFFCURVE",
"114 662 OFFCURVE",
"114 512 CURVE SMOOTH",
"114 502 LINE",
"46 488 LINE",
"46 432 LINE",
"114 432 LINE",
"114 85 LINE",
"46 55 LINE",
"46 0 LINE"
);
}
);
};
layerId = "0225C979-6A3F-4323-834E-E3153ADD1AE8";
name = Regular;
paths = (
{
closed = 1;
nodes = (
"291 0 LINE",
"291 55 LINE",
"198 85 LINE",
"198 432 LINE",
"306 432 LINE",
"306 502 LINE",
"198 502 LINE",
"198 531 LINE SMOOTH",
"198 627 OFFCURVE",
"225 656 OFFCURVE",
"313 656 CURVE SMOOTH",
"332 656 OFFCURVE",
"342 655 OFFCURVE",
"357 651 CURVE",
"384 592 LINE",
"436 592 OFFCURVE",
"453 611 OFFCURVE",
"455 641 CURVE",
"456 641 LINE",
"456 85 LINE",
"388 55 LINE",
"388 0 LINE",
"608 0 LINE",
"608 55 LINE",
"540 85 LINE",
"540 710 LINE",
"397 710 LINE",
"377 715 OFFCURVE",
"353 718 OFFCURVE",
"323 718 CURVE SMOOTH",
"171 718 OFFCURVE",
"114 662 OFFCURVE",
"114 512 CURVE SMOOTH",
"114 502 LINE",
"46 488 LINE",
"46 432 LINE",
"114 432 LINE",
"114 85 LINE",
"46 55 LINE",
"46 0 LINE"
);
}
);
width = 643;
}
);
leftKerningGroup = f;
leftMetricsKey = f;
rightKerningGroup = l;
rightMetricsKey = l;
},
{
color = 4;
glyphname = ordfeminine;
lastChange = "2015-01-31 04:40:36 +0000";
layers = (
{
background = {
paths = (
{
closed = 1;
nodes = (
"186 692 OFFCURVE",
"123 682 OFFCURVE",
"65 669 CURVE",
"65 598 LINE",
"126 613 OFFCURVE",
"185 621 OFFCURVE",
"249 621 CURVE SMOOTH",
"345 621 OFFCURVE",
"368 592 OFFCURVE",
"368 509 CURVE SMOOTH",
"368 473 LINE",
"345 486 OFFCURVE",
"303 500 OFFCURVE",
"245 500 CURVE SMOOTH",
"102 500 OFFCURVE",
"40 452 OFFCURVE",
"40 341 CURVE SMOOTH",
"40 235 OFFCURVE",
"95 192 OFFCURVE",
"205 192 CURVE SMOOTH",
"280 192 OFFCURVE",
"338 221 OFFCURVE",
"390 286 CURVE",
"368 286 LINE",
"398 201 LINE",
"510 201 LINE",
"510 255 LINE",
"450 284 LINE",
"450 526 LINE SMOOTH",
"450 635 OFFCURVE",
"428 692 OFFCURVE",
"253 692 CURVE SMOOTH"
);
},
{
closed = 1;
nodes = (
"288 432 OFFCURVE",
"332 429 OFFCURVE",
"368 418 CURVE",
"368 323 LINE",
"328 286 OFFCURVE",
"277 262 OFFCURVE",
"222 262 CURVE SMOOTH",
"148 262 OFFCURVE",
"126 288 OFFCURVE",
"126 347 CURVE SMOOTH",
"126 403 OFFCURVE",
"153 432 OFFCURVE",
"254 432 CURVE SMOOTH"
);
}
);
};
layerId = "0225C979-6A3F-4323-834E-E3153ADD1AE8";
name = Regular;
paths = (
{
closed = 1;
nodes = (
"186 692 OFFCURVE",
"123 682 OFFCURVE",
"65 669 CURVE",
"65 598 LINE",
"126 613 OFFCURVE",
"185 621 OFFCURVE",
"249 621 CURVE SMOOTH",
"345 621 OFFCURVE",
"368 592 OFFCURVE",
"368 509 CURVE SMOOTH",
"368 473 LINE",
"345 486 OFFCURVE",
"303 500 OFFCURVE",
"245 500 CURVE SMOOTH",
"102 500 OFFCURVE",
"40 452 OFFCURVE",
"40 341 CURVE SMOOTH",
"40 235 OFFCURVE",
"95 192 OFFCURVE",
"205 192 CURVE SMOOTH",
"280 192 OFFCURVE",
"338 221 OFFCURVE",
"390 286 CURVE",
"368 286 LINE",
"398 201 LINE",
"510 201 LINE",
"510 255 LINE",
"450 284 LINE",
"450 526 LINE SMOOTH",
"450 635 OFFCURVE",
"428 692 OFFCURVE",
"253 692 CURVE SMOOTH"
);
},
{
closed = 1;
nodes = (
"288 432 OFFCURVE",
"332 429 OFFCURVE",
"368 418 CURVE",
"368 323 LINE",
"328 286 OFFCURVE",
"277 262 OFFCURVE",
"222 262 CURVE SMOOTH",
"148 262 OFFCURVE",
"126 288 OFFCURVE",
"126 347 CURVE SMOOTH",
"126 403 OFFCURVE",
"153 432 OFFCURVE",
"254 432 CURVE SMOOTH"
);
}
);
width = 540;
}
);
unicode = 00AA;
},
{
color = 4;
glyphname = ordmasculine;
lastChange = "2015-01-31 04:40:37 +0000";
layers = (
{
background = {
paths = (
{
closed = 1;
nodes = (
"135 692 OFFCURVE",
"35 625 OFFCURVE",
"35 440 CURVE SMOOTH",
"35 254 OFFCURVE",
"134 188 OFFCURVE",
"261 188 CURVE SMOOTH",
"386 188 OFFCURVE",
"485 254 OFFCURVE",
"485 440 CURVE SMOOTH",
"485 625 OFFCURVE",
"385 692 OFFCURVE",
"261 692 CURVE SMOOTH"
);
},
{
closed = 1;
nodes = (
"356 621 OFFCURVE",
"399 582 OFFCURVE",
"399 440 CURVE SMOOTH",
"399 298 OFFCURVE",
"356 258 OFFCURVE",
"261 258 CURVE SMOOTH",
"164 258 OFFCURVE",
"122 298 OFFCURVE",
"122 440 CURVE SMOOTH",
"122 582 OFFCURVE",
"164 621 OFFCURVE",
"261 621 CURVE SMOOTH"
);
}
);
};
layerId = "0225C979-6A3F-4323-834E-E3153ADD1AE8";
name = Regular;
paths = (
{
closed = 1;
nodes = (
"135 692 OFFCURVE",
"35 625 OFFCURVE",
"35 440 CURVE SMOOTH",
"35 254 OFFCURVE",
"134 188 OFFCURVE",
"261 188 CURVE SMOOTH",
"386 188 OFFCURVE",
"485 254 OFFCURVE",
"485 440 CURVE SMOOTH",
"485 625 OFFCURVE",
"385 692 OFFCURVE",
"261 692 CURVE SMOOTH"
);
},
{
closed = 1;
nodes = (
"356 621 OFFCURVE",
"399 582 OFFCURVE",
"399 440 CURVE SMOOTH",
"399 298 OFFCURVE",
"356 258 OFFCURVE",
"261 258 CURVE SMOOTH",
"164 258 OFFCURVE",
"122 298 OFFCURVE",
"122 440 CURVE SMOOTH",
"122 582 OFFCURVE",
"164 621 OFFCURVE",
"261 621 CURVE SMOOTH"
);
}
);
width = 520;
}
);
unicode = 00BA;
},
{
color = 4;
glyphname = Delta;
lastChange = "2015-01-31 03:23:06 +0000";
layers = (
{
background = {
paths = (
{
closed = 1;
nodes = (
"270 680 LINE",
"10 55 LINE",
"10 0 LINE",
"652 0 LINE",
"652 55 LINE",
"385 680 LINE"
);
},
{
closed = 1;
nodes = (
"563 52 LINE",
"565 71 LINE",
"72 71 LINE",
"89 52 LINE",
"335 643 LINE",
"310 643 LINE"
);
}
);
};
guideLines = (
{
angle = 157.413;
position = "{107, 413}";
showMeasurement = 1;
},
{
angle = 23.1752;
position = "{563, 375}";
showMeasurement = 1;
}
);
layerId = "0225C979-6A3F-4323-834E-E3153ADD1AE8";
name = Regular;
paths = (
{
closed = 1;
nodes = (
"270 680 LINE",
"10 55 LINE",
"10 0 LINE",
"652 0 LINE",
"652 55 LINE",
"385 680 LINE"
);
},
{
closed = 1;
nodes = (
"566 52 LINE",
"565 71 LINE",
"72 71 LINE",
"87 52 LINE",
"333 643 LINE",
"313 643 LINE"
);
}
);
width = 662;
}
);
unicode = 0394;
},
{
color = 4;
glyphname = Omega;
lastChange = "2015-01-31 03:23:06 +0000";
layers = (
{
background = {
paths = (
{
closed = 1;
nodes = (
"185 692 OFFCURVE",
"75 593 OFFCURVE",
"75 421 CURVE SMOOTH",
"75 278 OFFCURVE",
"149 192 OFFCURVE",
"248 162 CURVE",
"248 71 LINE",
"74 71 LINE",
"97 51 LINE",
"78 156 LINE",
"25 156 LINE",
"25 0 LINE",
"324 0 LINE",
"324 210 LINE",
"208 232 OFFCURVE",
"165 312 OFFCURVE",
"165 419 CURVE SMOOTH",
"165 559 OFFCURVE",
"240 618 OFFCURVE",
"374 618 CURVE SMOOTH",
"508 618 OFFCURVE",
"583 559 OFFCURVE",
"583 419 CURVE SMOOTH",
"583 312 OFFCURVE",
"540 232 OFFCURVE",
"424 210 CURVE",
"424 0 LINE",
"723 0 LINE",
"723 156 LINE",
"670 156 LINE",
"651 51 LINE",
"674 71 LINE",
"500 71 LINE",
"500 162 LINE",
"599 192 OFFCURVE",
"673 278 OFFCURVE",
"673 421 CURVE SMOOTH",
"673 593 OFFCURVE",
"564 692 OFFCURVE",
"374 692 CURVE SMOOTH"
);
}
);
};
layerId = "0225C979-6A3F-4323-834E-E3153ADD1AE8";
name = Regular;
paths = (
{
closed = 1;
nodes = (
"185 692 OFFCURVE",
"75 593 OFFCURVE",
"75 421 CURVE SMOOTH",
"75 278 OFFCURVE",
"149 192 OFFCURVE",
"248 162 CURVE",
"248 71 LINE",
"74 71 LINE",
"97 51 LINE",
"78 156 LINE",
"25 156 LINE",
"25 0 LINE",
"324 0 LINE",
"324 210 LINE",
"208 232 OFFCURVE",
"165 312 OFFCURVE",
"165 419 CURVE SMOOTH",
"165 559 OFFCURVE",
"240 618 OFFCURVE",
"374 618 CURVE SMOOTH",
"508 618 OFFCURVE",
"583 559 OFFCURVE",
"583 419 CURVE SMOOTH",
"583 312 OFFCURVE",
"540 232 OFFCURVE",
"424 210 CURVE",
"424 0 LINE",
"723 0 LINE",
"723 156 LINE",
"670 156 LINE",
"651 51 LINE",
"674 71 LINE",
"500 71 LINE",
"500 162 LINE",
"599 192 OFFCURVE",
"673 278 OFFCURVE",
"673 421 CURVE SMOOTH",
"673 593 OFFCURVE",
"564 692 OFFCURVE",
"374 692 CURVE SMOOTH"
);
}
);
width = 748;
}
);
unicode = 03A9;
},
{
color = 4;
glyphname = mu;
lastChange = "2015-01-31 03:23:06 +0000";
layers = (
{
background = {
paths = (
{
closed = 1;
nodes = (
"290 516 OFFCURVE",
"222 497 OFFCURVE",
"143 455 CURVE",
"164 446 LINE",
"128 502 LINE",
"17 502 LINE",
"17 445 LINE",
"85 417 LINE",
"85 85 LINE",
"17 55 LINE",
"17 0 LINE",
"247 0 LINE",
"247 55 LINE",
"169 85 LINE",
"169 402 LINE",
"239 427 OFFCURVE",
"284 443 OFFCURVE",
"335 443 CURVE SMOOTH",
"406 443 OFFCURVE",
"447 412 OFFCURVE",
"447 331 CURVE SMOOTH",
"447 0 LINE",
"599 0 LINE",
"599 55 LINE",
"531 85 LINE",
"531 320 LINE SMOOTH",
"531 462 OFFCURVE",
"488 516 OFFCURVE",
"362 516 CURVE SMOOTH"
);
}
);
};
layerId = "0225C979-6A3F-4323-834E-E3153ADD1AE8";
name = Regular;
paths = (
{
closed = 1;
nodes = (
"447 502 LINE",
"447 100 LINE",
"377 75 OFFCURVE",
"332 59 OFFCURVE",
"281 59 CURVE SMOOTH",
"210 59 OFFCURVE",
"169 90 OFFCURVE",
"169 171 CURVE SMOOTH",
"169 502 LINE",
"85 502 LINE",
"85 -224 LINE",
"171 -224 LINE",
"171 1 LINE",
"195 -10 OFFCURVE",
"223 -14 OFFCURVE",
"254 -14 CURVE",
"328 -14 OFFCURVE",
"397 5 OFFCURVE",
"490 56 CURVE",
"452 56 LINE",
"488 0 LINE",
"599 0 LINE",
"599 55 LINE",
"531 85 LINE",
"531 502 LINE"
);
}
);
width = 634;
}
);
unicode = 03BC;
},
{
color = 4;
glyphname = pi;
lastChange = "2015-01-31 04:36:19 +0000";
layers = (
{
background = {
paths = (
{
closed = 1;
nodes = (
"319 516 OFFCURVE",
"251 497 OFFCURVE",
"172 455 CURVE",
"193 446 LINE",
"157 502 LINE",
"46 502 LINE",
"46 445 LINE",
"114 417 LINE",
"114 85 LINE",
"46 55 LINE",
"46 0 LINE",
"276 0 LINE",
"276 55 LINE",
"198 85 LINE",
"198 402 LINE",
"268 427 OFFCURVE",
"313 443 OFFCURVE",
"364 443 CURVE SMOOTH",
"435 443 OFFCURVE",
"476 412 OFFCURVE",
"476 331 CURVE SMOOTH",
"476 0 LINE",
"628 0 LINE",
"628 55 LINE",
"560 85 LINE",
"560 320 LINE SMOOTH",
"560 462 OFFCURVE",
"517 516 OFFCURVE",
"391 516 CURVE SMOOTH"
);
}
);
};
guideLines = (
{
position = "{997, 944}";
}
);
layerId = "0225C979-6A3F-4323-834E-E3153ADD1AE8";
leftMetricsKey = "=n";
name = Regular;
paths = (
{
closed = 1;
nodes = (
"46 502 LINE",
"46 446 LINE",
"114 417 LINE",
"114 0 LINE",
"198 0 LINE",
"198 432 LINE",
"454 432 LINE",
"454 150 LINE SMOOTH",
"454 35 OFFCURVE",
"512 -8 OFFCURVE",
"604 -8 CURVE SMOOTH",
"667 -8 OFFCURVE",
"693 13 OFFCURVE",
"693 57 CURVE SMOOTH",
"693 94 OFFCURVE",
"675 113 OFFCURVE",
"622 113 CURVE",
"600 64 LINE",
"560 64 OFFCURVE",
"538 86 OFFCURVE",
"538 134 CURVE SMOOTH",
"538 432 LINE",
"668 432 LINE",
"668 502 LINE"
);
}
);
width = 718;
}
);
leftMetricsKey = n;
unicode = 03C0;
},
{
color = 4;
glyphname = "a-deva";
lastChange = "2015-01-31 05:52:20 +0000";
layers = (
{
anchors = (
{
name = bottom;
position = "{630, 0}";
},
{
name = nukta;
position = "{20, 0}";
},
{
name = top;
position = "{630, 680}";
}
);
background = {
paths = (
{
closed = 1;
nodes = (
"597 616 LINE",
"597 0 LINE",
"667 0 LINE",
"667 616 LINE"
);
},
{
closed = 1;
nodes = (
"461 680 LINE",
"461 606 LINE",
"768 606 LINE",
"768 680 LINE"
);
},
{
closed = 1;
nodes = (
"273 391 LINE",
"337 315 LINE",
"607 315 LINE",
"607 391 LINE"
);
},
{
closed = 1;
nodes = (
"287 385 LINE",
"343 385 OFFCURVE",
"389 426 OFFCURVE",
"389 531 CURVE SMOOTH",
"389 638 OFFCURVE",
"342 688 OFFCURVE",
"207 688 CURVE SMOOTH",
"160 688 OFFCURVE",
"107 682 OFFCURVE",
"63 670 CURVE",
"63 591 LINE",
"106 602 OFFCURVE",
"159 608 OFFCURVE",
"208 608 CURVE SMOOTH",
"299 608 OFFCURVE",
"315 588 OFFCURVE",
"315 523 CURVE SMOOTH",
"315 445 OFFCURVE",
"292 422 OFFCURVE",
"212 422 CURVE SMOOTH",
"112 422 LINE",
"112 346 LINE",
"212 346 LINE SMOOTH",
"297 346 OFFCURVE",
"326 316 OFFCURVE",
"326 243 CURVE SMOOTH",
"326 164 OFFCURVE",
"293 134 OFFCURVE",
"180 134 CURVE SMOOTH",
"108 134 OFFCURVE",
"68 146 OFFCURVE",
"20 165 CURVE",
"20 85 LINE",
"58 69 OFFCURVE",
"120 54 OFFCURVE",
"193 54 CURVE SMOOTH",
"339 54 OFFCURVE",
"400 115 OFFCURVE",
"400 231 CURVE SMOOTH",
"400 315 OFFCURVE",
"368 363 OFFCURVE",
"287 383 CURVE"
);
}
);
};
layerId = "0225C979-6A3F-4323-834E-E3153ADD1AE8";
name = Regular;
paths = (
{
closed = 1;
nodes = (
"597 614 LINE",
"597 0 LINE",
"665 0 LINE",
"665 614 LINE"
);
},
{
closed = 1;
nodes = (
"461 680 LINE",
"461 604 LINE",
"766 604 LINE",
"766 680 LINE"
);
},
{
closed = 1;
nodes = (
"275 385 LINE",
"339 307 LINE",
"607 307 LINE",
"607 385 LINE"
);
},
{
closed = 1;
nodes = (
"289 385 LINE",
"345 385 OFFCURVE",
"389 426 OFFCURVE",
"389 531 CURVE SMOOTH",
"389 638 OFFCURVE",
"342 688 OFFCURVE",
"209 688 CURVE SMOOTH",
"162 688 OFFCURVE",
"109 682 OFFCURVE",
"65 671 CURVE",
"65 589 LINE",
"108 600 OFFCURVE",
"160 606 OFFCURVE",
"212 606 CURVE SMOOTH",
"301 606 OFFCURVE",
"317 588 OFFCURVE",
"317 523 CURVE SMOOTH",
"317 445 OFFCURVE",
"294 423 OFFCURVE",
"214 423 CURVE SMOOTH",
"114 423 LINE",
"114 345 LINE",
"214 345 LINE SMOOTH",
"299 345 OFFCURVE",
"328 316 OFFCURVE",
"328 243 CURVE SMOOTH",
"328 164 OFFCURVE",
"295 136 OFFCURVE",
"183 136 CURVE SMOOTH",
"110 136 OFFCURVE",
"70 148 OFFCURVE",
"22 167 CURVE",
"22 85 LINE",
"60 69 OFFCURVE",
"122 54 OFFCURVE",
"194 54 CURVE SMOOTH",
"339 54 OFFCURVE",
"400 115 OFFCURVE",
"400 231 CURVE SMOOTH",
"400 315 OFFCURVE",
"368 363 OFFCURVE",
"289 383 CURVE"
);
}
);
width = 756;
}
);
leftKerningGroup = "a-deva";
rightKerningGroup = "pa-deva";
rightMetricsKey = "pa-deva";
unicode = 0905;
},
{
color = 4;
glyphname = "i-deva";
lastChange = "2015-01-31 05:52:20 +0000";
layers = (
{
anchors = (
{
name = bottom;
position = "{285, 0}";
},
{
name = top;
position = "{419, 680}";
}
);
background = {
guideLines = (
{
angle = 90;
position = "{282, -28}";
},
{
angle = 90;
position = "{50, 360}";
}
);
paths = (
{
closed = 0;
nodes = (
"-2 604 LINE"
);
},
{
closed = 1;
nodes = (
"551 604 LINE",
"551 680 LINE",
"-2 680 LINE",
"-2 604 LINE"
);
},
{
closed = 1;
nodes = (
"143 -107 LINE",
"143 37 LINE",
"169 61 LINE",
"122 166 LINE",
"70 166 OFFCURVE",
"50 145 OFFCURVE",
"50 105 CURVE SMOOTH",
"50 9 OFFCURVE",
"167 -8 OFFCURVE",
"262 -8 CURVE SMOOTH",
"430 -8 OFFCURVE",
"494 45 OFFCURVE",
"494 167 CURVE SMOOTH",
"494 247 OFFCURVE",
"467 308 OFFCURVE",
"363 308 CURVE SMOOTH",
"297 308 OFFCURVE",
"246 284 OFFCURVE",
"192 284 CURVE SMOOTH",
"143 284 OFFCURVE",
"122 302 OFFCURVE",
"122 355 CURVE SMOOTH",
"122 406 OFFCURVE",
"143 423 OFFCURVE",
"212 423 CURVE SMOOTH",
"454 423 LINE",
"454 614 LINE",
"384 614 LINE",
"384 484 LINE",
"404 501 LINE",
"204 501 LINE SMOOTH",
"92 501 OFFCURVE",
"50 452 OFFCURVE",
"50 359 CURVE SMOOTH",
"50 260 OFFCURVE",
"98 204 OFFCURVE",
"191 204 CURVE SMOOTH",
"252 204 OFFCURVE",
"312 228 OFFCURVE",
"359 228 CURVE SMOOTH",
"403 228 OFFCURVE",
"422 209 OFFCURVE",
"422 162 CURVE SMOOTH",
"422 101 OFFCURVE",
"391 74 OFFCURVE",
"267 74 CURVE SMOOTH",
"222 74 OFFCURVE",
"177 78 OFFCURVE",
"145 87 CURVE",
"75 82 LINE",
"75 -107 LINE"
);
}
);
};
layerId = "0225C979-6A3F-4323-834E-E3153ADD1AE8";
name = Regular;
paths = (
{
closed = 0;
nodes = (
"-10 604 LINE"
);
},
{
closed = 1;
nodes = (
"549 604 LINE",
"549 680 LINE",
"-10 680 LINE",
"-10 604 LINE"
);
},
{
closed = 1;
nodes = (
"428 -8 OFFCURVE",
"494 44 OFFCURVE",
"494 168 CURVE SMOOTH",
"494 247 OFFCURVE",
"467 308 OFFCURVE",
"363 308 CURVE SMOOTH",
"297 308 OFFCURVE",
"247 284 OFFCURVE",
"192 284 CURVE SMOOTH",
"143 284 OFFCURVE",
"122 303 OFFCURVE",
"122 355 CURVE SMOOTH",
"122 406 OFFCURVE",
"143 423 OFFCURVE",
"212 423 CURVE SMOOTH",
"454 423 LINE",
"454 614 LINE",
"384 614 LINE",
"384 484 LINE",
"404 501 LINE",
"204 501 LINE SMOOTH",
"92 501 OFFCURVE",
"50 452 OFFCURVE",
"50 359 CURVE SMOOTH",
"50 260 OFFCURVE",
"98 204 OFFCURVE",
"191 204 CURVE SMOOTH",
"252 204 OFFCURVE",
"311 228 OFFCURVE",
"360 228 CURVE SMOOTH",
"403 228 OFFCURVE",
"422 209 OFFCURVE",
"422 162 CURVE SMOOTH",
"422 102 OFFCURVE",
"391 74 OFFCURVE",
"285 74 CURVE SMOOTH",
"225 74 OFFCURVE",
"167 83 OFFCURVE",
"138 107 CURVE",
"71 97 LINE",
"71 -108 LINE",
"139 -108 LINE",
"139 58 LINE",
"183 58 LINE",
"138 186 LINE",
"81 186 OFFCURVE",
"50 166 OFFCURVE",
"50 116 CURVE SMOOTH",
"50 28 OFFCURVE",
"147 -8 OFFCURVE",
"275 -8 CURVE SMOOTH"
);
}
);
width = 539;
}
);
leftKerningGroup = "i-deva";
rightKerningGroup = "dda-deva";
rightMetricsKey = "pa-deva";
unicode = 0907;
},
{
color = 4;
glyphname = "u-deva";
lastChange = "2015-01-31 05:52:20 +0000";
layers = (
{
anchors = (
{
name = bottom;
position = "{215, 0}";
},
{
name = top;
position = "{341, 680}";
}
);
background = {
paths = (
{
closed = 1;
nodes = (
"507 606 LINE",
"507 680 LINE",
"-31 680 LINE",
"-31 606 LINE"
);
},
{
closed = 1;
nodes = (
"307 616 LINE",
"330 587 OFFCURVE",
"340 560 OFFCURVE",
"340 519 CURVE SMOOTH",
"340 443 OFFCURVE",
"314 422 OFFCURVE",
"237 422 CURVE SMOOTH",
"118 422 LINE",
"118 346 LINE",
"237 346 LINE SMOOTH",
"321 346 OFFCURVE",
"351 317 OFFCURVE",
"351 244 CURVE SMOOTH",
"351 161 OFFCURVE",
"313 134 OFFCURVE",
"196 134 CURVE SMOOTH",
"111 134 OFFCURVE",
"65 151 OFFCURVE",
"9 178 CURVE",
"9 100 LINE",
"53 77 OFFCURVE",
"123 54 OFFCURVE",
"212 54 CURVE SMOOTH",
"357 54 OFFCURVE",
"425 110 OFFCURVE",
"425 235 CURVE SMOOTH",
"425 337 OFFCURVE",
"381 384 OFFCURVE",
"294 399 CURVE",
"294 368 LINE",
"369 380 OFFCURVE",
"414 430 OFFCURVE",
"414 522 CURVE SMOOTH",
"414 564 OFFCURVE",
"401 595 OFFCURVE",
"383 616 CURVE"
);
}
);
};
guideLines = (
{
position = "{237, 384}";
},
{
position = "{212, 54}";
},
{
position = "{384, 239}";
}
);
layerId = "0225C979-6A3F-4323-834E-E3153ADD1AE8";
name = Regular;
paths = (
{
closed = 1;
nodes = (
"506 604 LINE",
"506 680 LINE",
"-10 680 LINE",
"-10 604 LINE"
);
},
{
closed = 1;
nodes = (
"308 616 LINE",
"331 587 OFFCURVE",
"341 561 OFFCURVE",
"341 516 CURVE SMOOTH",
"341 444 OFFCURVE",
"314 423 OFFCURVE",
"238 423 CURVE SMOOTH",
"119 423 LINE",
"119 345 LINE",
"238 345 LINE SMOOTH",
"322 345 OFFCURVE",
"352 317 OFFCURVE",
"352 244 CURVE SMOOTH",
"352 162 OFFCURVE",
"314 136 OFFCURVE",
"201 136 CURVE SMOOTH",
"110 136 OFFCURVE",
"66 153 OFFCURVE",
"10 180 CURVE",
"10 100 LINE",
"54 77 OFFCURVE",
"123 54 OFFCURVE",
"214 54 CURVE SMOOTH",
"356 54 OFFCURVE",
"424 110 OFFCURVE",
"424 236 CURVE SMOOTH",
"424 337 OFFCURVE",
"380 384 OFFCURVE",
"295 399 CURVE",
"295 375 LINE",
"365 381 OFFCURVE",
"413 427 OFFCURVE",
"413 519 CURVE SMOOTH",
"413 561 OFFCURVE",
"403 591 OFFCURVE",
"382 616 CURVE"
);
}
);
width = 491;
}
);
leftKerningGroup = "a-deva";
unicode = 0909;
},
{
color = 4;
glyphname = "uu-deva";
lastChange = "2015-01-31 05:52:20 +0000";
layers = (
{
background = {
guideLines = (
{
position = "{317, 386}";
}
);
paths = (
{
closed = 1;
nodes = (
"639 54 OFFCURVE",
"691 110 OFFCURVE",
"691 217 CURVE SMOOTH",
"691 331 OFFCURVE",
"633 387 OFFCURVE",
"528 387 CURVE SMOOTH",
"427 387 OFFCURVE",
"369 336 OFFCURVE",
"369 234 CURVE",
"424 234 LINE",
"424 282 OFFCURVE",
"463 305 OFFCURVE",
"523 305 CURVE SMOOTH",
"598 305 OFFCURVE",
"617 270 OFFCURVE",
"617 218 CURVE SMOOTH",
"617 158 OFFCURVE",
"593 136 OFFCURVE",
"532 136 CURVE SMOOTH",
"522 136 OFFCURVE",
"510 136 OFFCURVE",
"495 138 CURVE",
"495 58 LINE",
"510 55 OFFCURVE",
"529 54 OFFCURVE",
"542 54 CURVE SMOOTH"
);
},
{
closed = 1;
nodes = (
"706 604 LINE",
"706 680 LINE",
"496 680 LINE",
"496 604 LINE"
);
}
);
};
components = (
{
name = "u-deva";
transform = "{1, 0, 0, 1, 0, 0}";
}
);
layerId = "0225C979-6A3F-4323-834E-E3153ADD1AE8";
name = Regular;
paths = (
{
closed = 1;
nodes = (
"639 54 OFFCURVE",
"691 110 OFFCURVE",
"691 217 CURVE SMOOTH",
"691 331 OFFCURVE",
"633 387 OFFCURVE",
"528 387 CURVE SMOOTH",
"427 387 OFFCURVE",
"369 336 OFFCURVE",
"369 234 CURVE",
"424 234 LINE",
"424 282 OFFCURVE",
"463 305 OFFCURVE",
"523 305 CURVE SMOOTH",
"598 305 OFFCURVE",
"617 270 OFFCURVE",
"617 217 CURVE SMOOTH",
"617 158 OFFCURVE",
"593 136 OFFCURVE",
"532 136 CURVE SMOOTH",
"522 136 OFFCURVE",
"510 136 OFFCURVE",
"495 138 CURVE",
"495 58 LINE",
"510 55 OFFCURVE",
"529 54 OFFCURVE",
"542 54 CURVE SMOOTH"
);
},
{
closed = 1;
nodes = (
"686 604 LINE",
"686 680 LINE",
"496 680 LINE",
"496 604 LINE"
);
}
);
width = 676;
}
);
leftKerningGroup = "a-deva";
unicode = 090A;
},
{
color = 4;
glyphname = "rVocalic-deva";
lastChange = "2015-01-31 05:52:20 +0000";
layers = (
{
anchors = (
{
name = bottom;
position = "{385, 0}";
},
{
name = top;
position = "{385, 680}";
}
);
background = {
paths = (
{
closed = 1;
nodes = (
"322 249 LINE",
"165 472 LINE SMOOTH",
"150 494 OFFCURVE",
"136 501 OFFCURVE",
"105 501 CURVE SMOOTH",
"16 501 LINE",
"16 423 LINE",
"67 423 LINE SMOOTH",
"102 423 OFFCURVE",
"108 419 OFFCURVE",
"129 391 CURVE SMOOTH",
"270 204 LINE"
);
},
{
closed = 1;
nodes = (
"419 0 LINE",
"419 614 LINE",
"351 614 LINE",
"351 0 LINE"
);
},
{
closed = 1;
nodes = (
"760 604 LINE",
"760 680 LINE",
"-5 680 LINE",
"-4 604 LINE"
);
},
{
closed = 1;
nodes = (
"541 331 OFFCURVE",
"560 289 OFFCURVE",
"615 289 CURVE",
"615 302 LINE",
"553 290 OFFCURVE",
"516 243 OFFCURVE",
"516 157 CURVE SMOOTH",
"516 53 OFFCURVE",
"571 0 OFFCURVE",
"677 0 CURVE SMOOTH",
"703 0 OFFCURVE",
"729 3 OFFCURVE",
"760 11 CURVE",
"760 93 LINE",
"722 85 OFFCURVE",
"701 82 OFFCURVE",
"676 82 CURVE SMOOTH",
"614 82 OFFCURVE",
"588 101 OFFCURVE",
"588 160 CURVE SMOOTH",
"588 218 OFFCURVE",
"614 239 OFFCURVE",
"700 239 CURVE SMOOTH",
"735 239 LINE",
"735 317 LINE",
"680 317 LINE SMOOTH",
"630 317 OFFCURVE",
"609 336 OFFCURVE",
"609 388 CURVE SMOOTH",
"609 501 LINE",
"556 501 LINE",
"8 1 LINE",
"8 0 LINE",
"113 0 LINE",
"541 392 LINE"
);
}
);
};
layerId = "0225C979-6A3F-4323-834E-E3153ADD1AE8";
name = Regular;
paths = (
{
closed = 1;
nodes = (
"322 249 LINE",
"165 472 LINE SMOOTH",
"150 494 OFFCURVE",
"136 501 OFFCURVE",
"105 501 CURVE SMOOTH",
"16 501 LINE",
"16 423 LINE",
"67 423 LINE SMOOTH",
"102 423 OFFCURVE",
"108 419 OFFCURVE",
"129 391 CURVE SMOOTH",
"270 204 LINE"
);
},
{
closed = 1;
nodes = (
"419 0 LINE",
"419 614 LINE",
"351 614 LINE",
"351 0 LINE"
);
},
{
closed = 1;
nodes = (
"768 604 LINE",
"768 680 LINE",
"-10 680 LINE",
"-9 604 LINE"
);
},
{
closed = 1;
nodes = (
"549 331 OFFCURVE",
"568 289 OFFCURVE",
"623 289 CURVE",
"623 302 LINE",
"561 290 OFFCURVE",
"524 243 OFFCURVE",
"524 157 CURVE SMOOTH",
"524 53 OFFCURVE",
"579 0 OFFCURVE",
"685 0 CURVE SMOOTH",
"711 0 OFFCURVE",
"737 3 OFFCURVE",
"768 11 CURVE",
"768 93 LINE",
"730 85 OFFCURVE",
"709 82 OFFCURVE",
"684 82 CURVE SMOOTH",
"622 82 OFFCURVE",
"596 101 OFFCURVE",
"596 160 CURVE SMOOTH",
"596 218 OFFCURVE",
"622 239 OFFCURVE",
"708 239 CURVE SMOOTH",
"743 239 LINE",
"743 317 LINE",
"688 317 LINE SMOOTH",
"638 317 OFFCURVE",
"617 336 OFFCURVE",
"617 388 CURVE SMOOTH",
"617 501 LINE",
"562 501 LINE",
"11 1 LINE",
"11 0 LINE",
"120 0 LINE",
"577 417 LINE",
"549 417 LINE",
"549 392 LINE"
);
}
);
width = 758;
}
);
leftKerningGroup = "rVocalic-deva";
unicode = 090B;
},
{
color = 4;
glyphname = "rrVocalic-deva";
lastChange = "2015-01-31 05:52:20 +0000";
layers = (
{
anchors = (
{
name = bottom;
position = "{386, 0}";
},
{
name = top;
position = "{386, 680}";
}
);
background = {
paths = (
{
closed = 1;
nodes = (
"322 249 LINE",
"165 472 LINE SMOOTH",
"150 494 OFFCURVE",
"136 501 OFFCURVE",
"105 501 CURVE SMOOTH",
"16 501 LINE",
"16 423 LINE",
"67 423 LINE SMOOTH",
"102 423 OFFCURVE",
"108 419 OFFCURVE",
"129 391 CURVE SMOOTH",
"270 204 LINE"
);
},
{
closed = 1;
nodes = (
"419 0 LINE",
"419 614 LINE",
"351 614 LINE",
"351 0 LINE"
);
},
{
closed = 1;
nodes = (
"768 604 LINE",
"768 680 LINE",
"0 680 LINE",
"1 604 LINE"
);
},
{
closed = 1;
nodes = (
"549 331 OFFCURVE",
"568 289 OFFCURVE",
"623 289 CURVE",
"623 302 LINE",
"561 290 OFFCURVE",
"524 243 OFFCURVE",
"524 157 CURVE SMOOTH",
"524 53 OFFCURVE",
"579 0 OFFCURVE",
"685 0 CURVE SMOOTH",
"711 0 OFFCURVE",
"737 3 OFFCURVE",
"768 11 CURVE",
"768 93 LINE",
"730 85 OFFCURVE",
"709 82 OFFCURVE",
"684 82 CURVE SMOOTH",
"622 82 OFFCURVE",
"596 101 OFFCURVE",
"596 160 CURVE SMOOTH",
"596 218 OFFCURVE",
"622 239 OFFCURVE",
"708 239 CURVE SMOOTH",
"743 239 LINE",
"743 317 LINE",
"688 317 LINE SMOOTH",
"638 317 OFFCURVE",
"617 336 OFFCURVE",
"617 388 CURVE SMOOTH",
"617 501 LINE",
"562 501 LINE",
"11 1 LINE",
"11 0 LINE",
"120 0 LINE",
"577 417 LINE",
"549 417 LINE",
"549 392 LINE"
);
}
);
};
layerId = "0225C979-6A3F-4323-834E-E3153ADD1AE8";
name = Regular;
paths = (
{
closed = 1;
nodes = (
"419 0 LINE",
"419 614 LINE",
"351 614 LINE",
"351 0 LINE"
);
},
{
closed = 1;
nodes = (
"768 604 LINE",
"768 680 LINE",
"-10 680 LINE",
"-9 604 LINE"
);
},
{
closed = 1;
nodes = (
"11 1 LINE",
"11 0 LINE",
"120 0 LINE",
"577 417 LINE",
"549 417 LINE",
"549 392 LINE SMOOTH",
"549 341 OFFCURVE",
"577 297 OFFCURVE",
"623 291 CURVE",
"623 316 LINE",
"557 299 OFFCURVE",
"524 246 OFFCURVE",
"524 179 CURVE SMOOTH",
"524 110 OFFCURVE",
"558 64 OFFCURVE",
"613 56 CURVE",
"578 40 OFFCURVE",
"549 7 OFFCURVE",
"549 -59 CURVE SMOOTH",
"549 -150 OFFCURVE",
"603 -210 OFFCURVE",
"713 -210 CURVE SMOOTH",
"738 -210 OFFCURVE",
"761 -207 OFFCURVE",
"793 -199 CURVE",
"793 -117 LINE",
"760 -124 OFFCURVE",
"736 -128 OFFCURVE",
"708 -128 CURVE SMOOTH",
"650 -128 OFFCURVE",
"621 -111 OFFCURVE",
"621 -56 CURVE SMOOTH",
"621 -8 OFFCURVE",
"643 21 OFFCURVE",
"706 21 CURVE SMOOTH",
"768 21 LINE",
"768 99 LINE",
"678 99 LINE SMOOTH",
"623 99 OFFCURVE",
"596 122 OFFCURVE",
"596 173 CURVE SMOOTH",
"596 222 OFFCURVE",
"621 249 OFFCURVE",
"701 249 CURVE SMOOTH",
"716 249 OFFCURVE",
"730 248 OFFCURVE",
"748 244 CURVE",
"748 322 LINE",
"728 327 OFFCURVE",
"717 327 OFFCURVE",
"688 327 CURVE SMOOTH",
"634 327 OFFCURVE",
"617 355 OFFCURVE",
"617 409 CURVE SMOOTH",
"617 501 LINE",
"562 501 LINE"
);
},
{
closed = 1;
nodes = (
"322 249 LINE",
"165 472 LINE SMOOTH",
"150 494 OFFCURVE",
"136 501 OFFCURVE",
"105 501 CURVE SMOOTH",
"16 501 LINE",
"16 423 LINE",
"67 423 LINE SMOOTH",
"102 423 OFFCURVE",
"108 419 OFFCURVE",
"129 391 CURVE SMOOTH",
"270 204 LINE"
);
}
);
width = 758;
}
);
leftKerningGroup = "rVocalic-deva";
unicode = 0960;
},
{
color = 4;
glyphname = "lVocalic-deva";
lastChange = "2015-01-31 05:52:20 +0000";
layers = (
{
anchors = (
{
name = bottom;
position = "{428, 0}";
},
{
name = nukta;
position = "{43, -65}";
},
{
name = top;
position = "{518, 680}";
}
);
background = {
paths = (
{
closed = 1;
nodes = (
"685 391 OFFCURVE",
"638 467 OFFCURVE",
"507 467 CURVE SMOOTH",
"439 467 OFFCURVE",
"390 450 OFFCURVE",
"365 393 CURVE",
"340 450 OFFCURVE",
"291 467 OFFCURVE",
"223 467 CURVE SMOOTH",
"89 467 OFFCURVE",
"45 388 OFFCURVE",
"45 240 CURVE SMOOTH",
"45 132 OFFCURVE",
"65 67 OFFCURVE",
"111 32 CURVE SMOOTH",
"140 10 OFFCURVE",
"174 0 OFFCURVE",
"257 0 CURVE SMOOTH",
"285 0 LINE",
"285 78 LINE",
"266 78 LINE SMOOTH",
"226 78 OFFCURVE",
"177 79 OFFCURVE",
"153 97 CURVE SMOOTH",
"124 118 OFFCURVE",
"117 170 OFFCURVE",
"117 230 CURVE SMOOTH",
"117 330 OFFCURVE",
"138 385 OFFCURVE",
"229 385 CURVE SMOOTH",
"306 385 OFFCURVE",
"334 347 OFFCURVE",
"334 247 CURVE SMOOTH",
"334 208 LINE",
"396 208 LINE",
"396 247 LINE SMOOTH",
"396 347 OFFCURVE",
"424 385 OFFCURVE",
"501 385 CURVE SMOOTH",
"577 385 OFFCURVE",
"613 348 OFFCURVE",
"613 260 CURVE SMOOTH",
"613 80 OFFCURVE",
"465 162 OFFCURVE",
"465 -3 CURVE SMOOTH",
"465 -95 OFFCURVE",
"518 -150 OFFCURVE",
"628 -150 CURVE SMOOTH",
"664 -150 OFFCURVE",
"690 -146 OFFCURVE",
"710 -139 CURVE",
"710 -57 LINE",
"685 -65 OFFCURVE",
"661 -68 OFFCURVE",
"632 -68 CURVE SMOOTH",
"573 -68 OFFCURVE",
"537 -56 OFFCURVE",
"537 -4 CURVE SMOOTH",
"537 99 OFFCURVE",
"685 45 OFFCURVE",
"685 263 CURVE SMOOTH"
);
}
);
};
layerId = "0225C979-6A3F-4323-834E-E3153ADD1AE8";
name = Regular;
paths = (
{
closed = 1;
nodes = (
"685 391 OFFCURVE",
"638 467 OFFCURVE",
"504 467 CURVE SMOOTH",
"440 467 OFFCURVE",
"390 450 OFFCURVE",
"365 393 CURVE",
"340 450 OFFCURVE",
"290 467 OFFCURVE",
"226 467 CURVE SMOOTH",
"87 467 OFFCURVE",
"45 388 OFFCURVE",
"45 237 CURVE SMOOTH",
"45 123 OFFCURVE",
"69 65 OFFCURVE",
"111 32 CURVE SMOOTH",
"140 10 OFFCURVE",
"174 0 OFFCURVE",
"257 0 CURVE SMOOTH",
"285 0 LINE",
"285 78 LINE",
"266 78 LINE SMOOTH",
"226 78 OFFCURVE",
"177 79 OFFCURVE",
"153 97 CURVE SMOOTH",
"124 118 OFFCURVE",
"117 170 OFFCURVE",
"117 229 CURVE SMOOTH",
"117 331 OFFCURVE",
"138 385 OFFCURVE",
"229 385 CURVE SMOOTH",
"306 385 OFFCURVE",
"334 347 OFFCURVE",
"334 247 CURVE SMOOTH",
"334 208 LINE",
"396 208 LINE",
"396 247 LINE SMOOTH",
"396 347 OFFCURVE",
"424 385 OFFCURVE",
"501 385 CURVE SMOOTH",
"577 385 OFFCURVE",
"613 348 OFFCURVE",
"613 260 CURVE SMOOTH",
"613 81 OFFCURVE",
"465 160 OFFCURVE",
"465 -1 CURVE SMOOTH",
"465 -95 OFFCURVE",
"516 -150 OFFCURVE",
"632 -150 CURVE SMOOTH",
"663 -150 OFFCURVE",
"690 -146 OFFCURVE",
"710 -139 CURVE",
"710 -57 LINE",
"685 -65 OFFCURVE",
"661 -68 OFFCURVE",
"632 -68 CURVE SMOOTH",
"573 -68 OFFCURVE",
"537 -56 OFFCURVE",
"537 -4 CURVE SMOOTH",
"537 100 OFFCURVE",
"685 42 OFFCURVE",
"685 265 CURVE SMOOTH"
);
},
{
closed = 1;
nodes = (
"740 604 LINE",
"740 680 LINE",
"-10 680 LINE",
"-10 604 LINE"
);
},
{
closed = 1;
nodes = (
"553 441 LINE",
"553 614 LINE",
"483 614 LINE",
"483 441 LINE"
);
}
);
width = 730;
}
);
leftKerningGroup = "la-deva";
leftMetricsKey = "la-deva.loclMAR";
rightKerningGroup = la_deva;
rightMetricsKey = "pa-deva";
unicode = 090C;
},
{
color = 4;
glyphname = "llVocalic-deva";
lastChange = "2015-01-31 05:52:20 +0000";
layers = (
{
anchors = (
{
name = bottom;
position = "{430, 0}";
},
{
name = nukta;
position = "{45, -65}";
},
{
name = top;
position = "{518, 680}";
}
);
background = {
guideLines = (
{
position = "{439, -150}";
},
{
position = "{620, 259}";
}
);
paths = (
{
closed = 1;
nodes = (
"669 -359 OFFCURVE",
"694 -356 OFFCURVE",
"717 -348 CURVE",
"717 -266 LINE",
"693 -274 OFFCURVE",
"670 -277 OFFCURVE",
"641 -277 CURVE SMOOTH",
"569 -277 OFFCURVE",
"544 -259 OFFCURVE",
"544 -214 CURVE SMOOTH",
"544 -165 OFFCURVE",
"574 -140 OFFCURVE",
"635 -140 CURVE",
"625 -105 LINE",
"518 -105 OFFCURVE",
"472 -142 OFFCURVE",
"472 -227 CURVE SMOOTH",
"472 -319 OFFCURVE",
"521 -359 OFFCURVE",
"634 -359 CURVE SMOOTH"
);
},
{
closed = 1;
nodes = (
"740 604 LINE",
"740 680 LINE",
"0 680 LINE",
"0 604 LINE"
);
},
{
closed = 1;
nodes = (
"685 391 OFFCURVE",
"638 467 OFFCURVE",
"507 467 CURVE SMOOTH",
"439 467 OFFCURVE",
"390 450 OFFCURVE",
"365 393 CURVE",
"340 450 OFFCURVE",
"291 467 OFFCURVE",
"223 467 CURVE SMOOTH",
"89 467 OFFCURVE",
"45 388 OFFCURVE",
"45 240 CURVE SMOOTH",
"45 132 OFFCURVE",
"65 67 OFFCURVE",
"111 32 CURVE SMOOTH",
"140 10 OFFCURVE",
"174 0 OFFCURVE",
"257 0 CURVE SMOOTH",
"285 0 LINE",
"285 78 LINE",
"266 78 LINE SMOOTH",
"226 78 OFFCURVE",
"177 79 OFFCURVE",
"153 97 CURVE SMOOTH",
"124 118 OFFCURVE",
"117 170 OFFCURVE",
"117 230 CURVE SMOOTH",
"117 330 OFFCURVE",
"138 385 OFFCURVE",
"229 385 CURVE SMOOTH",
"306 385 OFFCURVE",
"334 347 OFFCURVE",
"334 247 CURVE SMOOTH",
"334 208 LINE",
"396 208 LINE",
"396 247 LINE SMOOTH",
"396 347 OFFCURVE",
"424 385 OFFCURVE",
"501 385 CURVE SMOOTH",
"577 385 OFFCURVE",
"613 348 OFFCURVE",
"613 260 CURVE SMOOTH",
"613 80 OFFCURVE",
"465 162 OFFCURVE",
"465 2 CURVE SMOOTH",
"465 -85 OFFCURVE",
"518 -140 OFFCURVE",
"628 -140 CURVE SMOOTH",
"664 -140 OFFCURVE",
"690 -136 OFFCURVE",
"710 -129 CURVE",
"710 -47 LINE",
"685 -55 OFFCURVE",
"661 -58 OFFCURVE",
"632 -58 CURVE SMOOTH",
"573 -58 OFFCURVE",
"537 -46 OFFCURVE",
"537 1 CURVE SMOOTH",
"537 99 OFFCURVE",
"685 45 OFFCURVE",
"685 263 CURVE SMOOTH"
);
},
{
closed = 1;
nodes = (
"553 441 LINE",
"553 614 LINE",
"483 614 LINE",
"483 441 LINE"
);
}
);
};
layerId = "0225C979-6A3F-4323-834E-E3153ADD1AE8";
name = Regular;
paths = (
{
closed = 1;
nodes = (
"668 -359 OFFCURVE",
"694 -356 OFFCURVE",
"717 -348 CURVE",
"717 -266 LINE",
"693 -274 OFFCURVE",
"670 -277 OFFCURVE",
"641 -277 CURVE SMOOTH",
"569 -277 OFFCURVE",
"544 -259 OFFCURVE",
"544 -214 CURVE SMOOTH",
"544 -165 OFFCURVE",
"574 -140 OFFCURVE",
"635 -140 CURVE",
"625 -105 LINE",
"517 -105 OFFCURVE",
"472 -142 OFFCURVE",
"472 -229 CURVE SMOOTH",
"472 -319 OFFCURVE",
"521 -359 OFFCURVE",
"636 -359 CURVE SMOOTH"
);
},
{
closed = 1;
nodes = (
"740 604 LINE",
"740 680 LINE",
"-10 680 LINE",
"-10 604 LINE"
);
},
{
closed = 1;
nodes = (
"685 391 OFFCURVE",
"638 467 OFFCURVE",
"504 467 CURVE SMOOTH",
"440 467 OFFCURVE",
"390 450 OFFCURVE",
"365 393 CURVE",
"340 450 OFFCURVE",
"290 467 OFFCURVE",
"226 467 CURVE SMOOTH",
"87 467 OFFCURVE",
"45 388 OFFCURVE",
"45 237 CURVE SMOOTH",
"45 123 OFFCURVE",
"69 65 OFFCURVE",
"111 32 CURVE SMOOTH",
"140 10 OFFCURVE",
"174 0 OFFCURVE",
"257 0 CURVE SMOOTH",
"285 0 LINE",
"285 78 LINE",
"266 78 LINE SMOOTH",
"226 78 OFFCURVE",
"177 79 OFFCURVE",
"153 97 CURVE SMOOTH",
"124 118 OFFCURVE",
"117 170 OFFCURVE",
"117 229 CURVE SMOOTH",
"117 331 OFFCURVE",
"138 385 OFFCURVE",
"229 385 CURVE SMOOTH",
"306 385 OFFCURVE",
"334 347 OFFCURVE",
"334 247 CURVE SMOOTH",
"334 208 LINE",
"396 208 LINE",
"396 247 LINE SMOOTH",
"396 347 OFFCURVE",
"424 385 OFFCURVE",
"501 385 CURVE SMOOTH",
"577 385 OFFCURVE",
"613 348 OFFCURVE",
"613 260 CURVE SMOOTH",
"613 81 OFFCURVE",
"465 159 OFFCURVE",
"465 4 CURVE SMOOTH",
"465 -88 OFFCURVE",
"518 -140 OFFCURVE",
"632 -140 CURVE SMOOTH",
"663 -140 OFFCURVE",
"690 -136 OFFCURVE",
"710 -129 CURVE",
"710 -47 LINE",
"685 -55 OFFCURVE",
"661 -58 OFFCURVE",
"632 -58 CURVE SMOOTH",
"572 -58 OFFCURVE",
"537 -46 OFFCURVE",
"537 1 CURVE SMOOTH",
"537 99 OFFCURVE",
"685 42 OFFCURVE",
"685 265 CURVE SMOOTH"
);
},
{
closed = 1;
nodes = (
"553 441 LINE",
"553 614 LINE",
"483 614 LINE",
"483 441 LINE"
);
}
);
width = 730;
}
);
leftKerningGroup = "la-deva";
leftMetricsKey = "l-deva.loclMAR";
rightKerningGroup = la_deva;
rightMetricsKey = "pa-deva";
unicode = 0961;
},
{
color = 4;
glyphname = "eCandra-deva";
lastChange = "2015-01-31 05:52:20 +0000";
layers = (
{
background = {
anchors = (
{
name = top;
position = "{315, 817}";
}
);
paths = (
{
closed = 1;
nodes = (
"96 616 LINE",
"96 212 LINE SMOOTH",
"96 64 OFFCURVE",
"172 0 OFFCURVE",
"317 0 CURVE SMOOTH",
"372 0 OFFCURVE",
"434 7 OFFCURVE",
"477 22 CURVE",
"477 102 LINE",
"425 86 OFFCURVE",
"368 80 OFFCURVE",
"320 80 CURVE SMOOTH",
"206 80 OFFCURVE",
"166 113 OFFCURVE",
"166 209 CURVE SMOOTH",
"166 616 LINE"
);
},
{
closed = 1;
nodes = (
"512 616 LINE",
"442 616 LINE",
"442 381 LINE SMOOTH",
"442 327 OFFCURVE",
"420 310 OFFCURVE",
"358 310 CURVE SMOOTH",
"337 310 OFFCURVE",
"311 312 OFFCURVE",
"289 317 CURVE",
"289 237 LINE",
"308 231 OFFCURVE",
"333 230 OFFCURVE",
"362 230 CURVE SMOOTH",
"472 230 OFFCURVE",
"512 275 OFFCURVE",
"512 377 CURVE SMOOTH"
);
},
{
closed = 1;
nodes = (
"0 680 LINE",
"0 606 LINE",
"618 606 LINE",
"618 680 LINE"
);
},
{
closed = 1;
nodes = (
"405 779 OFFCURVE",
"459 823 OFFCURVE",
"459 905 CURVE SMOOTH",
"459 915 LINE",
"399 915 LINE",
"399 910 LINE SMOOTH",
"399 870 OFFCURVE",
"367 849 OFFCURVE",
"304 849 CURVE SMOOTH",
"241 849 OFFCURVE",
"209 870 OFFCURVE",
"209 910 CURVE SMOOTH",
"209 915 LINE",
"149 915 LINE",
"149 905 LINE SMOOTH",
"149 823 OFFCURVE",
"203 779 OFFCURVE",
"304 779 CURVE SMOOTH"
);
}
);
};
components = (
{
name = "eCandraMatra-deva";
transform = "{1, 0, 0, 1, 179, 0}";
},
{
name = "e-deva";
transform = "{1, 0, 0, 1, 0, 0}";
}
);
layerId = "0225C979-6A3F-4323-834E-E3153ADD1AE8";
name = Regular;
width = 604;
}
);
leftKerningGroup = "e-deva";
rightKerningGroup = "pa-deva";
unicode = 090D;
},
{
color = 4;
glyphname = "e-deva";
lastChange = "2015-01-31 05:52:20 +0000";
layers = (
{
anchors = (
{
name = bottom;
position = "{315, 0}";
},
{
name = top;
position = "{474, 680}";
}
);
background = {
paths = (
{
closed = 1;
nodes = (
"94 616 LINE",
"94 212 LINE SMOOTH",
"94 64 OFFCURVE",
"170 0 OFFCURVE",
"315 0 CURVE SMOOTH",
"370 0 OFFCURVE",
"432 7 OFFCURVE",
"475 22 CURVE",
"475 102 LINE",
"423 86 OFFCURVE",
"366 80 OFFCURVE",
"318 80 CURVE SMOOTH",
"204 80 OFFCURVE",
"164 113 OFFCURVE",
"164 209 CURVE SMOOTH",
"164 616 LINE"
);
},
{
closed = 1;
nodes = (
"510 616 LINE",
"440 616 LINE",
"440 381 LINE SMOOTH",
"440 327 OFFCURVE",
"418 310 OFFCURVE",
"356 310 CURVE SMOOTH",
"335 310 OFFCURVE",
"309 312 OFFCURVE",
"287 315 CURVE",
"287 235 LINE",
"306 231 OFFCURVE",
"331 230 OFFCURVE",
"360 230 CURVE SMOOTH",
"470 230 OFFCURVE",
"510 275 OFFCURVE",
"510 377 CURVE SMOOTH"
);
},
{
closed = 1;
nodes = (
"-2 680 LINE",
"-2 606 LINE",
"616 606 LINE",
"616 680 LINE"
);
}
);
};
layerId = "0225C979-6A3F-4323-834E-E3153ADD1AE8";
name = Regular;
paths = (
{
closed = 1;
nodes = (
"96 614 LINE",
"96 212 LINE SMOOTH",
"96 62 OFFCURVE",
"173 0 OFFCURVE",
"319 0 CURVE SMOOTH",
"368 0 OFFCURVE",
"432 7 OFFCURVE",
"475 22 CURVE",
"475 102 LINE",
"423 86 OFFCURVE",
"366 80 OFFCURVE",
"318 80 CURVE SMOOTH",
"204 80 OFFCURVE",
"164 113 OFFCURVE",
"164 209 CURVE SMOOTH",
"164 614 LINE"
);
},
{
closed = 1;
nodes = (
"508 614 LINE",
"440 614 LINE",
"440 381 LINE SMOOTH",
"440 327 OFFCURVE",
"418 310 OFFCURVE",
"356 310 CURVE SMOOTH",
"335 310 OFFCURVE",
"309 312 OFFCURVE",
"287 315 CURVE",
"287 235 LINE",
"306 231 OFFCURVE",
"334 230 OFFCURVE",
"352 230 CURVE SMOOTH",
"468 230 OFFCURVE",
"508 272 OFFCURVE",
"508 377 CURVE SMOOTH"
);
},
{
closed = 1;
nodes = (
"-10 680 LINE",
"-10 604 LINE",
"614 604 LINE",
"614 680 LINE"
);
}
);
width = 604;
}
);
leftKerningGroup = "e-deva";
rightKerningGroup = "pa-deva";
unicode = 090F;
},
{
color = 4;
glyphname = "oCandra-deva";
lastChange = "2015-01-31 05:52:20 +0000";
layers = (
{
background = {
anchors = (
{
name = nukta;
position = "{780, 0}";
},
{
name = bottom;
position = "{909, 0}";
},
{
name = top;
position = "{909, 680}";
}
);
components = (
{
name = "a-deva";
transform = "{1, 0, 0, 1, 0, 0}";
}
);
guideLines = (
{
angle = 90;
position = "{909, 616}";
}
);
paths = (
{
closed = 1;
nodes = (
"874 616 LINE",
"874 0 LINE",
"944 0 LINE",
"944 616 LINE"
);
},
{
closed = 1;
nodes = (
"778 680 LINE",
"778 606 LINE",
"1050 606 LINE",
"1050 680 LINE"
);
},
{
closed = 1;
nodes = (
"1010 779 OFFCURVE",
"1064 823 OFFCURVE",
"1064 905 CURVE SMOOTH",
"1064 915 LINE",
"1004 915 LINE",
"1004 910 LINE SMOOTH",
"1004 870 OFFCURVE",
"972 849 OFFCURVE",
"909 849 CURVE SMOOTH",
"846 849 OFFCURVE",
"814 870 OFFCURVE",
"814 910 CURVE SMOOTH",
"814 915 LINE",
"754 915 LINE",
"754 905 LINE SMOOTH",
"754 823 OFFCURVE",
"808 779 OFFCURVE",
"909 779 CURVE SMOOTH"
);
}
);
};
components = (
{
name = "aa-deva";
transform = "{1, 0, 0, 1, 0, 0}";
},
{
name = "eCandraMatra-deva";
transform = "{1, 0, 0, 1, 505, 0}";
}
);
layerId = "0225C979-6A3F-4323-834E-E3153ADD1AE8";
name = Regular;
width = 1016;
}
);
leftKerningGroup = "a-deva";
rightKerningGroup = "pa-deva";
unicode = 0911;
},
{
color = 4;
glyphname = "aaMatra-deva";
lastChange = "2015-01-31 05:52:20 +0000";
layers = (
{
anchors = (
{
name = bottom;
position = "{130, 0}";
},
{
name = top;
position = "{130, 680}";
}
);
background = {
paths = (
{
closed = 1;
nodes = (
"96 616 LINE",
"96 0 LINE",
"166 0 LINE",
"166 616 LINE"
);
},
{
closed = 1;
nodes = (
"0 680 LINE",
"0 606 LINE",
"277 606 LINE",
"277 680 LINE"
);
}
);
};
layerId = "0225C979-6A3F-4323-834E-E3153ADD1AE8";
name = Regular;
paths = (
{
closed = 1;
nodes = (
"96 614 LINE",
"96 0 LINE",
"164 0 LINE",
"164 614 LINE"
);
},
{
closed = 1;
nodes = (
"-10 680 LINE",
"-10 604 LINE",
"270 604 LINE",
"270 680 LINE"
);
}
);
width = 260;
}
);
leftKerningGroup = matras;
rightKerningGroup = "pa-deva";
rightMetricsKey = "pa-deva";
unicode = 093E;
},
{
color = 4;
glyphname = "iMatra-deva";
lastChange = "2015-01-31 05:52:20 +0000";
layers = (
{
anchors = (
{
name = imatra;
position = "{517, 807}";
},
{
name = top;
position = "{483, 811}";
}
);
background = {
anchors = (
{
name = imatra;
position = "{2349, 807}";
},
{
name = top;
position = "{2315, 773}";
}
);
components = (
{
name = "aaMatra-deva";
transform = "{1, 0, 0, 1, 0, 0}";
}
);
paths = (
{
closed = 1;
nodes = (
"163 670 LINE",
"150 695 OFFCURVE",
"139 734 OFFCURVE",
"139 775 CURVE SMOOTH",
"139 870 OFFCURVE",
"197 877 OFFCURVE",
"543 877 CURVE SMOOTH",
"1260 877 OFFCURVE",
"1704 841 OFFCURVE",
"2349 737 CURVE",
"2349 807 LINE",
"1804 902 OFFCURVE",
"1267 953 OFFCURVE",
"557 953 CURVE SMOOTH",
"182 953 OFFCURVE",
"71 941 OFFCURVE",
"71 789 CURVE SMOOTH",
"71 748 OFFCURVE",
"79 712 OFFCURVE",
"98 670 CURVE"
);
}
);
};
components = (
{
name = "aaMatra-deva";
transform = "{1, 0, 0, 1, 0, 0}";
}
);
guideLines = (
{
angle = 90;
position = "{2350, 717}";
},
{
angle = 90;
position = "{2282, 717}";
}
);
layerId = "0225C979-6A3F-4323-834E-E3153ADD1AE8";
name = Regular;
paths = (
{
closed = 1;
nodes = (
"162 670 LINE",
"145 713 OFFCURVE",
"139 741 OFFCURVE",
"139 782 CURVE SMOOTH",
"139 847 OFFCURVE",
"170 877 OFFCURVE",
"255 877 CURVE SMOOTH",
"347 877 OFFCURVE",
"434 839 OFFCURVE",
"517 741 CURVE",
"517 807 LINE",
"445 899 OFFCURVE",
"352 953 OFFCURVE",
"253 953 CURVE SMOOTH",
"137 953 OFFCURVE",
"71 888 OFFCURVE",
"71 795 CURVE SMOOTH",
"71 746 OFFCURVE",
"81 705 OFFCURVE",
"98 670 CURVE"
);
}
);
width = 260;
},
{
anchors = (
{
name = imatra;
position = "{537, 830}";
},
{
name = top;
position = "{503, 830}";
}
);
associatedMasterId = "0225C979-6A3F-4323-834E-E3153ADD1AE8";
background = {
paths = (
{
closed = 1;
nodes = (
"164 670 LINE",
"164 760 LINE SMOOTH",
"164 849 OFFCURVE",
"191 877 OFFCURVE",
"283 877 CURVE SMOOTH",
"402 877 OFFCURVE",
"483 819 OFFCURVE",
"537 760 CURVE",
"537 830 LINE",
"480 903 OFFCURVE",
"392 953 OFFCURVE",
"283 953 CURVE SMOOTH",
"149 953 OFFCURVE",
"96 891 OFFCURVE",
"96 764 CURVE SMOOTH",
"96 670 LINE"
);
},
{
closed = 0;
nodes = (
"283 877 LINE"
);
},
{
closed = 0;
nodes = (
"283 953 LINE"
);
}
);
};
components = (
{
name = "aaMatra-deva";
transform = "{1, 0, 0, 1, 0, 0}";
}
);
guideLines = (
{
angle = 90;
position = "{537, 706}";
},
{
angle = 90;
position = "{479, 706}";
},
{
angle = 90;
position = "{2349, 823}";
}
);
layerId = "5D3A3C1C-8B38-48AB-8188-3603F86AA8C7";
name = "Regular Jan 29 15, 13:07";
paths = (
{
closed = 1;
nodes = (
"164 670 LINE",
"164 760 LINE SMOOTH",
"164 849 OFFCURVE",
"191 877 OFFCURVE",
"283 877 CURVE SMOOTH",
"402 877 OFFCURVE",
"483 819 OFFCURVE",
"537 760 CURVE",
"537 830 LINE",
"480 903 OFFCURVE",
"392 953 OFFCURVE",
"283 953 CURVE SMOOTH",
"149 953 OFFCURVE",
"96 891 OFFCURVE",
"96 764 CURVE SMOOTH",
"96 670 LINE"
);
},
{
closed = 0;
nodes = (
"283 877 LINE"
);
},
{
closed = 0;
nodes = (
"283 953 LINE"
);
}
);
width = 260;
},
{
anchors = (
{
name = imatra;
position = "{537, 830}";
},
{
name = top;
position = "{503, 816}";
}
);
associatedMasterId = "0225C979-6A3F-4323-834E-E3153ADD1AE8";
background = {
anchors = (
{
name = imatra;
position = "{2349, 830}";
},
{
name = top;
position = "{2315, 796}";
}
);
components = (
{
name = "aaMatra-deva";
transform = "{1, 0, 0, 1, 0, 0}";
}
);
paths = (
{
closed = 1;
nodes = (
"164 670 LINE",
"164 725 LINE SMOOTH",
"164 847 OFFCURVE",
"204 877 OFFCURVE",
"414 877 CURVE SMOOTH",
"1249 877 OFFCURVE",
"1646 854 OFFCURVE",
"2349 760 CURVE",
"2349 830 LINE",
"1751 916 OFFCURVE",
"1284 953 OFFCURVE",
"414 953 CURVE SMOOTH",
"159 953 OFFCURVE",
"96 900 OFFCURVE",
"96 729 CURVE SMOOTH",
"96 670 LINE"
);
}
);
};
components = (
{
name = "aaMatra-deva";
transform = "{1, 0, 0, 1, 0, 0}";
}
);
layerId = "DFEA0E65-51D7-48E8-ACE6-0B06C1D01862";
name = "Regular Jan 29 15, 13:26";
paths = (
{
closed = 1;
nodes = (
"162 670 LINE",
"149 707 OFFCURVE",
"139 743 OFFCURVE",
"139 780 CURVE SMOOTH",
"139 846 OFFCURVE",
"168 877 OFFCURVE",
"257 877 CURVE SMOOTH",
"391 877 OFFCURVE",
"479 819 OFFCURVE",
"537 760 CURVE",
"537 830 LINE",
"476 895 OFFCURVE",
"381 953 OFFCURVE",
"257 953 CURVE SMOOTH",
"134 953 OFFCURVE",
"71 886 OFFCURVE",
"71 791 CURVE SMOOTH",
"71 746 OFFCURVE",
"81 708 OFFCURVE",
"98 670 CURVE"
);
}
);
width = 260;
},
{
anchors = (
{
name = imatra;
position = "{2349, 830}";
},
{
name = top;
position = "{2315, 796}";
}
);
associatedMasterId = "0225C979-6A3F-4323-834E-E3153ADD1AE8";
background = {
anchors = (
{
name = imatra;
position = "{537, 830}";
},
{
name = top;
position = "{503, 816}";
}
);
components = (
{
name = "aaMatra-deva";
transform = "{1, 0, 0, 1, 0, 0}";
}
);
paths = (
{
closed = 1;
nodes = (
"162 670 LINE",
"145 713 OFFCURVE",
"139 741 OFFCURVE",
"139 772 CURVE SMOOTH",
"139 847 OFFCURVE",
"173 877 OFFCURVE",
"265 877 CURVE SMOOTH",
"361 877 OFFCURVE",
"451 845 OFFCURVE",
"537 761 CURVE",
"537 827 LINE",
"462 906 OFFCURVE",
"366 953 OFFCURVE",
"263 953 CURVE SMOOTH",
"141 953 OFFCURVE",
"71 888 OFFCURVE",
"71 785 CURVE SMOOTH",
"71 746 OFFCURVE",
"81 705 OFFCURVE",
"98 670 CURVE"
);
}
);
};
components = (
{
name = "aaMatra-deva";
transform = "{1, 0, 0, 1, 0, 0}";
}
);
guideLines = (
{
angle = 90;
position = "{2350, 717}";
},
{
angle = 90;
position = "{2282, 717}";
}
);
layerId = "17F351A8-7701-486D-B073-45979D594E2D";
name = "Regular Jan 29 15, 14:48";
paths = (
{
closed = 1;
nodes = (
"164 670 LINE",
"164 688 OFFCURVE",
"164 707 OFFCURVE",
"164 725 CURVE SMOOTH",
"164 847 OFFCURVE",
"204 877 OFFCURVE",
"414 877 CURVE SMOOTH",
"1249 877 OFFCURVE",
"1646 854 OFFCURVE",
"2349 760 CURVE",
"2349 830 LINE",
"1751 916 OFFCURVE",
"1284 953 OFFCURVE",
"414 953 CURVE SMOOTH",
"159 953 OFFCURVE",
"96 900 OFFCURVE",
"96 729 CURVE SMOOTH",
"96 709 OFFCURVE",
"96 690 OFFCURVE",
"96 670 CURVE"
);
}
);
width = 260;
},
{
anchors = (
{
name = imatra;
position = "{537, 830}";
},
{
name = top;
position = "{503, 816}";
}
);
associatedMasterId = "0225C979-6A3F-4323-834E-E3153ADD1AE8";
background = {
anchors = (
{
name = imatra;
position = "{2349, 830}";
},
{
name = top;
position = "{2315, 796}";
}
);
components = (
{
name = "aaMatra-deva";
transform = "{1, 0, 0, 1, 0, 0}";
}
);
paths = (
{
closed = 1;
nodes = (
"163 670 LINE",
"150 695 OFFCURVE",
"139 734 OFFCURVE",
"139 775 CURVE SMOOTH",
"139 870 OFFCURVE",
"197 877 OFFCURVE",
"543 877 CURVE SMOOTH",
"1260 877 OFFCURVE",
"1704 847 OFFCURVE",
"2349 760 CURVE",
"2349 830 LINE",
"1804 910 OFFCURVE",
"1267 953 OFFCURVE",
"557 953 CURVE SMOOTH",
"182 953 OFFCURVE",
"71 941 OFFCURVE",
"71 789 CURVE SMOOTH",
"71 748 OFFCURVE",
"79 712 OFFCURVE",
"98 670 CURVE"
);
}
);
};
components = (
{
name = "aaMatra-deva";
transform = "{1, 0, 0, 1, 0, 0}";
}
);
guideLines = (
{
angle = 90;
position = "{2350, 717}";
},
{
angle = 90;
position = "{2282, 717}";
}
);
layerId = "F8016F4B-D85C-4D65-A19B-267CD8009FCA";
name = "Regular Jan 29 15, 15:18";
paths = (
{
closed = 1;
nodes = (
"162 670 LINE",
"145 713 OFFCURVE",
"139 741 OFFCURVE",
"139 772 CURVE SMOOTH",
"139 847 OFFCURVE",
"173 877 OFFCURVE",
"265 877 CURVE SMOOTH",
"361 877 OFFCURVE",
"451 845 OFFCURVE",
"537 761 CURVE",
"537 827 LINE",
"462 906 OFFCURVE",
"366 953 OFFCURVE",
"263 953 CURVE SMOOTH",
"141 953 OFFCURVE",
"71 888 OFFCURVE",
"71 785 CURVE SMOOTH",
"71 746 OFFCURVE",
"81 705 OFFCURVE",
"98 670 CURVE"
);
}
);
width = 260;
}
);
leftKerningGroup = matras;
rightKerningGroup = "pa-deva";
unicode = 093F;
},
{
color = 4;
glyphname = "iMatra_reph-deva";
lastChange = "2015-01-31 05:52:20 +0000";
layers = (
{
anchors = (
{
name = imatra;
position = "{657, 945}";
}
);
background = {
paths = (
{
closed = 1;
nodes = (
"162 670 LINE",
"145 713 OFFCURVE",
"139 741 OFFCURVE",
"139 772 CURVE SMOOTH",
"139 847 OFFCURVE",
"173 877 OFFCURVE",
"265 877 CURVE SMOOTH",
"361 877 OFFCURVE",
"451 845 OFFCURVE",
"537 761 CURVE",
"537 804 LINE SMOOTH",
"537 862 OFFCURVE",
"556 878 OFFCURVE",
"626 878 CURVE SMOOTH",
"644 878 OFFCURVE",
"661 877 OFFCURVE",
"677 872 CURVE",
"677 952 LINE",
"652 958 OFFCURVE",
"630 960 OFFCURVE",
"608 960 CURVE SMOOTH",
"507 960 OFFCURVE",
"469 920 OFFCURVE",
"469 830 CURVE",
"500 862 LINE",
"431 920 OFFCURVE",
"350 953 OFFCURVE",
"263 953 CURVE SMOOTH",
"141 953 OFFCURVE",
"71 888 OFFCURVE",
"71 785 CURVE SMOOTH",
"71 746 OFFCURVE",
"81 705 OFFCURVE",
"98 670 CURVE"
);
}
);
};
components = (
{
name = "aaMatra-deva";
transform = "{1, 0, 0, 1, 0, 0}";
}
);
guideLines = (
{
angle = 90;
position = "{2349, 604}";
},
{
angle = 90;
position = "{2281, 604}";
},
{
position = "{2365, 760}";
},
{
angle = 90;
position = "{2222, 604}";
},
{
angle = 90;
position = "{2174, 808}";
}
);
layerId = "0225C979-6A3F-4323-834E-E3153ADD1AE8";
name = Regular;
paths = (
{
closed = 1;
nodes = (
"426 910 OFFCURVE",
"342 953 OFFCURVE",
"253 953 CURVE SMOOTH",
"137 953 OFFCURVE",
"71 888 OFFCURVE",
"71 795 CURVE SMOOTH",
"71 746 OFFCURVE",
"81 705 OFFCURVE",
"98 670 CURVE",
"162 670 LINE",
"145 713 OFFCURVE",
"139 741 OFFCURVE",
"139 782 CURVE SMOOTH",
"139 847 OFFCURVE",
"170 877 OFFCURVE",
"255 877 CURVE SMOOTH",
"347 877 OFFCURVE",
"434 839 OFFCURVE",
"517 741 CURVE",
"517 797 LINE SMOOTH",
"517 855 OFFCURVE",
"536 871 OFFCURVE",
"606 871 CURVE SMOOTH",
"624 871 OFFCURVE",
"641 870 OFFCURVE",
"657 865 CURVE",
"657 945 LINE",
"632 951 OFFCURVE",
"610 953 OFFCURVE",
"588 953 CURVE SMOOTH",
"494 953 OFFCURVE",
"459 913 OFFCURVE",
"459 823 CURVE",
"494 834 LINE"
);
}
);
width = 260;
},
{
anchors = (
{
name = imatra;
position = "{677, 952}";
}
);
associatedMasterId = "0225C979-6A3F-4323-834E-E3153ADD1AE8";
background = {
components = (
{
name = "aaMatra-deva";
transform = "{1, 0, 0, 1, 0, 0}";
}
);
paths = (
{
closed = 1;
nodes = (
"163 670 LINE",
"150 695 OFFCURVE",
"139 734 OFFCURVE",
"139 775 CURVE SMOOTH",
"139 870 OFFCURVE",
"197 877 OFFCURVE",
"543 877 CURVE SMOOTH",
"1210 877 OFFCURVE",
"1622 847 OFFCURVE",
"2222 760 CURVE",
"2222 802 LINE SMOOTH",
"2222 860 OFFCURVE",
"2241 876 OFFCURVE",
"2311 876 CURVE SMOOTH",
"2329 876 OFFCURVE",
"2346 875 OFFCURVE",
"2362 870 CURVE",
"2362 950 LINE",
"2337 956 OFFCURVE",
"2315 958 OFFCURVE",
"2293 958 CURVE SMOOTH",
"2192 958 OFFCURVE",
"2154 918 OFFCURVE",
"2154 830 CURVE",
"2174 830 LINE",
"1682 910 OFFCURVE",
"1198 953 OFFCURVE",
"557 953 CURVE SMOOTH",
"182 953 OFFCURVE",
"71 941 OFFCURVE",
"71 789 CURVE SMOOTH",
"71 748 OFFCURVE",
"79 712 OFFCURVE",
"98 670 CURVE"
);
}
);
};
components = (
{
name = "aaMatra-deva";
transform = "{1, 0, 0, 1, 0, 0}";
}
);
guideLines = (
{
angle = 90;
position = "{2349, 604}";
},
{
angle = 90;
position = "{2281, 604}";
},
{
position = "{2365, 760}";
},
{
angle = 90;
position = "{2222, 604}";
},
{
angle = 90;
position = "{2174, 808}";
}
);
layerId = "ECB53090-2A2A-414D-A19B-CE22B6E1EE19";
name = "Regular Jan 29 15, 14:53";
paths = (
{
closed = 1;
nodes = (
"162 670 LINE",
"145 713 OFFCURVE",
"139 741 OFFCURVE",
"139 772 CURVE SMOOTH",
"139 847 OFFCURVE",
"173 877 OFFCURVE",
"265 877 CURVE SMOOTH",
"361 877 OFFCURVE",
"451 845 OFFCURVE",
"537 761 CURVE",
"537 804 LINE SMOOTH",
"537 862 OFFCURVE",
"556 878 OFFCURVE",
"626 878 CURVE SMOOTH",
"644 878 OFFCURVE",
"661 877 OFFCURVE",
"677 872 CURVE",
"677 952 LINE",
"652 958 OFFCURVE",
"630 960 OFFCURVE",
"608 960 CURVE SMOOTH",
"507 960 OFFCURVE",
"469 920 OFFCURVE",
"469 830 CURVE",
"500 862 LINE",
"431 920 OFFCURVE",
"350 953 OFFCURVE",
"263 953 CURVE SMOOTH",
"141 953 OFFCURVE",
"71 888 OFFCURVE",
"71 785 CURVE SMOOTH",
"71 746 OFFCURVE",
"81 705 OFFCURVE",
"98 670 CURVE"
);
}
);
width = 260;
}
);
leftKerningGroup = matras;
rightKerningGroup = "pa-deva";
},
{
color = 4;
glyphname = "iiMatra-deva";
lastChange = "2015-01-31 05:52:20 +0000";
layers = (
{
anchors = (
{
name = bottom;
position = "{131, 0}";
},
{
name = iimatra;
position = "{-131, 680}";
},
{
name = top;
position = "{131, 680}";
}
);
background = {
components = (
{
name = "aaMatra-deva";
transform = "{1, 0, 0, 1, 0, 0}";
}
);
paths = (
{
closed = 1;
nodes = (
"-166 780 LINE",
"-96 780 LINE",
"-96 798 LINE SMOOTH",
"-96 843 OFFCURVE",
"-73 873 OFFCURVE",
"-7 873 CURVE SMOOTH",
"66 873 OFFCURVE",
"96 832 OFFCURVE",
"96 732 CURVE SMOOTH",
"96 670 LINE",
"166 670 LINE",
"166 747 LINE SMOOTH",
"166 861 OFFCURVE",
"133 953 OFFCURVE",
"-3 953 CURVE SMOOTH",
"-115 953 OFFCURVE",
"-166 895 OFFCURVE",
"-166 803 CURVE SMOOTH"
);
}
);
};
components = (
{
name = "aaMatra-deva";
transform = "{1, 0, 0, 1, 0, 0}";
}
);
layerId = "0225C979-6A3F-4323-834E-E3153ADD1AE8";
name = Regular;
paths = (
{
closed = 1;
nodes = (
"-166 780 LINE",
"-98 780 LINE",
"-98 798 LINE SMOOTH",
"-98 842 OFFCURVE",
"-75 872 OFFCURVE",
"-9 872 CURVE SMOOTH",
"66 872 OFFCURVE",
"96 833 OFFCURVE",
"96 732 CURVE SMOOTH",
"96 670 LINE",
"164 670 LINE",
"164 747 LINE SMOOTH",
"164 863 OFFCURVE",
"131 954 OFFCURVE",
"-6 954 CURVE SMOOTH",
"-115 954 OFFCURVE",
"-166 896 OFFCURVE",
"-166 803 CURVE SMOOTH"
);
}
);
width = 260;
}
);
leftKerningGroup = matras;
rightKerningGroup = "pa-deva";
rightMetricsKey = "pa-deva";
unicode = 0940;
},
{
color = 4;
glyphname = "oCandraMatra-deva";
lastChange = "2015-01-31 05:52:20 +0000";
layers = (
{
background = {
anchors = (
{
name = top;
position = "{131, 839}";
}
);
components = (
{
name = "aaMatra-deva";
transform = "{1, 0, 0, 1, 0, 0}";
}
);
paths = (
{
closed = 1;
nodes = (
"232 779 OFFCURVE",
"286 823 OFFCURVE",
"286 905 CURVE SMOOTH",
"286 915 LINE",
"226 915 LINE",
"226 910 LINE SMOOTH",
"226 870 OFFCURVE",
"194 849 OFFCURVE",
"131 849 CURVE SMOOTH",
"68 849 OFFCURVE",
"36 870 OFFCURVE",
"36 910 CURVE SMOOTH",
"36 915 LINE",
"-24 915 LINE",
"-24 905 LINE SMOOTH",
"-24 823 OFFCURVE",
"30 779 OFFCURVE",
"131 779 CURVE SMOOTH"
);
}
);
};
components = (
{
name = "aaMatra-deva";
transform = "{1, 0, 0, 1, 0, 0}";
},
{
name = "eCandraMatra-deva";
transform = "{1, 0, 0, 1, 5, 0}";
}
);
layerId = "0225C979-6A3F-4323-834E-E3153ADD1AE8";
name = Regular;
width = 260;
}
);
leftKerningGroup = matras;
rightKerningGroup = "pa-deva";
unicode = 0949;
},
{
color = 4;
glyphname = "auMatra_anusvara-deva";
lastChange = "2015-01-31 05:52:20 +0000";
layers = (
{
background = {
paths = (
{
closed = 1;
nodes = (
"228 831 OFFCURVE",
"204 809 OFFCURVE",
"204 768 CURVE SMOOTH",
"204 727 OFFCURVE",
"228 705 OFFCURVE",
"267 705 CURVE SMOOTH",
"306 705 OFFCURVE",
"330 727 OFFCURVE",
"330 768 CURVE SMOOTH",
"330 809 OFFCURVE",
"306 831 OFFCURVE",
"267 831 CURVE SMOOTH"
);
}
);
};
components = (
{
name = "aaMatra-deva";
transform = "{1, 0, 0, 1, 0, 0}";
},
{
name = "aiMatra-deva";
transform = "{1, 0, 0, 1, 0, 0}";
},
{
disableAlignment = 1;
name = "anusvara-deva";
transform = "{1, 0, 0, 1, 142, 0}";
}
);
layerId = "0225C979-6A3F-4323-834E-E3153ADD1AE8";
name = Regular;
width = 260;
}
);
leftKerningGroup = matras;
rightKerningGroup = "pa-deva";
},
{
color = 4;
glyphname = "prishthaMatraE-deva";
lastChange = "2015-01-31 05:52:20 +0000";
layers = (
{
background = {
paths = (
{
closed = 1;
nodes = (
"277 680 LINE",
"96 680 LINE",
"96 0 LINE",
"166 0 LINE",
"166 606 LINE",
"277 606 LINE"
);
}
);
};
layerId = "0225C979-6A3F-4323-834E-E3153ADD1AE8";
name = Regular;
paths = (
{
closed = 1;
nodes = (
"270 680 LINE",
"96 680 LINE",
"96 0 LINE",
"164 0 LINE",
"164 604 LINE",
"270 604 LINE"
);
}
);
width = 260;
}
);
leftKerningGroup = matras;
rightKerningGroup = "pa-deva";
unicode = 094E;
},
{
color = 4;
glyphname = "awMatra-deva";
lastChange = "2015-01-31 05:52:20 +0000";
layers = (
{
anchors = (
{
name = top;
position = "{257, 680}";
}
);
background = {
paths = (
{
closed = 1;
nodes = (
"164 660 LINE",
"164 865 LINE SMOOTH",
"164 976 OFFCURVE",
"112 984 OFFCURVE",
"23 999 CURVE SMOOTH",
"-68 1015 OFFCURVE",
"-97 1021 OFFCURVE",
"-97 1060 CURVE SMOOTH",
"-97 1070 LINE",
"-167 1070 LINE",
"-167 1060 LINE SMOOTH",
"-167 951 OFFCURVE",
"-89 940 OFFCURVE",
"-13 930 CURVE SMOOTH",
"56 921 OFFCURVE",
"99 918 OFFCURVE",
"99 866 CURVE SMOOTH",
"99 660 LINE"
);
},
{
closed = 1;
nodes = (
"96 660 LINE",
"141 660 LINE",
"141 711 LINE SMOOTH",
"141 807 OFFCURVE",
"107 857 OFFCURVE",
"19 857 CURVE SMOOTH",
"-13 857 OFFCURVE",
"-79 851 OFFCURVE",
"-116 851 CURVE SMOOTH",
"-175 851 OFFCURVE",
"-195 869 OFFCURVE",
"-195 914 CURVE SMOOTH",
"-195 924 LINE",
"-265 924 LINE",
"-265 914 LINE SMOOTH",
"-265 821 OFFCURVE",
"-221 775 OFFCURVE",
"-118 775 CURVE SMOOTH",
"-78 775 OFFCURVE",
"-17 783 OFFCURVE",
"16 783 CURVE SMOOTH",
"75 783 OFFCURVE",
"96 760 OFFCURVE",
"96 710 CURVE SMOOTH"
);
}
);
};
components = (
{
name = "aaMatra-deva";
transform = "{1, 0, 0, 1, 0, 0}";
}
);
layerId = "0225C979-6A3F-4323-834E-E3153ADD1AE8";
name = Regular;
paths = (
{
closed = 1;
nodes = (
"164 660 LINE",
"164 865 LINE SMOOTH",
"164 976 OFFCURVE",
"112 984 OFFCURVE",
"23 999 CURVE SMOOTH",
"-73 1015 OFFCURVE",
"-98 1024 OFFCURVE",
"-98 1060 CURVE SMOOTH",
"-98 1070 LINE",
"-166 1070 LINE",
"-166 1060 LINE SMOOTH",
"-166 949 OFFCURVE",
"-89 938 OFFCURVE",
"-13 928 CURVE SMOOTH",
"56 919 OFFCURVE",
"99 916 OFFCURVE",
"99 866 CURVE SMOOTH",
"99 660 LINE"
);
},
{
closed = 1;
nodes = (
"96 660 LINE",
"141 660 LINE",
"141 711 LINE SMOOTH",
"141 808 OFFCURVE",
"107 858 OFFCURVE",
"19 858 CURVE SMOOTH",
"-12 858 OFFCURVE",
"-80 852 OFFCURVE",
"-115 852 CURVE SMOOTH",
"-176 852 OFFCURVE",
"-196 870 OFFCURVE",
"-196 914 CURVE SMOOTH",
"-196 924 LINE",
"-264 924 LINE",
"-264 914 LINE SMOOTH",
"-264 820 OFFCURVE",
"-220 774 OFFCURVE",
"-119 774 CURVE SMOOTH",
"-77 774 OFFCURVE",
"-18 782 OFFCURVE",
"16 782 CURVE SMOOTH",
"75 782 OFFCURVE",
"96 759 OFFCURVE",
"96 710 CURVE SMOOTH"
);
}
);
width = 260;
}
);
leftKerningGroup = matras;
rightKerningGroup = "pa-deva";
rightMetricsKey = "pa-deva";
unicode = 094F;
},
{
color = 4;
glyphname = "iMatra-deva.01";
lastChange = "2015-01-31 05:52:20 +0000";
layers = (
{
anchors = (
{
name = imatra;
position = "{704, 807}";
},
{
name = top;
position = "{670, 811}";
}
);
background = {
anchors = (
{
name = imatra;
position = "{2317, 803}";
},
{
name = top;
position = "{2283, 807}";
}
);
components = (
{
name = "aaMatra-deva";
transform = "{1, 0, 0, 1, 0, 0}";
}
);
paths = (
{
closed = 1;
nodes = (
"162.667 670 LINE",
"148.333 700.667 OFFCURVE",
"136.333 740.667 OFFCURVE",
"136.333 786.333 CURVE SMOOTH",
"136.333 893 OFFCURVE",
"185.667 927.667 OFFCURVE",
"490 927.667 CURVE SMOOTH",
"923 928 OFFCURVE",
"1228 870 OFFCURVE",
"1664 738 CURVE",
"1664 804 LINE",
"1290 928 OFFCURVE",
"916 1004 OFFCURVE",
"490 1003.667 CURVE SMOOTH",
"155.333 1003.667 OFFCURVE",
"68.333 942.333 OFFCURVE",
"68.333 800 CURVE SMOOTH",
"68.333 753.333 OFFCURVE",
"79.333 712 OFFCURVE",
"98 670 CURVE"
);
}
);
};
components = (
{
name = "aaMatra-deva";
transform = "{1, 0, 0, 1, 0, 0}";
}
);
guideLines = (
{
angle = 90;
position = "{2350, 717}";
},
{
angle = 90;
position = "{2282, 717}";
},
{
angle = 90;
position = "{714, 599}";
},
{
angle = 90;
position = "{646, 599}";
}
);
layerId = "0225C979-6A3F-4323-834E-E3153ADD1AE8";
name = Regular;
paths = (
{
closed = 1;
nodes = (
"162 670 LINE",
"145 712 OFFCURVE",
"139 742 OFFCURVE",
"139 781 CURVE SMOOTH",
"139 851 OFFCURVE",
"173 877 OFFCURVE",
"266 877 CURVE SMOOTH",
"435 877 OFFCURVE",
"554 840 OFFCURVE",
"704 741 CURVE",
"704 807 LINE",
"572 903 OFFCURVE",
"422 953 OFFCURVE",
"266 953 CURVE SMOOTH",
"138 953 OFFCURVE",
"71 899 OFFCURVE",
"71 794 CURVE SMOOTH",
"71 750 OFFCURVE",
"80 708 OFFCURVE",
"98 670 CURVE"
);
}
);
width = 260;
}
);
leftKerningGroup = matras;
rightKerningGroup = "pa-deva";
},
{
color = 4;
glyphname = "iMatra-deva.02";
lastChange = "2015-01-31 05:52:20 +0000";
layers = (
{
anchors = (
{
name = imatra;
position = "{944, 806}";
},
{
name = top;
position = "{910, 810}";
}
);
components = (
{
name = "aaMatra-deva";
transform = "{1, 0, 0, 1, 0, 0}";
}
);
guideLines = (
{
angle = 90;
position = "{2350, 717}";
},
{
angle = 90;
position = "{2282, 717}";
},
{
angle = 90;
position = "{714, 599}";
},
{
angle = 90;
position = "{646, 599}";
}
);
layerId = "0225C979-6A3F-4323-834E-E3153ADD1AE8";
name = Regular;
paths = (
{
closed = 1;
nodes = (
"162.167 670 LINE",
"145.833 709.167 OFFCURVE",
"138.333 741.667 OFFCURVE",
"138.333 782.333 CURVE SMOOTH",
"138.333 861.5 OFFCURVE",
"176.167 889.667 OFFCURVE",
"322 889.667 CURVE SMOOTH",
"557 889.75 OFFCURVE",
"722.5 847.5 OFFCURVE",
"944 740.25 CURVE",
"944 806.25 LINE",
"751.5 909.25 OFFCURVE",
"545.5 965.75 OFFCURVE",
"322 965.667 CURVE SMOOTH",
"142.333 965.667 OFFCURVE",
"70.333 909.833 OFFCURVE",
"70.333 795.5 CURVE SMOOTH",
"70.333 750.833 OFFCURVE",
"79.833 709 OFFCURVE",
"98 670 CURVE"
);
}
);
width = 260;
}
);
leftKerningGroup = matras;
rightKerningGroup = "pa-deva";
},
{
color = 4;
glyphname = "iMatra-deva.03";
lastChange = "2015-01-31 05:52:20 +0000";
layers = (
{
anchors = (
{
name = imatra;
position = "{1184, 806}";
},
{
name = top;
position = "{1150, 810}";
}
);
components = (
{
name = "aaMatra-deva";
transform = "{1, 0, 0, 1, 0, 0}";
}
);
guideLines = (
{
angle = 90;
position = "{2350, 717}";
},
{
angle = 90;
position = "{2282, 717}";
},
{
angle = 90;
position = "{714, 599}";
},
{
angle = 90;
position = "{646, 599}";
}
);
layerId = "0225C979-6A3F-4323-834E-E3153ADD1AE8";
name = Regular;
paths = (
{
closed = 1;
nodes = (
"162.334 670 LINE",
"146.666 706.333 OFFCURVE",
"137.666 741.333 OFFCURVE",
"137.666 783.667 CURVE SMOOTH",
"137.666 872 OFFCURVE",
"179.334 902.333 OFFCURVE",
"378 902.333 CURVE SMOOTH",
"679 902.5 OFFCURVE",
"891 855 OFFCURVE",
"1184 739.5 CURVE",
"1184 805.5 LINE",
"931 915.5 OFFCURVE",
"669 978.5 OFFCURVE",
"378 978.333 CURVE SMOOTH",
"146.666 978.333 OFFCURVE",
"69.666 920.667 OFFCURVE",
"69.666 797 CURVE SMOOTH",
"69.666 751.667 OFFCURVE",
"79.666 710 OFFCURVE",
"98 670 CURVE"
);
}
);
width = 260;
}
);
leftKerningGroup = matras;
rightKerningGroup = "pa-deva";
},
{
color = 4;
glyphname = "iMatra-deva.04";
lastChange = "2015-01-31 05:52:20 +0000";
layers = (
{
anchors = (
{
name = imatra;
position = "{1424, 805}";
},
{
name = top;
position = "{1390, 809}";
}
);
components = (
{
name = "aaMatra-deva";
transform = "{1, 0, 0, 1, 0, 0}";
}
);
guideLines = (
{
angle = 90;
position = "{2350, 717}";
},
{
angle = 90;
position = "{2282, 717}";
},
{
angle = 90;
position = "{714, 599}";
},
{
angle = 90;
position = "{646, 599}";
}
);
layerId = "0225C979-6A3F-4323-834E-E3153ADD1AE8";
name = Regular;
paths = (
{
closed = 1;
nodes = (
"162.5 670 LINE",
"147.5 703.5 OFFCURVE",
"137 741 OFFCURVE",
"137 785 CURVE SMOOTH",
"137 882.5 OFFCURVE",
"182.5 915 OFFCURVE",
"434 915 CURVE SMOOTH",
"801 915.25 OFFCURVE",
"1059.5 862.5 OFFCURVE",
"1424 738.75 CURVE",
"1424 804.75 LINE",
"1110.5 921.75 OFFCURVE",
"792.5 991.25 OFFCURVE",
"434 991 CURVE SMOOTH",
"151 991 OFFCURVE",
"69 931.5 OFFCURVE",
"69 798.5 CURVE SMOOTH",
"69 752.5 OFFCURVE",
"79.5 711 OFFCURVE",
"98 670 CURVE"
);
}
);
width = 260;
}
);
leftKerningGroup = matras;
rightKerningGroup = "pa-deva";
},
{
color = 4;
glyphname = "iMatra-deva.05";
lastChange = "2015-01-31 05:52:20 +0000";
layers = (
{
anchors = (
{
name = imatra;
position = "{1664, 804}";
},
{
name = top;
position = "{1630, 808}";
}
);
components = (
{
name = "aaMatra-deva";
transform = "{1, 0, 0, 1, 0, 0}";
}
);
guideLines = (
{
angle = 90;
position = "{2350, 717}";
},
{
angle = 90;
position = "{2282, 717}";
},
{
angle = 90;
position = "{714, 599}";
},
{
angle = 90;
position = "{646, 599}";
}
);
layerId = "0225C979-6A3F-4323-834E-E3153ADD1AE8";
name = Regular;
paths = (
{
closed = 1;
nodes = (
"162.667 670 LINE",
"148.333 700.667 OFFCURVE",
"136.333 740.667 OFFCURVE",
"136.333 786.333 CURVE SMOOTH",
"136.333 893 OFFCURVE",
"185.667 927.667 OFFCURVE",
"490 927.667 CURVE SMOOTH",
"923 928 OFFCURVE",
"1228 870 OFFCURVE",
"1664 738 CURVE",
"1664 804 LINE",
"1290 928 OFFCURVE",
"916 1004 OFFCURVE",
"490 1003.667 CURVE SMOOTH",
"155.333 1003.667 OFFCURVE",
"68.333 942.333 OFFCURVE",
"68.333 800 CURVE SMOOTH",
"68.333 753.333 OFFCURVE",
"79.333 712 OFFCURVE",
"98 670 CURVE"
);
}
);
width = 260;
}
);
leftKerningGroup = matras;
rightKerningGroup = "pa-deva";
},
{
color = 4;
glyphname = "iMatra_reph-deva.01";
lastChange = "2015-01-31 05:52:20 +0000";
layers = (
{
anchors = (
{
name = imatra;
position = "{766, 945}";
}
);
background = {
anchors = (
{
name = imatra;
position = "{1804, 945}";
}
);
components = (
{
name = "aaMatra-deva";
transform = "{1, 0, 0, 1, 0, 0}";
}
);
paths = (
{
closed = 1;
nodes = (
"155 1004 OFFCURVE",
"68 942 OFFCURVE",
"68 800 CURVE SMOOTH",
"68 753 OFFCURVE",
"79 712 OFFCURVE",
"98 670 CURVE",
"163 670 LINE",
"148 701 OFFCURVE",
"136 741 OFFCURVE",
"136 786 CURVE SMOOTH",
"136 893 OFFCURVE",
"186 928 OFFCURVE",
"470 928 CURVE SMOOTH",
"894 928 OFFCURVE",
"1179 870 OFFCURVE",
"1586 741 CURVE",
"1586 797 LINE SMOOTH",
"1586 855 OFFCURVE",
"1605 871 OFFCURVE",
"1675 871 CURVE SMOOTH",
"1693 871 OFFCURVE",
"1710 870 OFFCURVE",
"1726 865 CURVE",
"1726 945 LINE",
"1701 951 OFFCURVE",
"1679 953 OFFCURVE",
"1657 953 CURVE SMOOTH",
"1563 953 OFFCURVE",
"1528 913 OFFCURVE",
"1528 813 CURVE",
"1539 822 LINE",
"1206 934 OFFCURVE",
"870 1004 OFFCURVE",
"470 1004 CURVE SMOOTH"
);
}
);
};
components = (
{
name = "aaMatra-deva";
transform = "{1, 0, 0, 1, 0, 0}";
}
);
guideLines = (
{
position = "{2365, 741}";
},
{
angle = 90;
position = "{753, 603}";
},
{
angle = 90;
position = "{685, 603}";
}
);
layerId = "0225C979-6A3F-4323-834E-E3153ADD1AE8";
name = Regular;
paths = (
{
closed = 1;
nodes = (
"138 953 OFFCURVE",
"71 899 OFFCURVE",
"71 794 CURVE SMOOTH",
"71 750 OFFCURVE",
"80 708 OFFCURVE",
"98 670 CURVE",
"162 670 LINE",
"145 712 OFFCURVE",
"139 742 OFFCURVE",
"139 781 CURVE SMOOTH",
"139 851 OFFCURVE",
"173 877 OFFCURVE",
"266 877 CURVE SMOOTH",
"405 877 OFFCURVE",
"502 840 OFFCURVE",
"626 741 CURVE",
"626 797 LINE SMOOTH",
"626 855 OFFCURVE",
"645 871 OFFCURVE",
"715 871 CURVE SMOOTH",
"733 871 OFFCURVE",
"750 870 OFFCURVE",
"766 865 CURVE",
"766 945 LINE",
"741 951 OFFCURVE",
"719 953 OFFCURVE",
"697 953 CURVE SMOOTH",
"603 953 OFFCURVE",
"568 913 OFFCURVE",
"568 823 CURVE",
"580 842 LINE",
"483 915 OFFCURVE",
"377 953 OFFCURVE",
"266 953 CURVE SMOOTH"
);
}
);
width = 260;
}
);
leftKerningGroup = matras;
rightKerningGroup = "pa-deva";
},
{
color = 4;
glyphname = "iMatra_reph-deva.02";
lastChange = "2015-01-31 05:52:20 +0000";
layers = (
{
anchors = (
{
name = imatra;
position = "{1006, 945}";
}
);
components = (
{
name = "aaMatra-deva";
transform = "{1, 0, 0, 1, 0, 0}";
}
);
guideLines = (
{
position = "{2365, 741}";
},
{
angle = 90;
position = "{753, 603}";
},
{
angle = 90;
position = "{685, 603}";
}
);
layerId = "0225C979-6A3F-4323-834E-E3153ADD1AE8";
name = Regular;
paths = (
{
closed = 1;
nodes = (
"142.25 965.75 OFFCURVE",
"70.25 909.75 OFFCURVE",
"70.25 795.5 CURVE SMOOTH",
"70.25 750.75 OFFCURVE",
"79.75 709 OFFCURVE",
"98 670 CURVE",
"162.25 670 LINE",
"145.75 709.25 OFFCURVE",
"138.25 741.75 OFFCURVE",
"138.25 782.25 CURVE SMOOTH",
"138.25 861.5 OFFCURVE",
"176.25 889.75 OFFCURVE",
"317 889.75 CURVE SMOOTH",
"527.25 889.75 OFFCURVE",
"671.25 847.5 OFFCURVE",
"866 741 CURVE",
"866 797 LINE SMOOTH",
"866 855 OFFCURVE",
"885 871 OFFCURVE",
"955 871 CURVE SMOOTH",
"973 871 OFFCURVE",
"990 870 OFFCURVE",
"1006 865 CURVE",
"1006 945 LINE",
"981 951 OFFCURVE",
"959 953 OFFCURVE",
"937 953 CURVE SMOOTH",
"843 953 OFFCURVE",
"808 913 OFFCURVE",
"808 820.5 CURVE",
"819.75 837 LINE",
"663.75 919.75 OFFCURVE",
"500.25 965.75 OFFCURVE",
"317 965.75 CURVE SMOOTH"
);
}
);
width = 260;
}
);
leftKerningGroup = matras;
rightKerningGroup = "pa-deva";
},
{
color = 4;
glyphname = "iMatra_reph-deva.03";
lastChange = "2015-01-31 05:52:20 +0000";
layers = (
{
anchors = (
{
name = imatra;
position = "{1246, 945}";
}
);
components = (
{
name = "aaMatra-deva";
transform = "{1, 0, 0, 1, 0, 0}";
}
);
guideLines = (
{
position = "{2365, 741}";
},
{
angle = 90;
position = "{753, 603}";
},
{
angle = 90;
position = "{685, 603}";
}
);
layerId = "0225C979-6A3F-4323-834E-E3153ADD1AE8";
name = Regular;
paths = (
{
closed = 1;
nodes = (
"146.5 978.5 OFFCURVE",
"69.5 920.5 OFFCURVE",
"69.5 797 CURVE SMOOTH",
"69.5 751.5 OFFCURVE",
"79.5 710 OFFCURVE",
"98 670 CURVE",
"162.5 670 LINE",
"146.5 706.5 OFFCURVE",
"137.5 741.5 OFFCURVE",
"137.5 783.5 CURVE SMOOTH",
"137.5 872 OFFCURVE",
"179.5 902.5 OFFCURVE",
"368 902.5 CURVE SMOOTH",
"649.5 902.5 OFFCURVE",
"840.5 855 OFFCURVE",
"1106 741 CURVE",
"1106 797 LINE SMOOTH",
"1106 855 OFFCURVE",
"1125 871 OFFCURVE",
"1195 871 CURVE SMOOTH",
"1213 871 OFFCURVE",
"1230 870 OFFCURVE",
"1246 865 CURVE",
"1246 945 LINE",
"1221 951 OFFCURVE",
"1199 953 OFFCURVE",
"1177 953 CURVE SMOOTH",
"1083 953 OFFCURVE",
"1048 913 OFFCURVE",
"1048 818 CURVE",
"1059.5 832 LINE",
"844.5 924.5 OFFCURVE",
"623.5 978.5 OFFCURVE",
"368 978.5 CURVE SMOOTH"
);
}
);
width = 260;
}
);
leftKerningGroup = matras;
rightKerningGroup = "pa-deva";
},
{
color = 4;
glyphname = "iMatra_reph-deva.04";
lastChange = "2015-01-31 05:52:20 +0000";
layers = (
{
anchors = (
{
name = imatra;
position = "{1486, 945}";
}
);
components = (
{
name = "aaMatra-deva";
transform = "{1, 0, 0, 1, 0, 0}";
}
);
guideLines = (
{
position = "{2365, 741}";
},
{
angle = 90;
position = "{753, 603}";
},
{
angle = 90;
position = "{685, 603}";
}
);
layerId = "0225C979-6A3F-4323-834E-E3153ADD1AE8";
name = Regular;
paths = (
{
closed = 1;
nodes = (
"150.75 991.25 OFFCURVE",
"68.75 931.25 OFFCURVE",
"68.75 798.5 CURVE SMOOTH",
"68.75 752.25 OFFCURVE",
"79.25 711 OFFCURVE",
"98 670 CURVE",
"162.75 670 LINE",
"147.25 703.75 OFFCURVE",
"136.75 741.25 OFFCURVE",
"136.75 784.75 CURVE SMOOTH",
"136.75 882.5 OFFCURVE",
"182.75 915.25 OFFCURVE",
"419 915.25 CURVE SMOOTH",
"771.75 915.25 OFFCURVE",
"1009.75 862.5 OFFCURVE",
"1346 741 CURVE",
"1346 797 LINE SMOOTH",
"1346 855 OFFCURVE",
"1365 871 OFFCURVE",
"1435 871 CURVE SMOOTH",
"1453 871 OFFCURVE",
"1470 870 OFFCURVE",
"1486 865 CURVE",
"1486 945 LINE",
"1461 951 OFFCURVE",
"1439 953 OFFCURVE",
"1417 953 CURVE SMOOTH",
"1323 953 OFFCURVE",
"1288 913 OFFCURVE",
"1288 815.5 CURVE",
"1299.25 827 LINE",
"1025.25 929.25 OFFCURVE",
"746.75 991.25 OFFCURVE",
"419 991.25 CURVE SMOOTH"
);
}
);
width = 260;
}
);
leftKerningGroup = matras;
rightKerningGroup = "pa-deva";
},
{
color = 4;
glyphname = "iMatra_reph-deva.05";
lastChange = "2015-01-31 05:52:20 +0000";
layers = (
{
anchors = (
{
name = imatra;
position = "{1726, 945}";
}
);
components = (
{
name = "aaMatra-deva";
transform = "{1, 0, 0, 1, 0, 0}";
}
);
guideLines = (
{
position = "{2365, 741}";
},
{
angle = 90;
position = "{753, 603}";
},
{
angle = 90;
position = "{685, 603}";
}
);
layerId = "0225C979-6A3F-4323-834E-E3153ADD1AE8";
name = Regular;
paths = (
{
closed = 1;
nodes = (
"155 1004 OFFCURVE",
"68 942 OFFCURVE",
"68 800 CURVE SMOOTH",
"68 753 OFFCURVE",
"79 712 OFFCURVE",
"98 670 CURVE",
"163 670 LINE",
"148 701 OFFCURVE",
"136 741 OFFCURVE",
"136 786 CURVE SMOOTH",
"136 893 OFFCURVE",
"186 928 OFFCURVE",
"470 928 CURVE SMOOTH",
"894 928 OFFCURVE",
"1179 870 OFFCURVE",
"1586 741 CURVE",
"1586 797 LINE SMOOTH",
"1586 855 OFFCURVE",
"1605 871 OFFCURVE",
"1675 871 CURVE SMOOTH",
"1693 871 OFFCURVE",
"1710 870 OFFCURVE",
"1726 865 CURVE",
"1726 945 LINE",
"1701 951 OFFCURVE",
"1679 953 OFFCURVE",
"1657 953 CURVE SMOOTH",
"1563 953 OFFCURVE",
"1528 913 OFFCURVE",
"1528 813 CURVE",
"1539 822 LINE",
"1206 934 OFFCURVE",
"870 1004 OFFCURVE",
"470 1004 CURVE SMOOTH"
);
}
);
width = 260;
}
);
leftKerningGroup = matras;
rightKerningGroup = "pa-deva";
},
{
color = 4;
glyphname = "ka-deva";
lastChange = "2015-01-31 05:52:20 +0000";
layers = (
{
anchors = (
{
name = bottom;
position = "{416, 0}";
},
{
name = nukta;
position = "{76, 0}";
},
{
name = top;
position = "{416, 680}";
}
);
background = {
paths = (
{
closed = 1;
nodes = (
"102 496 OFFCURVE",
"38 444 OFFCURVE",
"38 304 CURVE SMOOTH",
"38 164 OFFCURVE",
"102 112 OFFCURVE",
"233 112 CURVE SMOOTH",
"305 112 OFFCURVE",
"349 128 OFFCURVE",
"392 151 CURVE",
"392 218 LINE",
"346 198 OFFCURVE",
"309 192 OFFCURVE",
"252 192 CURVE SMOOTH",
"143 192 OFFCURVE",
"112 214 OFFCURVE",
"112 304 CURVE SMOOTH",
"112 394 OFFCURVE",
"144 416 OFFCURVE",
"253 416 CURVE SMOOTH",
"310 416 OFFCURVE",
"346 409 OFFCURVE",
"391 389 CURVE",
"391 459 LINE",
"347 481 OFFCURVE",
"303 496 OFFCURVE",
"233 496 CURVE SMOOTH"
);
},
{
closed = 1;
nodes = (
"381 616 LINE",
"381 0 LINE",
"451 0 LINE",
"451 616 LINE"
);
},
{
closed = 1;
nodes = (
"-17 680 LINE",
"-16 606 LINE",
"858 606 LINE",
"858 680 LINE"
);
},
{
closed = 1;
nodes = (
"541 116 LINE",
"566 113 OFFCURVE",
"593 112 OFFCURVE",
"613 112 CURVE SMOOTH",
"681 112 OFFCURVE",
"720 124 OFFCURVE",
"748 152 CURVE SMOOTH",
"778 183 OFFCURVE",
"794 232 OFFCURVE",
"794 303 CURVE SMOOTH",
"794 444 OFFCURVE",
"730 496 OFFCURVE",
"599 496 CURVE SMOOTH",
"529 496 OFFCURVE",
"485 481 OFFCURVE",
"441 459 CURVE",
"441 389 LINE",
"486 409 OFFCURVE",
"521 416 OFFCURVE",
"580 416 CURVE SMOOTH",
"692 416 OFFCURVE",
"720 394 OFFCURVE",
"720 304 CURVE SMOOTH",
"720 214 OFFCURVE",
"696 192 OFFCURVE",
"609 192 CURVE SMOOTH",
"586 192 OFFCURVE",
"564 193 OFFCURVE",
"541 196 CURVE"
);
}
);
};
layerId = "0225C979-6A3F-4323-834E-E3153ADD1AE8";
name = Regular;
paths = (
{
closed = 1;
nodes = (
"102 496 OFFCURVE",
"40 444 OFFCURVE",
"40 303 CURVE SMOOTH",
"40 163 OFFCURVE",
"102 110 OFFCURVE",
"233 110 CURVE SMOOTH",
"306 110 OFFCURVE",
"350 126 OFFCURVE",
"393 150 CURVE",
"393 218 LINE",
"347 198 OFFCURVE",
"310 192 OFFCURVE",
"252 192 CURVE SMOOTH",
"143 192 OFFCURVE",
"112 214 OFFCURVE",
"112 302 CURVE SMOOTH",
"112 392 OFFCURVE",
"144 414 OFFCURVE",
"251 414 CURVE SMOOTH",
"312 414 OFFCURVE",
"347 407 OFFCURVE",
"392 387 CURVE",
"392 459 LINE",
"348 481 OFFCURVE",
"304 496 OFFCURVE",
"233 496 CURVE SMOOTH"
);
},
{
closed = 1;
nodes = (
"382 614 LINE",
"382 0 LINE",
"450 0 LINE",
"450 614 LINE"
);
},
{
closed = 1;
nodes = (
"-10 680 LINE",
"-10 604 LINE",
"842 604 LINE",
"842 680 LINE"
);
},
{
closed = 1;
nodes = (
"541 114 LINE",
"566 111 OFFCURVE",
"593 110 OFFCURVE",
"613 110 CURVE SMOOTH",
"677 110 OFFCURVE",
"720 121 OFFCURVE",
"748 150 CURVE SMOOTH",
"778 181 OFFCURVE",
"792 232 OFFCURVE",
"792 301 CURVE SMOOTH",
"792 444 OFFCURVE",
"731 496 OFFCURVE",
"599 496 CURVE SMOOTH",
"528 496 OFFCURVE",
"484 481 OFFCURVE",
"440 459 CURVE",
"440 387 LINE",
"485 407 OFFCURVE",
"519 414 OFFCURVE",
"582 414 CURVE SMOOTH",
"693 414 OFFCURVE",
"720 392 OFFCURVE",
"720 300 CURVE SMOOTH",
"720 213 OFFCURVE",
"696 192 OFFCURVE",
"607 192 CURVE SMOOTH",
"587 192 OFFCURVE",
"564 193 OFFCURVE",
"541 196 CURVE"
);
}
);
width = 832;
}
);
leftKerningGroup = "va-deva";
rightKerningGroup = "ka-deva";
rightMetricsKey = "pa-deva";
unicode = 0915;
},
{
color = 4;
glyphname = "kha-deva";
lastChange = "2015-01-31 05:52:20 +0000";
layers = (
{
anchors = (
{
name = bottom;
position = "{728, 0}";
},
{
name = nukta;
position = "{70, 0}";
},
{
name = top;
position = "{728, 680}";
}
);
background = {
anchors = (
{
name = nukta;
position = "{70, 30}";
},
{
name = bottom;
position = "{728, 0}";
},
{
name = top;
position = "{728, 680}";
}
);
guideLines = (
{
position = "{83, 302}";
}
);
paths = (
{
closed = 1;
nodes = (
"562 0 OFFCURVE",
"641 20 OFFCURVE",
"705 72 CURVE",
"705 144 LINE",
"650 103 OFFCURVE",
"559 82 OFFCURVE",
"475 82 CURVE SMOOTH",
"350 82 OFFCURVE",
"230 128 OFFCURVE",
"104 296 CURVE",
"108 269 LINE",
"236 269 OFFCURVE",
"288 318 OFFCURVE",
"288 444 CURVE SMOOTH",
"288 511 OFFCURVE",
"273 579 OFFCURVE",
"256 617 CURVE",
"156 617 LINE",
"189 582 OFFCURVE",
"216 519 OFFCURVE",
"216 454 CURVE SMOOTH",
"216 365 OFFCURVE",
"165 347 OFFCURVE",
"78 347 CURVE SMOOTH",
"35 347 LINE",
"35 277 LINE",
"195 50 OFFCURVE",
"314 0 OFFCURVE",
"466 0 CURVE SMOOTH"
);
},
{
closed = 1;
nodes = (
"609 158 OFFCURVE",
"659 171 OFFCURVE",
"705 194 CURVE",
"705 264 LINE",
"658 247 OFFCURVE",
"625 240 OFFCURVE",
"562 240 CURVE SMOOTH",
"469 240 OFFCURVE",
"442 255 OFFCURVE",
"442 328 CURVE SMOOTH",
"442 401 OFFCURVE",
"469 416 OFFCURVE",
"562 416 CURVE SMOOTH",
"625 416 OFFCURVE",
"658 409 OFFCURVE",
"705 392 CURVE",
"705 462 LINE",
"659 485 OFFCURVE",
"609 498 OFFCURVE",
"542 498 CURVE SMOOTH",
"421 498 OFFCURVE",
"370 455 OFFCURVE",
"370 328 CURVE SMOOTH",
"370 201 OFFCURVE",
"421 158 OFFCURVE",
"542 158 CURVE SMOOTH"
);
},
{
closed = 1;
nodes = (
"762 0 LINE",
"762 616 LINE",
"694 616 LINE",
"694 0 LINE"
);
},
{
closed = 1;
nodes = (
"859 604 LINE",
"859 680 LINE",
"25 680 LINE",
"25 604 LINE"
);
}
);
};
layerId = "0225C979-6A3F-4323-834E-E3153ADD1AE8";
name = Regular;
paths = (
{
closed = 1;
nodes = (
"562 0 OFFCURVE",
"641 20 OFFCURVE",
"705 72 CURVE",
"705 144 LINE",
"650 103 OFFCURVE",
"559 82 OFFCURVE",
"475 82 CURVE SMOOTH",
"350 82 OFFCURVE",
"230 128 OFFCURVE",
"104 296 CURVE",
"108 269 LINE",
"236 269 OFFCURVE",
"288 318 OFFCURVE",
"288 444 CURVE SMOOTH",
"288 511 OFFCURVE",
"273 579 OFFCURVE",
"256 617 CURVE",
"156 617 LINE",
"189 582 OFFCURVE",
"216 519 OFFCURVE",
"216 454 CURVE SMOOTH",
"216 365 OFFCURVE",
"165 347 OFFCURVE",
"78 347 CURVE SMOOTH",
"35 347 LINE",
"35 277 LINE",
"195 50 OFFCURVE",
"314 0 OFFCURVE",
"466 0 CURVE SMOOTH"
);
},
{
closed = 1;
nodes = (
"609 158 OFFCURVE",
"659 171 OFFCURVE",
"705 194 CURVE",
"705 264 LINE",
"658 247 OFFCURVE",
"625 240 OFFCURVE",
"562 240 CURVE SMOOTH",
"469 240 OFFCURVE",
"442 255 OFFCURVE",
"442 328 CURVE SMOOTH",
"442 401 OFFCURVE",
"469 416 OFFCURVE",
"562 416 CURVE SMOOTH",
"625 416 OFFCURVE",
"658 409 OFFCURVE",
"705 392 CURVE",
"705 462 LINE",
"659 485 OFFCURVE",
"609 498 OFFCURVE",
"542 498 CURVE SMOOTH",
"421 498 OFFCURVE",
"370 455 OFFCURVE",
"370 328 CURVE SMOOTH",
"370 201 OFFCURVE",
"421 158 OFFCURVE",
"542 158 CURVE SMOOTH"
);
},
{
closed = 1;
nodes = (
"762 0 LINE",
"762 616 LINE",
"694 616 LINE",
"694 0 LINE"
);
},
{
closed = 1;
nodes = (
"859 604 LINE",
"859 680 LINE",
"-10 680 LINE",
"-10 604 LINE"
);
}
);
width = 849;
},
{
anchors = (
{
name = bottom;
position = "{741, 0}";
},
{
name = nukta;
position = "{57, 0}";
},
{
name = top;
position = "{741, 680}";
}
);
associatedMasterId = "0225C979-6A3F-4323-834E-E3153ADD1AE8";
background = {
guideLines = (
{
position = "{80, 302}";
}
);
paths = (
{
closed = 1;
nodes = (
"335 0 LINE",
"335 1 LINE",
"100 288 LINE",
"84 271 LINE",
"230 271 OFFCURVE",
"291 317 OFFCURVE",
"291 440 CURVE SMOOTH",
"291 513 OFFCURVE",
"274 579 OFFCURVE",
"254 617 CURVE",
"153 617 LINE",
"185 582 OFFCURVE",
"212 520 OFFCURVE",
"212 453 CURVE SMOOTH",
"212 365 OFFCURVE",
"155 347 OFFCURVE",
"70 347 CURVE SMOOTH",
"32 347 LINE",
"32 260 LINE",
"240 0 LINE"
);
},
{
closed = 1;
nodes = (
"616 128 OFFCURVE",
"668 143 OFFCURVE",
"717 167 CURVE",
"717 234 LINE",
"667 215 OFFCURVE",
"630 208 OFFCURVE",
"572 208 CURVE SMOOTH",
"469 208 OFFCURVE",
"440 230 OFFCURVE",
"440 312 CURVE SMOOTH",
"440 394 OFFCURVE",
"469 416 OFFCURVE",
"572 416 CURVE SMOOTH",
"630 416 OFFCURVE",
"667 408 OFFCURVE",
"717 390 CURVE",
"717 458 LINE",
"668 482 OFFCURVE",
"616 496 OFFCURVE",
"546 496 CURVE SMOOTH",
"419 496 OFFCURVE",
"366 447 OFFCURVE",
"366 312 CURVE SMOOTH",
"366 177 OFFCURVE",
"419 128 OFFCURVE",
"546 128 CURVE SMOOTH"
);
},
{
closed = 1;
nodes = (
"776 0 LINE",
"776 616 LINE",
"706 616 LINE",
"706 0 LINE"
);
},
{
closed = 1;
nodes = (
"887 606 LINE",
"887 680 LINE",
"0 680 LINE",
"0 606 LINE"
);
}
);
};
guideLines = (
{
angle = 90;
position = "{32, 347}";
}
);
layerId = "B2231DF0-DFDD-489C-BA1E-A180C94A3D18";
name = "Regular Dec 1 14, 18:02";
paths = (
{
closed = 1;
nodes = (
"335 0 LINE",
"335 1 LINE",
"100 288 LINE",
"84 271 LINE",
"230 271 OFFCURVE",
"291 317 OFFCURVE",
"291 440 CURVE SMOOTH",
"291 513 OFFCURVE",
"274 579 OFFCURVE",
"254 617 CURVE",
"153 617 LINE",
"185 582 OFFCURVE",
"212 520 OFFCURVE",
"212 453 CURVE SMOOTH",
"212 365 OFFCURVE",
"155 347 OFFCURVE",
"70 347 CURVE SMOOTH",
"32 347 LINE",
"32 260 LINE",
"240 0 LINE"
);
},
{
closed = 1;
nodes = (
"616 128 OFFCURVE",
"668 143 OFFCURVE",
"717 167 CURVE",
"717 234 LINE",
"667 215 OFFCURVE",
"630 208 OFFCURVE",
"572 208 CURVE SMOOTH",
"469 208 OFFCURVE",
"440 230 OFFCURVE",
"440 312 CURVE SMOOTH",
"440 394 OFFCURVE",
"469 416 OFFCURVE",
"572 416 CURVE SMOOTH",
"630 416 OFFCURVE",
"667 408 OFFCURVE",
"717 390 CURVE",
"717 458 LINE",
"668 482 OFFCURVE",
"616 496 OFFCURVE",
"546 496 CURVE SMOOTH",
"419 496 OFFCURVE",
"366 447 OFFCURVE",
"366 312 CURVE SMOOTH",
"366 177 OFFCURVE",
"419 128 OFFCURVE",
"546 128 CURVE SMOOTH"
);
},
{
closed = 1;
nodes = (
"776 0 LINE",
"776 616 LINE",
"706 616 LINE",
"706 0 LINE"
);
},
{
closed = 1;
nodes = (
"882 606 LINE",
"882 680 LINE",
"0 680 LINE",
"0 606 LINE"
);
}
);
width = 872;
}
);
leftKerningGroup = "ra-deva";
rightKerningGroup = "pa-deva";
rightMetricsKey = "pa-deva";
unicode = 0916;
},
{
color = 4;
glyphname = "ga-deva";
lastChange = "2015-01-31 05:52:20 +0000";
layers = (
{
anchors = (
{
name = bottom;
position = "{456, 0}";
},
{
name = nukta;
position = "{111, 0}";
},
{
name = top;
position = "{456, 680}";
}
);
background = {
paths = (
{
closed = 1;
nodes = (
"422 614 LINE",
"422 0 LINE",
"490 0 LINE",
"490 614 LINE"
);
},
{
closed = 1;
nodes = (
"0 680 LINE",
"0 604 LINE",
"596 604 LINE",
"596 680 LINE"
);
},
{
closed = 1;
nodes = (
"21 269 LINE",
"21 192 OFFCURVE",
"52 163 OFFCURVE",
"111 163 CURVE SMOOTH",
"170 163 OFFCURVE",
"201 192 OFFCURVE",
"201 282 CURVE SMOOTH",
"201 614 LINE",
"133 614 LINE",
"133 287 LINE",
"146 322 LINE"
);
}
);
};
layerId = "0225C979-6A3F-4323-834E-E3153ADD1AE8";
name = Regular;
paths = (
{
closed = 1;
nodes = (
"422 614 LINE",
"422 0 LINE",
"490 0 LINE",
"490 614 LINE"
);
},
{
closed = 1;
nodes = (
"-10 680 LINE",
"-10 604 LINE",
"596 604 LINE",
"596 680 LINE"
);
},
{
closed = 1;
nodes = (
"21 269 LINE",
"21 192 OFFCURVE",
"52 163 OFFCURVE",
"111 163 CURVE SMOOTH",
"170 163 OFFCURVE",
"201 192 OFFCURVE",
"201 282 CURVE SMOOTH",
"201 614 LINE",
"133 614 LINE",
"133 287 LINE",
"146 322 LINE"
);
}
);
width = 586;
}
);
leftKerningGroup = "ga-deva";
rightKerningGroup = "pa-deva";
rightMetricsKey = "pa-deva";
unicode = 0917;
},
